<?xml version="1.0" standalone="no"?>
<!DOCTYPE svg PUBLIC "-//W3C//DTD SVG 1.1//EN" "http://www.w3.org/Graphics/SVG/1.1/DTD/svg11.dtd" >
<svg>
<metadata>
Created by FontForge 20090622 at Thu Jan 18 20:17:31 2018
 By deploy user
Copyright (c) 2018 by Danti. All rights reserved.
</metadata>
<defs>
<font id="Witter" horiz-adv-x="310" >
  <font-face 
    font-family="Witter"
    font-weight="400"
    font-stretch="normal"
    units-per-em="1000"
    panose-1="2 0 5 3 0 0 0 2 0 3"
    ascent="800"
    descent="-200"
    x-height="239"
    cap-height="734"
    bbox="-1720.12 -960.217 2245.62 1195.28"
    underline-thickness="50"
    underline-position="-50"
    unicode-range="U+000D-U+FB06"
  />
<missing-glyph horiz-adv-x="301" 
 />
    <glyph glyph-name="T_h" unicode="Th" horiz-adv-x="850" 
d="M-59 185q8 6 16 9q17 6 26 -7t11 -42q37 -7 96 2q153 407 225 564q-462 -2 -520 -18q2 -2 3 -7t0 -7q-2 -3 -12 9q-22 25 12 34q5 2 11 3q27 4 74 6t79.5 2.5t92.5 0t69 -0.5l201 -3q2 2 12 0q188 -5 340 -5q53 104 91 150q21 24 27 9q7 -16 -76 -159h91q4 0 26.5 1l43 2
t30.5 3q-2 5 -1 7q4 6 10 3q12 -5 11 -13q-5 -24 -202 -17h-17l-86 -142q-113 -246 -223 -558q148 214 207 176q30 -21 7 -98q-16 -56 -14 -65q3 -9 16 -7q17 3 19 4q25 8 62 38t65 58l67 69.5l50 52.5q5 5 10 1q7 -4 1 -10q-5 -5 -53.5 -56.5t-79.5 -81.5t-75.5 -60
t-71.5 -29q-26 1 -29.5 26.5t7 57t15 58.5t-5.5 31q-21 7 -53 -17t-65.5 -66.5t-55 -73.5t-38.5 -58q-1 -2 -3 -3q-2 -6 -2 -8q-4 -11 -24 -16q-7 -1 -7 3q82 252 196 509q-86 -120 -197.5 -204t-239.5 -107q-166 -425 -236 -561q-4 -8 -9.5 -8t-8.5 5t-1 9q4 8 4 9
q38 86 80.5 271.5t40.5 272.5q-26 5 -40 16q-19 16 -1 34q0 2 2 2zM670 711h-325q-73 -159 -229 -559q50 11 94 28q191 78 339 293l39 63zM-6 130q1 -81 -30.5 -224.5t-50.5 -203.5q-2 -6 -2 -8q74 171 173 437q-7 0 -19 -2q-37 -3 -71 1zM-21 148q-1 21 -6 28t-24 -2v-1
q-8 -8 2 -13q12 -9 28 -12zM699 724l3 1q57 97 73 134q-25 -34 -76 -135zM682 691l12 20h-2z" />
    <glyph glyph-name="t_h" unicode="th" horiz-adv-x="681" 
d="M281 845q19 23 27 9q12 -25 -152 -315l-1 -3q78 -1 165 -1q7 0 99 2q46 88 85 134.5t69 39.5q67 -16 -22 -169q187 8 236 18h-6h-6h-4q-6 0 -8 7q0 8 7 8h6t10.5 -0.5t11.5 -2l9.5 -3.5t5.5 -5.5t-2 -8.5q-12 -18 -269 -28q-73 -122 -230 -309q-67 -159 -89 -218
q153 225 213 186q30 -21 8 -98q-17 -56 -14 -65t16 -7l18 4q33 11 76.5 48t103 101t64.5 69t10 0.5t1 -10.5q-9 -9 -41 -43.5l-59 -61.5t-61 -57.5t-65 -47.5t-53 -16q-26 1 -30 26.5t6.5 57t15 58.5t-5.5 31q-21 7 -52.5 -16.5t-66 -68l-54 -71.5t-39.5 -59l-2.5 -2.5
t-5.5 -6t-8.5 -7.5t-8.5 -6t-7.5 -2t-5.5 5q-2 5 48 133l34 89q-162 -192 -228 -219q-17 -7 -31 -7q-34 1 -41 50t10 107q14 53 35 113t37.5 102l44.5 110.5l41 102.5q-373 11 -402 69l-2 6q-2 8 6 8q6 2 8 -5q20 -54 398 -63q95 241 147 308zM412 523q-99 -2 -206 -2
q-32 0 -56 1l-62 -158.5t-51 -148.5t-46 -168q-18 -92 13 -95h1q51 2 204 177l65 75q74 194 138 319zM524 526l-86 -2q-27 -57 -110 -265q118 143 196 267zM445 538l88 3q85 142 38 158q-22 8 -55 -37t-71 -124zM206 661q64 119 83 169q-32 -49 -83 -169z" />
    <glyph glyph-name="t_h_e" unicode="the" horiz-adv-x="1061" 
d="M760 575q6 0 11.5 -0.5t15.5 -2t14 -6t0 -11.5q-11 -16 -207 -25q-79 -132 -232 -312q-67 -159 -89 -218q153 225 213 186q31 -21 8 -98q-16 -55 -14 -64q2 -11 16 -8q70 12 212 102q2 6 2 10q11 52 36.5 91t67.5 35q27 -3 34 -19t-9 -38v-1l-3 -4l-3 -2
q-39 -35 -100 -75q-6 -37 2 -63t35.5 -34.5t78.5 18.5q94 48 240 203q4 4 9 0t2 -9q-153 -160 -244 -207q-68 -34 -110 -12t-39 87q-155 -99 -217 -96q-26 1 -30 26.5t6.5 57t15 58.5t-5.5 31q-21 7 -53 -17t-65.5 -67t-54 -73l-38.5 -58l-2.5 -2.5t-5.5 -6t-8.5 -7.5l-9 -6
t-8 -2t-5.5 5q-2 5 48 133q126 326 189 451q-124 -4 -268 -4h-31q-90 -204 -161.5 -389t-113 -345.5t-12.5 -193.5q6 19 22 15q15 -4 11 -18q-1 -7 -9 -13q-18 -14 -37 0q-25 18 -27 71t18.5 132t46.5 159.5t67 180l69.5 166.5l63.5 145t40 91q-397 6 -428 69l-2 6q-2 8 5 8
q7 2 9 -5q20 -54 423 -64q112 244 166 309q21 25 27 9q10 -23 -170 -315l-2 -3q66 -1 139 -1q15 0 161 4q45 86 84 132.5t69 39.5q67 -16 -20 -166q134 7 174 15h-16q-6 0 -8 7q0 8 7 8zM575 529q-42 -3 -86 -3q-26 -53 -111 -267q122 147 197 270zM496 540q60 2 89 4
q83 139 36 155q-22 8 -54.5 -36.5t-70.5 -122.5zM738 137q56 36 90 68q10 13 7 24t-20 8q-29 -4 -51 -40q-16 -25 -26 -60zM229 661q72 121 93 169q-30 -40 -93 -169z" />
    <glyph glyph-name="t_t" unicode="tt" horiz-adv-x="490" 
d="M309 843q21 23 28 8q10 -23 -171 -315l-1 -2q38 -1 164 -1q6 0 96 2q111 242 166 308q20 25 27 8q10 -23 -171 -315v-1q290 9 351 23h-16q-9 0 -7 7q0 7 7 7q6 0 11 -0.5t16 -2t12.5 -5.5t-0.5 -11q-16 -23 -381 -32q-139 -308 -235 -595t-53 -336q6 20 22 15
q15 -3 11 -17q-1 -7 -9 -13q-17 -14 -36 0q-20 14 -22.5 58t11.5 109.5t37.5 144.5t57.5 170l70 179l76 178q-3 -4 -21.5 -33.5l-34.5 -54.5l-42.5 -66t-51 -75l-53.5 -73t-55 -69.5t-51 -56t-47.5 -39.5t-38.5 -14h-3q-25 0 -28 36t12 90t28 92t25 67q66 167 128 302
q-338 8 -365 68l-2 6q-2 7 6 9t8 -6q17 -53 359 -63q112 244 166 309zM411 504l8 17q-148 -3 -205 -3q-12 1 -56 1l-124 -303q-30 -75 -57 -168.5t-5 -99.5q96 5 428 538zM505 658q75 128 93 169q-30 -40 -93 -169zM223 658q79 135 93 169q-33 -47 -93 -169z" />
    <glyph glyph-name="a_l" unicode="al" horiz-adv-x="668" 
d="M430 227l-2 -2q-51 -141 -75 -246t-17 -128q19 8 154 156l202 227q4 6 10 2t2 -9q-21 -33 -187.5 -218.5t-185.5 -181.5q-17 3 -19.5 40t15 118t57.5 190q-213 -242 -287 -241q-16 0 -25 8t-9.5 22.5t2 29.5t11 36l14 34t15 32t10.5 22q-119 -151 -170 -107
q-21 17 -16 56.5t22 80t51 72t69 31.5q71 0 58 -89q16 20 18 22q5 8 19 4.5t7 -21.5l-13 -25q-101 -194 -60 -193q72 5 299 263q79 202 166 386.5t123 231.5q38 51 68 62q35 12 44 -19.5t-1 -58.5q-25 -117 -137 -284t-232 -303zM444 264q116 137 217 290.5t124 261.5
q9 43 -0.5 56.5t-30.5 1.5t-46 -41q-34 -42 -111 -207.5t-153 -361.5zM110 139q2 16 3.5 39.5t-10 40t-35.5 9.5q-30 -9 -63 -51t-48 -88t0 -64q31 -39 153 114z" />
    <glyph glyph-name="a_l_l" unicode="all" horiz-adv-x="945" 
d="M704 224q-3 -8 -11 -27.5t-19 -51t-20 -63.5t-14.5 -61.5t-2 -49.5t16.5 -23q21 -4 51.5 14t69.5 56.5t68 70.5l71 81.5l54 63.5q4 4 8.5 3t5 -5t-2.5 -8l-49.5 -59.5l-71 -82.5t-72 -75t-76.5 -60.5t-60 -13.5q-33 8 -38 54.5t14 104.5l-57.5 -102l-63.5 -110
t-72.5 -121l-62.5 -95t-58 -75t-35 -20q-32 7 -36.5 60t15 140t52 188t78.5 219q-215 -241 -287 -240q-73 1 11 169q7 12 8 15q-117 -154 -171 -108q-21 17 -15 56.5t23.5 80.5t50.5 72.5t67 31.5q41 -1 52.5 -28t5.5 -62l18 22q6 8 19.5 5t6.5 -21l-13 -25
q-100 -193 -60 -193q72 5 299 263q80 202 167 386.5t123 231.5q40 51 69 61q24 9 36 -4t10.5 -34t-3.5 -39q-25 -117 -138 -284t-232 -303l-2 -2q-98 -255 -144.5 -436.5t-4.5 -205.5q7 -4 27.5 18.5t51 69l61 95.5l69.5 116l64 111.5l57.5 102l38.5 67.5q20 54 48 121
t72 163.5t89.5 165.5t79.5 82q50 7 -32 -141q-34 -63 -170 -274q-34 -52 -34 -58zM446 266q116 136 217.5 290t125.5 262q15 66 -15 63q-25 -2 -62 -47q-34 -41 -111.5 -206.5t-154.5 -361.5zM113 140q2 17 3.5 40t-10 40t-35.5 10q-30 -9 -63 -51t-48.5 -88t-0.5 -64
q30 -37 154 113zM740 307q1 2 28 43l58 91l62.5 103.5t48 92.5t7.5 46q-12 -4 -27 -21.5t-30 -41t-32 -56t-31 -62l-29.5 -64.5t-24.5 -57l-19 -47t-11 -27z" />
    <glyph glyph-name="e_l" unicode="el" horiz-adv-x="590" 
d="M250 -108q41 -49 363 342q1 3 5 3.5t6 -1.5q7 -5 1 -11q-9 -9 -48.5 -57.5l-85 -101t-96 -104.5t-95 -79t-68.5 -14q-11 6 -13.5 25.5t3 46t14.5 56.5t21.5 61.5l23 56l20 45.5t10.5 24q-178 -182 -283 -183q-46 -1 -63.5 34.5t-7.5 86.5q21 92 71 120q22 10 40.5 10
t30 -9t7.5 -20q-14 -43 -114 -73q-13 -34 -15.5 -64t11 -51t45.5 -19q56 3 140 64t151 135q81 203 169.5 387t125.5 231q37 50 69 62q35 12 43.5 -19.5t-1.5 -58.5q-26 -117 -140 -283.5t-235 -303.5l-1 -1v-1l-37 -98q-56 -149 -67 -186.5t0 -51.5zM716 819q10 45 0.5 57.5
t-30.5 0.5t-46 -41q-35 -41 -113.5 -206.5t-157.5 -361.5q118 137 220.5 290t126.5 261zM0 167q75 24 92 57q5 11 -12 12q-24 2 -45 -18q-19 -19 -35 -51z" />
    <glyph glyph-name="e_l_l" unicode="ell" horiz-adv-x="867" 
d="M561 93l-39 -68q-133 -242 -228 -377q-60 -85 -95 -78q-31 7 -35.5 60.5t16 141.5t53.5 189.5t79 221.5q-178 -182 -282 -183q-51 -1 -68 44t2 98q22 76 63 99q22 11 41 10.5t30.5 -9.5t8.5 -20q-14 -43 -114 -73q-22 -48 -13.5 -92.5t55.5 -41.5q56 3 139.5 64
t149.5 135q81 203 168 387t123 231q37 50 69 62q24 8 36 -5t10.5 -34t-3.5 -39q-18 -81 -87.5 -199.5t-141 -212t-143.5 -175.5q0 -1 -1 -1q-98 -255 -144.5 -436.5t-4.5 -205.5q18 -10 78 71q77 108 300 502q2 4 2 6l49 122l71 161.5t90.5 167.5t79.5 81q51 7 -32 -143
q-36 -64 -171 -274q-33 -50 -33 -55q-5 -10 -11.5 -26.5l-19 -48t-21.5 -61.5t-16 -60t-5 -51.5t14 -27.5q54 -29 311 285q1 2 5 2.5t5 -1.5q6 -6 1 -11q-1 -1 -48 -57.5t-74 -85.5l-71.5 -73.5t-77.5 -62t-55 -10.5q-56 19 -15 157zM369 266q116 136 218 290t126 262
q13 64 -12 64t-65 -47q-34 -41 -111 -205.5t-156 -363.5zM675 308q1 2 28 43l58 91l62.5 103t48 92.5t7.5 46.5q-12 -5 -27 -22t-30 -40.5t-32 -56.5l-31 -62t-29.5 -64.5l-24.5 -57l-19 -46.5t-11 -27zM1 166q75 24 91 57q5 12 -12 12q-24 1 -44 -18q-22 -22 -35 -51z" />
    <glyph glyph-name="e_t" unicode="et" horiz-adv-x="558" 
d="M632 843q20 24 27 9q10 -24 -169 -315l-2 -4h54q378 6 469 25h-16q-8 0 -8 7q0 6 8 8q6 0 11 -0.5t16 -2t12.5 -6t-0.5 -11.5q-21 -30 -552 -34q-138 -308 -232 -594t-51 -335q6 20 22 15q15 -3 11 -17q-1 -7 -9 -13q-18 -13 -36 0q-20 14 -22.5 58t11 109.5t36.5 144.5
t56.5 170.5l69 179.5t75.5 178q-5 -7 -29 -46.5t-36.5 -58.5l-39 -60t-45 -64l-46 -57t-50.5 -54t-49 -39.5t-51 -28t-49 -6.5q-40 2 -56.5 35.5t-2.5 89.5q35 133 111 125q20 -1 28.5 -10t5.5 -23q-5 -22 -52.5 -68.5t-73.5 -55.5q-9 -79 45 -80q114 -5 320 314l41 66
l16 25q7 10 54 85l6 15h-33q-449 6 -477 69l-2 7q-2 6 6 8q6 2 8 -5q19 -62 505 -65q108 242 165 310zM90 222q1 7 -4 10.5t-16 2.5q-29 -4 -53 -40q-27 -39 -36 -87q26 15 66.5 57t42.5 57zM547 658q74 130 92 169q-34 -45 -92 -169z" />
    <glyph glyph-name="e_e" unicode="ee" horiz-adv-x="626" 
d="M295 99q-3 -34 6.5 -55.5t36.5 -28t75 19.5q95 48 241 204q6 6 10 0q5 -5 0 -10q-153 -160 -244 -207q-65 -32 -106 -14t-43 75q-129 -77 -214 -84q-60 -5 -83 32t-14 92q16 91 64 118q21 10 40 9.5t31 -9.5t9 -20q-7 -24 -41.5 -43t-68.5 -29q-13 -37 -14 -67t17.5 -51
t59.5 -17q83 7 214 87q0 13 3 26q6 31 17.5 58t34.5 48.5t52 18.5q48 -5 33 -42q0 -3 -1 -5l-10 -14l-1 -1q-35 -44 -104 -91zM398 215q3 11 -1.5 17t-17.5 4q-28 -4 -51 -41q-20 -30 -30 -76q79 53 100 96zM0 166q74 21 89 57q5 11 -12 12q-24 2 -44 -19q-19 -19 -33 -50z
" />
    <glyph glyph-name="o_f" unicode="of" horiz-adv-x="480" 
d="M111 -400q4 -17 12.5 -23t18.5 -1t20 14t17 20q37 58 62 190t7 192l-3 9q-11 5 -6 16q2 3 5 3q8 -1 24.5 8t38.5 26t43.5 35.5l47.5 43l43.5 40.5l38.5 36.5l25 24.5q3 3 7 1t5 -5.5t-2 -6.5q-5 -4 -27.5 -26l-36.5 -35.5l-38.5 -36.5l-43 -39l-40 -33.5t-39.5 -29
t-31 -16.5q10 -23 10 -78q0 -48 -12.5 -127.5t-45 -159.5t-76.5 -82q-154 -5 231 858l-24.5 -40l-33.5 -54t-37.5 -53t-43.5 -49t-44 -29t-46 -6q1 -30 -19 -75.5t-55 -80t-69 -25.5q-48 12 -38 91q8 72 48 121q32 39 58 24q8 -3 6 -12q-1 -6 -6 -5q-23 5 -55 -53
q-38 -70 -33 -120q4 -30 27 -34q28 -5 58 28.5t48 76.5t16 68q-37 14 -47 38q-7 18 14 18h2q37 -1 44 -45q17 -8 39.5 2t46 35t46 54t47 68l42.5 69l37 64t27 46l21.5 47l26 56.5t26.5 54t30.5 57.5t29 48t31.5 44q21 23 27 8q11 -22 -170 -314l-134 -303.5t-139 -368
t-59 -269.5zM500 662q75 128 93 169q-30 -40 -93 -169zM122 206q-6 26 -28 27q-4 0 -4 -2q0 -9 25 -22q3 -1 7 -3z" />
    <glyph glyph-name="o_l" unicode="ol" horiz-adv-x="526" 
d="M67 225q-23 5 -58 -54q-41 -70 -36 -118q3 -28 25 -32q41 -8 84.5 52.5t43.5 102.5q-34 13 -44 43q-3 25 17 29q35 -1 40 -61q35 -16 81 -3.5t85 45.5q79 201 163 381t119 226q40 51 69 61q35 13 44 -18.5t-1 -58.5q-24 -115 -141.5 -293t-217.5 -283l-35.5 -86.5
l-26 -67l-22 -62t-16 -48.5l-14.5 -49.5t-13 -42.5q-17 -54 -1 -75q14 -20 49 19q43 47 108.5 138.5l121.5 175t60 88.5q5 5 10 2q6 -3 2 -10l-37.5 -57l-58.5 -87.5l-63.5 -92t-72 -98t-64.5 -77.5q-17 -17 -36 -23t-30 0q-15 7 -19 29t-1.5 37.5t9.5 45.5q22 97 105 300
q-89 -59 -155 -31q-5 -55 -52 -115.5t-97 -47.5q-48 12 -36 91q11 71 53 119q33 39 61 24q3 -2 4.5 -7t0 -8.5t-6.5 -2.5zM346 270q115 136 215.5 290t123.5 262q9 43 -1 56.5t-30.5 1.5t-45.5 -42q-34 -41 -110 -206t-152 -362zM125 192q-7 38 -25 41q-4 1 -5 -4
q-1 -15 17 -30q6 -4 13 -7z" />
    <glyph glyph-name="o_l_l" unicode="oll" horiz-adv-x="803" 
d="M537 96q3 11 7 20l-51 -88q-130 -236 -229 -376q-60 -86 -95 -79q-32 7 -36 62t18 146t56.5 195.5t82.5 225.5q-88 -58 -156 -30q-5 -56 -50 -117.5t-94 -49.5q-48 13 -38 93q10 71 50 121q34 40 62 23q9 -4 5 -14q-2 -4 -6 -3q-24 4 -57 -55q-40 -71 -35 -120
q3 -28 25 -32q28 -5 58.5 24.5t48 68.5t17.5 65q-34 13 -43 43q-7 25 12 28h5q35 -1 40 -60q35 -16 81 -3.5t85 45.5q81 200 167 380t122 227q38 51 69 61q35 12 43.5 -19t-1.5 -59q-25 -113 -132.5 -273.5t-226.5 -298.5q-1 0 -1 -1l-3 -3l-10 -11l-1 -1
q-99 -255 -146 -436.5t-6 -205.5q20 -11 79 72q45 64 113.5 177.5l134.5 229.5l66 116q24 63 52 128t71.5 157.5t87 156t75.5 75.5q45 6 -18 -115q-39 -75 -182 -295q-38 -58 -38 -63q-6 -12 -12 -26l-19 -46t-21 -59t-14.5 -54.5t-3 -44.5t16.5 -18q17 -1 43.5 17t61 54
l59 63.5l60.5 71l41 49.5q3 3 7 1.5t5 -5t-2 -7.5t-34.5 -42l-53 -63t-54 -59.5t-59.5 -57t-46 -30.5q-18 -7 -32 -7q-34 1 -37.5 37t16.5 94zM341 270q117 136 219 290t126 262q15 66 -14 63q-25 -2 -63 -47q-34 -41 -111.5 -206t-156.5 -362zM651 311q1 2 28 43l58.5 91
l63 103.5t48.5 92.5t8 46q-16 -6 -37.5 -34t-41 -64t-42.5 -83.5t-38 -82.5l-30 -71.5t-17 -40.5zM120 191q-6 39 -24 42q-5 1 -5 -5q-2 -15 18 -30q5 -5 11 -7z" />
    <glyph glyph-name="o_t" unicode="ot" horiz-adv-x="494" 
d="M61 225q-22 4 -53 -53q-39 -71 -33 -122q3 -31 26 -35q28 -5 58 29t47.5 77.5t16.5 69.5q-37 14 -47 38q-7 18 14 18h2q37 -1 44 -45q14 -4 29.5 2.5t34 26l32.5 35.5t35 48.5l29.5 46.5l28.5 47l9 15q3 6 21.5 34.5t31.5 50.5q6 12 7 15q-57 1 -114.5 3t-140.5 8.5
t-139.5 21.5t-67.5 36l-2 6q-2 7 6 9q6 2 8 -6q21 -56 457 -64q106 237 166 310q21 23 27 8q12 -24 -170 -314l-2 -4h106q79 0 248 7t219 18h-16q-7 0 -7 7q-2 7 6 7h6t10.5 -0.5t11.5 -2l9.5 -3.5t5.5 -5t-2 -8q-7 -11 -89.5 -18.5t-197 -10.5t-193 -4.5t-123.5 -1.5
q-139 -308 -234.5 -593.5t-52.5 -334.5q6 20 22 15q15 -3 11 -17q-1 -7 -9 -13q-17 -14 -36 0q-20 14 -22.5 58t11.5 109.5t37.5 144.5t57.5 170l70 179l76 178l-33 -53.5t-42 -66t-41 -55t-48 -45.5t-45 -11h-1q1 -30 -19 -76.5t-54.5 -81.5t-68.5 -27q-49 13 -39 94
q9 72 48 122q32 39 58 24q7 -3 6 -12q-1 -6 -7 -5zM481 662q75 128 93 169q-30 -40 -93 -169zM121 206q-5 26 -27 27q-9 1 -2 -8q9 -11 29 -19z" />
    <glyph glyph-name="o_x" unicode="ox" horiz-adv-x="569" 
d="M459 229q-15 4 -126 -101l-3 -6q-17 -38 -24 -55t-19.5 -52t-11 -51t15.5 -15q13 1 29.5 9.5t36 24l38.5 32t42 41l40 42.5l39.5 44l33 38.5l28 33.5t18.5 22q4 7 10 1q5 -4 1 -10q-3 -4 -22 -26.5l-31 -37l-35 -41t-41 -45l-41 -42.5t-42.5 -40l-39.5 -31t-37 -22.5
t-30 -7.5q-67 1 -9 144q-6 -6 -27.5 -21.5t-62 -35t-72.5 -21.5q-3 0 -5 3t-1 5q0 7 8 7q22 -1 83.5 33t90.5 62q43 102 17 118q-13 8 -76.5 -19t-97.5 -19q1 -30 -19.5 -77t-55.5 -82.5t-69 -27.5q-49 12 -38 94q10 73 50 123q31 39 57 25q9 -5 6 -14q-1 -4 -6 -3
q-23 4 -55 -54q-38 -72 -34 -123q3 -31 27 -35q28 -5 58.5 29.5t48.5 78.5t16 70q-38 14 -47 37q-7 18 14 19h2q37 -1 44 -45q18 -11 53 1t73 27.5t57 12.5q40 -8 23 -89q96 92 123 86q7 -4 4 -10q-2 -6 -9 -4zM121 209q-6 26 -28 27q-10 0 1 -11q9 -10 27 -16z" />
    <glyph glyph-name="a_x" unicode="ax" horiz-adv-x="711" 
d="M601 222q-16 2 -127 -101l-2 -6q-53 -119 -52 -148q1 -18 15 -17t34 12t40 27t45.5 41l45 45.5l45 49.5t38.5 45l32.5 39.5t21.5 25.5q4 5 8 4t5 -5t-2 -8t-29.5 -35.5l-43.5 -51.5l-47.5 -54.5t-54.5 -57l-51 -46.5t-50 -35.5t-40 -11.5q-65 1 -11 136q-1 -1 -24.5 -17
t-38 -25t-37.5 -18.5t-41 -9.5q-6 0 -6 8q2 6 8 6q21 -1 72 29t81 59q43 108 22 118q-16 7 -63.5 -36t-98.5 -99t-106 -103t-83 -47q-13 0 -21 5t-11.5 14t-4 19.5t2.5 25.5t6.5 27t10 28l10.5 25.5l10 23t7 16.5q-109 -155 -165 -108q-22 17 -17.5 56.5t20.5 80t47.5 72
t63.5 31.5q22 0 36.5 -8.5t19.5 -22.5t7 -29.5t-1 -28.5q13 18 17 22q5 8 19.5 5t7.5 -21q-1 -4 -11 -24q-91 -194 -51 -194q26 2 77 48t99.5 100.5t100.5 98.5t80 43q21 -1 26 -24t-9 -67q95 93 123 86q6 -2 4 -9q-2 -9 -9 -4zM110 139q1 17 1.5 40t-12 40t-36.5 10
q-46 -14 -86 -94.5t-15 -109.5q31 -37 148 114z" />
    <glyph glyph-name="o_z" unicode="o&#x7a;" horiz-adv-x="612" 
d="M414 42l3 2l79 59.5t67.5 57.5t76.5 78q3 4 7 3t5.5 -4.5t-0.5 -7.5l-16 -18q-18 -20 -38.5 -40l-35.5 -34t-40.5 -33.5l-37 -28.5t-41 -30.5l-37.5 -27.5l-47 -114q-59 -148 -105 -226q-63 -106 -120 -110q-38 -2 -50 44q-16 59 26 137q12 22 24.5 41.5t28 38.5l27 33.5
t31 32.5l30 27.5t33.5 27.5l31 24.5t33.5 25t31.5 23.5q13 34 13 56.5t-10 31t-25.5 7.5t-33.5 -11l-16 -23q-19 -26 -45 -56t-64.5 -61.5t-59.5 -28.5q-9 0 -11 7q-4 21 58.5 77.5t100.5 77.5q79 115 96 157q12 31 7 45q-10 12 -22.5 2l-39 -32l-53 -44.5t-64.5 -35.5
t-74 -6q0 -30 -20 -76t-55 -81t-69 -26q-49 12 -39 92q9 71 49 121q32 41 59 26q8 -4 6 -14q-2 -5 -7 -4q-23 5 -56 -54q-38 -71 -32 -121q3 -30 26 -34q28 -5 58.5 29t48.5 77.5t17 69.5q-38 14 -47 37q-7 18 14 19h2q37 -1 44 -46q27 -6 54.5 0t49 20t43.5 32t38 34.5
t32.5 27t27 11t20.5 -13.5q28 -44 -63 -183q41 16 67 -6.5t9 -80.5zM332 -95l37 92q-5 -4 -32 -24t-35 -26.5l-31.5 -25.5t-34 -29.5l-30 -30.5t-31.5 -36t-26.5 -38t-26.5 -45q-41 -80 -23 -131q14 -37 50 -23q43 16 87 99q16 29 33 67l28 64l22.5 55.5t12.5 31.5zM267 71
q-34 -23 -74 -59t-48 -60q12 1 25.5 10t28 24.5t25 28t25 32t18.5 24.5zM121 206q-7 26 -27 26q-5 0 -5 -2q0 -10 25 -21q3 -2 7 -3z" />
    <glyph glyph-name="g_l" unicode="gl" horiz-adv-x="587" 
d="M352 226l-1 -1q-35 -103 -56.5 -191.5t-28 -145t-4.5 -91.5t11 -47q5 20 23 14q16 -5 10 -20q-2 -5 -8 -10q-18 -13 -36 0q-20 15 -24 66t15 151.5t62 238.5q-12 -13 -26 -26l-25 -23t-27.5 -23.5l-25 -20.5t-27.5 -21.5t-25.5 -19l-28 -20l-25.5 -18.5l-47 -114
q-60 -150 -105 -226q-62 -106 -119 -110q-39 -3 -52 43q-16 59 26 138q12 22 24.5 41.5t28 38.5l27.5 33.5t31.5 32.5l30 27.5t33 27.5l31 24.5l34 25t31.5 23.5q37 94 41 105l-7 -9q-109 -154 -165 -107q-22 16 -18 56t20.5 81t47.5 72.5t63 31.5q22 0 37 -9t20 -23t7 -30
t-1 -29l16 21l2 5q10 28 15 45q1 4 9 6t14.5 0t5.5 -6q-29 -86 -71 -189q142 104 210 180q61 192 140 373t115 232t66 62q23 8 36 -5t13 -34t-2 -39q-13 -81 -76.5 -199.5t-130 -212t-134.5 -175.5zM364 263q109 135 203 289.5t112 262.5q7 43 -3.5 56.5t-31 1.5t-43.5 -41
q-32 -41 -100.5 -205.5t-136.5 -363.5zM30 -96l38 93q-5 -4 -32 -24t-35 -26.5l-31.5 -25.5t-34 -29.5l-30 -30.5t-31.5 -36t-26.5 -38t-26.5 -45q-41 -81 -23 -131q14 -38 51 -23q42 18 86 99q44 82 95 217zM107 139q7 35 -3.5 68.5t-43.5 23.5q-22 -6 -46.5 -34t-39.5 -61
t-21.5 -64.5t6.5 -45.5q31 -38 148 113z" />
    <glyph glyph-name="g_h" unicode="gh" horiz-adv-x="722" 
d="M637 842q19 26 27 9q10 -24 -171 -315q-124 -274 -214 -529q146 215 206 177q31 -22 8 -101q-16 -55 -14 -64t16 -6q25 6 63 36t63.5 55t73 75.5t54.5 58.5q4 6 10 0q5 -4 1 -10q-9 -9 -53.5 -57l-77 -80.5t-74 -62.5t-66.5 -29q-26 1 -29.5 27t7 57t14.5 58.5t-6 31.5
q-21 6 -52.5 -18t-65.5 -67t-54.5 -72t-38.5 -58q-1 -2 -3 -4l-3 -8q-3 -10 -22 -16q-8 -1 -8 3q70 214 188 481l-94 -145t-93.5 -122.5t-115.5 -119.5q-2 -4 -7 -9l-47 -114q-59 -148 -105 -226q-63 -106 -120 -109q-38 -2 -50 44q-16 59 26 136q12 22 24.5 41.5t28 38.5
l27 33.5t31 32.5l30 27.5t33.5 27.5l31 24.5t33.5 25t31.5 23.5l42 106l-8 -10q-111 -152 -165 -107q-22 16 -17.5 56t20.5 81t47.5 72.5t63.5 32.5q29 0 44.5 -16.5t18 -34.5t0.5 -40l15 21q2 5 3 5l15 44q2 9 20 7q8 -2 8 -6q-23 -72 -68 -185q52 47 107 115.5t89 118.5
l89 135l53 85q3 6 22.5 49.5t29 63l29.5 61t34 66t32 53t33 46.5zM32 -95l37 92l-25.5 -19l-27.5 -20.5l-26 -20t-27.5 -22.5l-25 -22.5t-26.5 -25.5l-23.5 -26.5t-24 -30.5l-21 -31.5t-20.5 -35.5q-22 -42 -27 -80t6 -56.5t30 -22t48 23.5t57 79q16 29 33 67l28 64
l22.5 55.5t12.5 31.5zM108 140q2 19 2 42.5t-13 39.5t-36 9q-22 -6 -46.5 -34t-39.5 -61t-21.5 -64.5t6.5 -45.5q32 -38 148 114zM551 658q72 121 93 169q-30 -40 -93 -169z" />
    <glyph glyph-name="g_t" unicode="gt" horiz-adv-x="555" 
d="M992 570q6 0 11.5 -0.5t15.5 -2t14 -5.5t0 -11q-20 -30 -551 -34q-132 -291 -199 -503.5t-23 -261.5q6 21 23 15q14 -5 9 -18q-2 -7 -9 -12q-17 -14 -36 0q-30 21 -31 80t26 152t68.5 199t102.5 244q-60 -94 -65 -101l-32 -47q-36 -53 -94 -121t-111 -118q-3 -7 -6 -8
l-47 -115q-59 -147 -105 -225q-63 -107 -120 -110q-38 -2 -50 43q-16 59 26 138q12 22 24 41.5t28.5 39l27 32.5t31.5 32.5l29.5 27.5t33.5 28t30.5 24l34 25.5t31.5 23.5q14 33 42 105l-8 -9q-109 -155 -165 -108q-22 17 -17.5 56.5t20.5 81t47.5 73t63.5 31.5
q41 1 53.5 -27t9.5 -64l15 21q1 1 2 3q0 2 1 2l15 44q2 10 20 7q8 -2 8 -6q-24 -72 -68 -184q97 95 182 218q67 98 100 151q7 10 54 85l7 15h-34q-48 0 -104.5 2t-147 7.5t-154.5 21t-75 38.5l-2 6q-2 7 5 9t9 -5q22 -62 509 -65q114 247 167 310q20 24 27 8
q10 -23 -171 -314l-1 -4h52q80 0 249 7t219 18h-16q-8 0 -8 7t7 7zM31 -97l37 92l-25.5 -19l-27.5 -20.5l-26 -20t-27.5 -22.5l-25 -22.5t-26.5 -25.5l-23.5 -26.5t-24 -30.5l-21 -31.5t-20.5 -35.5q-22 -42 -27 -80t6 -56.5t30 -22t48 23.5t57 79q16 29 33 67l28 64
l22.5 55.5t12.5 31.5zM107 138q7 36 -3 68.5t-44 23.5q-46 -14 -86 -95.5t-15 -110.5q32 -36 148 114zM548 656q75 128 93 169q-30 -40 -93 -169z" />
    <glyph glyph-name="i_l" unicode="il" horiz-adv-x="525" 
d="M288 226q-6 -17 -19 -58.5l-20.5 -64.5t-18 -59.5t-15.5 -59t-9.5 -47t-3 -38.5t7.5 -20q14 -13 161 150.5t176 203.5q6 7 12 3q7 -5 1 -11q-216 -262 -300 -337q-45 -40 -60 -37q-21 4 -24 39t8.5 88t28 106.5t36.5 104.5q-183 -193 -258 -191q-19 1 -24 21.5t2 52
t17 62t21.5 61.5t13.5 39q1 6 14.5 3.5t12.5 -8.5q-1 -8 -19 -56q-55 -147 -38 -160q2 -2 7 -1q12 2 19 5q77 24 246 208q78 197 164 377.5t122 228.5q40 51 69 61q24 8 36 -5t10.5 -34t-3.5 -39q-13 -62 -55.5 -144.5t-100 -164.5t-111 -150.5t-105.5 -127.5q0 -1 -1 -1z
M303 265q116 135 218 289t126 263q15 66 -15 63q-25 -2 -62 -47q-34 -41 -111.5 -205.5t-155.5 -362.5zM68 288q-1 -4 -8 -22q-26 0 -18 23q2 4 5 14q2 7 13 0q10 -6 8 -15z" />
    <glyph glyph-name="i_l_l" unicode="ill" horiz-adv-x="802" 
d="M500 92l6 18l-48 -85q-137 -248 -226 -377q-61 -86 -94 -78q-32 7 -36.5 61t16 144t53.5 192.5t79 223.5q-184 -194 -257 -191q-19 1 -24.5 21.5t1.5 52.5t16.5 62t21 61t13.5 39q1 4 8 4t13.5 -3t5.5 -7q0 -3 -35 -102q-39 -114 -15 -114h2l19 4q76 25 244 208
q78 201 162.5 380.5t119.5 225.5q40 51 69 62q35 12 44 -19.5t-1 -58.5q-25 -117 -136.5 -283.5t-230.5 -303.5l-1 -1q-97 -254 -142.5 -436t-3.5 -206q20 -12 78 71q44 63 110 174.5l130 225.5t68 120q23 61 50.5 127.5t69.5 159t85.5 157t75.5 76.5q51 7 -31 -143
q-36 -64 -169 -274q-33 -50 -33 -55q-4 -9 -11.5 -27.5l-19.5 -50t-21.5 -63t-16 -61.5t-4 -50t15.5 -23q19 -5 54 19.5t75.5 66.5l80.5 87.5l77 88.5l19 23q7 6 12 -1q3 -5 -2 -10l-48.5 -58t-71 -82l-70.5 -73t-74 -60.5t-55 -15.5q-59 11 -17 157zM304 266
q115 136 215.5 290t123.5 262q13 64 -12 64t-65 -47q-34 -41 -110.5 -207t-151.5 -362zM612 308q1 2 28 43l57.5 91l62 103t47.5 92.5t7 46.5q-18 -7 -43.5 -43.5t-51 -89t-46 -99l-40 -93zM68 290q-1 -4 -7 -23q-12 0 -17.5 6.5t-1.5 16.5q3 7 5 15q2 7 13 0q10 -6 8 -15z
" />
    <glyph glyph-name="i_t" unicode="it" horiz-adv-x="493" 
d="M877 572q6 0 11 -0.5t16.5 -2t13 -5.5t-0.5 -12q-19 -26 -501 -34q-84 -190 -156 -380t-112.5 -352.5t-10.5 -195.5q6 20 23 14q14 -5 9 -19q-2 -6 -9 -11q-18 -13 -36 0q-20 14 -23 58t10.5 109.5t36.5 145t56.5 170l69 179l74.5 178.5l-69 -111.5t-86.5 -135
t-79.5 -100.5q-58 -66 -100 -70q-49 -5 -39 61q4 27 13.5 63.5t21 73t12.5 40.5t8 4t13 -3t6 -7q-2 -8 -22.5 -73.5t-28.5 -97.5q-6 -15 -2.5 -33.5t22.5 -15.5q31 6 87 69q42 49 80.5 105t83.5 129t67 106l52 85l7 15h-85q-449 6 -477 69l-2 7q-2 6 6 8t8 -5
q21 -65 556 -65q108 242 164 310q21 23 28 9q10 -23 -168 -315q-2 -2 -2 -4h2q377 6 469 25h-6h-6h-4q-7 0 -7 7q0 8 7 8zM64 290q-1 -5 -8 -23q-26 0 -18 23q3 7 5 15q2 7 13 0q10 -6 8 -15zM480 658q72 125 92 168q-33 -44 -92 -168z" />
    <glyph glyph-name="c_t" unicode="ct" horiz-adv-x="561" 
d="M631 842q20 27 27 9q11 -23 -169 -315l-2 -4q14 0 32.5 0.5t21.5 0.5q78 0 248 7t221 17q-6 1 -16 1q-9 0 -7 7q0 7 7 7q6 0 11 -0.5t16 -2t12.5 -5.5t-0.5 -11q-21 -31 -552 -35q-85 -190 -157.5 -380t-113.5 -352.5t-11 -195.5q6 21 23 15q14 -5 9 -18q-2 -7 -9 -12
q-17 -14 -36 0q-20 14 -22.5 58t11 109.5t37 144.5t57 170l69 179t75.5 178l-29 -47l-36.5 -58l-39.5 -60t-45.5 -63.5l-46 -57.5t-50 -53.5t-49.5 -40t-51 -27.5t-49 -7q-40 3 -56 36.5t-3 88.5q14 53 41 91.5t71 34.5q19 -2 27.5 -10.5t6 -22t-15.5 -28.5q-5 -5 -10 0
t0 10q13 13 11.5 25t-20.5 10q-29 -6 -53 -41q-16 -24 -27 -54t-13 -58t9.5 -47.5t36.5 -20.5q21 -1 44 7.5t47.5 28.5l46.5 39.5t48.5 53l45 56.5t44.5 62l38.5 58l35.5 55.5t28 43.5l53 85l6 15h-33q-449 6 -477 70l-2 6q-2 7 6 9q6 2 8 -6q19 -62 505 -65
q108 242 165 310zM546 658q73 123 92 169q-30 -42 -92 -169z" />
    <glyph glyph-name="n_t" unicode="nt" horiz-adv-x="659" 
d="M750 841q21 24 27 9q12 -24 -169 -315q0 -1 -0.5 -2t-0.5 -2h44q377 6 469 25h-16q-7 0 -7 7q0 6 7 8q6 0 11 -0.5t16.5 -2t13 -6t-0.5 -11.5q-12 -17 -188 -25t-356 -9q-137 -308 -230.5 -594t-50.5 -334q5 19 22 15q15 -4 11 -18q-1 -7 -9 -13q-18 -14 -37 0
q-20 14 -22.5 58t11 109.5t37 144.5t56.5 170t69 179.5l75 178.5q-60 -94 -65 -101q-1 -2 -10 -16l-1 -1v-1q-197 -300 -281 -296q-33 1 -31 44.5t15.5 82.5t-2.5 50q-9 3 -21 -0.5t-25.5 -14.5t-26 -22.5t-28 -30.5l-26.5 -33t-26.5 -36l-22.5 -32.5l-19.5 -29.5t-13.5 -20
l-10 -9q-9 -9 -17 -13t-13 3q-3 6 49 140t66 161q4 8 22 3q10 -3 8 -8q-20 -43 -50.5 -125t-43.5 -112q84 115 116 148q61 63 93 42q29 -21 9 -99q-15 -58 -12 -67q3 -10 17 -8q11 2 24.5 9t29.5 21.5l29.5 27.5t32 36l30 36.5t31.5 41l28 38t27 38t22 31.5q61 90 83 126
l53 85l7 15h-43q-448 6 -477 69l-2 7q0 7 6 8q8 2 8 -5q20 -62 514 -65q1 3 13 29l15.5 33.5l15.5 33l17 35.5l16.5 33.5t18 35.5l17 31t18.5 31l17 25t17 23zM665 656q74 126 92 169q-33 -46 -92 -169z" />
    <glyph glyph-name="l_k" unicode="lk" horiz-adv-x="661" 
d="M234 14q49 74 105 137t106 86q30 15 38 -1q9 -15 -25 -45q-28 -25 -68 -50l10 -5q16 -11 19 -28.5t-2 -34l-10 -31.5t-2.5 -22.5t17.5 -4.5q17 3 19 4q25 8 62.5 38t64.5 57l67.5 70.5t49.5 52.5q5 5 10 1q7 -4 1 -10q-5 -5 -53 -56t-79.5 -81.5t-75.5 -60.5t-72 -29
q-26 1 -31.5 19t2.5 40t10.5 41.5t-7.5 23.5q-19 7 -54 -18l9 23l11 6q116 76 115 92q-3 4 -20 -4q-54 -26 -115.5 -99t-110.5 -151q-2 -8 -5 -14q-1 -1 -2.5 -3t-5.5 -6.5t-8.5 -7.5t-9 -5.5t-8 -2t-5.5 4.5q-2 5 48 133l5 12l-34 -59q-130 -235 -229 -377q-61 -86 -94 -78
q-113 24 143 665q79 195 165.5 373t122.5 224q40 51 69 62q24 8 36 -5t10.5 -34t-3.5 -39q-13 -62 -55.5 -144.5t-100 -164.5t-111 -150.5t-105.5 -127.5l-1 -1l-57 -150.5l-50.5 -141.5t-41.5 -130t-25.5 -104.5t-7.5 -78t17 -37.5q20 -12 78 71q45 64 113 178l130 224.5
t67 118.5q32 84 75 183t107 210t106 126q50 7 -28 -135q-37 -68 -175 -280q-15 -25 -23 -37q-68 -154 -98 -232zM62 267q117 139 219 292t125 260q9 43 -0.5 57t-30.5 2t-46 -42q-34 -41 -111 -205.5t-156 -363.5zM357 309q1 2 28 43l58.5 91l62.5 103t48 92.5t8 46.5
q-19 -7 -44 -42.5t-52 -90t-46.5 -98l-41.5 -94.5z" />
    <glyph glyph-name="t_f" unicode="tf" horiz-adv-x="482" 
d="M299 848q19 23 27 9q11 -24 -151 -315l-2 -3q346 6 430 24h-16q-8 0 -8 7q0 6 7 8q6 0 11.5 -0.5t15.5 -2t14 -6t0 -11.5q-16 -25 -459 -33q-1 -4 -11 -26.5l-24.5 -55l-32.5 -75l-36.5 -87.5l-36 -91t-31 -87t-21.5 -73t-7.5 -52.5t10.5 -22.5h1q51 2 204 177l70 81
q10 23 32 69q47 100 88.5 163.5t66.5 70.5q11 4 17 -3t4 -17q-18 -66 -170 -262q-92 -196 -155.5 -379t-49.5 -254q4 -17 12.5 -23t18.5 -1t20 14.5t17 20.5q36 57 61 189t8 192q-2 6 -4 9q-5 3 -6 7.5t1 8t5 3.5q7 0 11 -7q6 -2 18.5 4t29.5 18.5l36.5 27.5t41 34.5l41 37
l40 37l34 32.5l26.5 25.5l14 13.5q6 7 11 -2q2 -5 -2 -8l-28.5 -28.5l-40 -39.5l-44 -42t-49 -44l-45.5 -37t-44 -29.5t-34 -12.5q8 -26 8 -71q0 -47 -12 -126.5t-44.5 -160t-76.5 -82.5q-26 -1 -36 27t-4.5 74t16.5 95.5t28 102l27 82.5t17 47q41 103 74 177
q-163 -193 -228 -219q-17 -7 -31 -7q-34 0 -39.5 38.5t15 103t47 131.5t62.5 140.5l55.5 111l32.5 60.5q-61 -1 -125 -1q-450 6 -481 69l-2 7q-2 6 5 8t9 -5q24 -65 583 -65h17q96 245 147 310zM312 281q32 41 88.5 127.5t45.5 93.5q-6 4 -21.5 -15.5t-34 -52.5l-34.5 -64
l-30 -59.5t-14 -29.5zM224 663q64 122 83 169q-27 -40 -83 -169z" />
    <glyph glyph-name="t_l" unicode="tl" horiz-adv-x="605" 
d="M207 627q19 23 27 9q12 -25 -152 -315l-1 -4h29q8 0 48 1t89.5 2.5t94.5 3.5q98 240 137 292q36 51 66 62q23 8 35.5 -5t12.5 -34t-1 -39q-17 -101 -115 -269q70 5 101 11h-6h-6h-4q-8 0 -8 7q0 8 7 8q6 0 11.5 -0.5t15.5 -2t14 -6t0 -11.5q-10 -13 -135 -21
q-95 -157 -217 -303q0 -1 -1 -1q-82 -245 -120 -423t-3 -214q4 19 21 15q14 -4 12 -18q-1 -7 -9 -13q-16 -13 -36 0q-24 17 -27 74t14 143t44 183.5t65 210.5q-205 -247 -280 -250q-35 0 -40 44q-7 55 17 153t55 181q31 84 80 205h-58q-437 6 -469 70l-2 6q-2 8 5 8
q7 2 9 -5q7 -21 66.5 -35t150 -20t161 -8t142.5 -2q31 80 77.5 171.5t82.5 138.5zM76 303h-6q-171 -411 -159 -543q2 -25 19 -25q72 5 293 273q47 136 113 301q-125 -4 -260 -6zM363 325q39 1 96 5q100 168 118 272q7 43 -3.5 56.5t-30.5 1.5t-43 -41q-40 -52 -137 -294z
M450 315q-56 -4 -93 -5q-53 -137 -95 -260q106 132 188 265zM132 443q64 119 83 169q-26 -38 -83 -169z" />
    <glyph glyph-name="l_l" unicode="ll" horiz-adv-x="554" 
d="M243 91l6 20l-49 -88q-4 -6 -26 -44.5l-43.5 -76l-50 -85l-57 -92.5t-51.5 -78q-61 -86 -95 -79q-33 8 -37 67t18.5 154t59 205.5t85.5 234.5q140 355 227 507q104 183 161 158q29 -13 14 -79q-25 -117 -139 -285t-233 -303h-1q-98 -253 -144.5 -436t-4.5 -206
q20 -11 78 71q45 64 113 178l131.5 225.5l67.5 118.5q29 76 77 183t111 217t97 118q51 7 -33 -143q-35 -63 -171 -274q-33 -50 -33 -55q-3 -7 -10.5 -27.5l-18.5 -52t-19.5 -64t-13.5 -62t-1 -48.5t17 -20q20 -2 56 24t80.5 72.5t78.5 85.5l73 85l15 18q5 5 10 1q5 -5 0 -10
q-211 -255 -285 -284q-18 -7 -32 -7q-34 1 -40.5 49.5t12.5 106.5zM47 265q116 135 218 289t126 263q11 52 -5 62q-79 44 -339 -614zM357 306l28.5 43.5l58 91l62.5 103.5t48 92.5t8 46.5q-39 -2 -205 -377z" />
    <glyph glyph-name="s_l" unicode="sl" horiz-adv-x="483" 
d="M56 141q1 31 -20 61.5t-21 53.5q0 21 16 39.5t35 6.5q13 -6 8 -22.5t-13.5 -29.5t-16.5 -21v-1q33 -30 36 -73l1 1q89 47 166 120q73 185 155 348t117 208q40 51 69 62q35 12 43.5 -19.5t-1.5 -58.5q-14 -62 -52 -134t-95.5 -148.5t-101 -129t-104.5 -119.5q0 -2 -33 -79
q-92 -236 -138 -408t-14 -207q6 20 23 14q14 -5 9 -19q-2 -6 -9 -11q-18 -13 -36 0q-46 33 -2.5 208t142.5 420l15 39q-63 -53 -153 -102q-6 -46 -46.5 -97t-83 -78t-55.5 -14q-27 26 12 72t148 118zM291 322l101 118.5t91.5 119t86.5 137t46 121.5q10 45 0.5 57t-30.5 0.5
t-46 -40.5q-36 -42 -104 -181.5t-145 -331.5zM54 122q-74 -51 -122 -96.5t-28 -61.5q18 -13 80 53.5t70 104.5zM42 248q23 30 17 42q-11 5 -15.5 -11t-1.5 -31z" />
    <glyph glyph-name="a_t" unicode="at" horiz-adv-x="636" 
d="M991 584q42 0 42 -11q0 -3 -2 -7q-17 -28 -480 -49q-83 -190 -153 -380.5t-109 -352.5t-9 -195q6 21 23 15q14 -5 9 -18q-2 -7 -9 -12q-15 -14 -36 0q-26 15 -24 77t21 144.5t55.5 190t77.5 213t88 214.5l-64 -101q-191 -286 -275 -354q-17 -14 -37 -21t-35.5 2t-13.5 39
q1 16 8 38.5t14.5 38.5l17.5 37.5t12 25.5q-116 -154 -170 -107q-21 17 -15.5 56.5t23 80t50.5 72t67 31.5q29 0 44.5 -15t15.5 -35t-1 -39l11 13.5t7 8.5q5 8 19 4.5t7 -20.5q-1 -3 -15.5 -31l-28.5 -55.5t-26.5 -60t-14.5 -50.5q-1 -13 4 -18.5t13.5 -3.5t16.5 6t15 10
q34 26 87 91.5t108.5 147l86.5 128l56 86.5l52 85q1 5 6 13q-104 -4 -105 -4q-450 -6 -481 54l-2 7q-2 6 6 8q6 2 8 -5q24 -66 580 -46q108 245 162 311q19 26 27 9q11 -22 -165 -315q-2 -2 -2 -4q357 16 449 39h-16q-7 -2 -7 6t7 8zM108 139q1 17 2.5 40t-10 40t-35.5 10
q-30 -9 -63 -51t-48 -88t0 -65q31 -38 154 114zM615 657q70 122 90 169q-29 -41 -90 -169z" />
    <glyph glyph-name="s_t" unicode="st" horiz-adv-x="451" 
d="M56 141q1 31 -20 61.5t-21 53.5q0 21 16 39.5t35 6.5q13 -6 8 -22.5t-13.5 -29.5t-16.5 -21v-1q34 -31 36 -64l1 1q181 194 270 339q3 5 7 15h-30q-449 6 -481 70l-3 6q-2 7 6 9q6 0 8 -6q24 -62 507 -65q107 239 166 310q21 24 27 9q11 -24 -170 -315l-2 -4h56
q377 6 467 25q-6 1 -16 1q-7 -2 -7 6q-2 8 6 8h6t10.5 -0.5t11.5 -2l9.5 -3.5t5.5 -5.5t-2 -8.5q-20 -30 -553 -34q-139 -308 -234.5 -594t-52.5 -334q6 19 22 15q15 -4 11 -18q-1 -7 -9 -13q-17 -12 -36 0q-49 35 2.5 227.5t161.5 459.5l81 184q-117 -167 -245 -297
q-3 -48 -43.5 -101.5t-84.5 -81.5t-57 -15q-18 18 -2.5 38.5t71 66.5t91.5 85zM54 122q-27 -29 -75.5 -67.5t-68 -59.5t-6.5 -31q18 -13 80 53.5t70 104.5zM445 659q76 128 93 169q-33 -47 -93 -169zM42 248q23 30 17 42q-11 5 -15.5 -11t-1.5 -31z" />
    <glyph glyph-name=".notdef" horiz-adv-x="301" 
 />
    <glyph glyph-name=".null" horiz-adv-x="0" 
 />
    <glyph glyph-name="nonmarkingreturn" horiz-adv-x="333" 
 />
    <glyph glyph-name="NULL" horiz-adv-x="0" 
 />
    <glyph glyph-name="NULL" horiz-adv-x="0" 
 />
    <glyph glyph-name="CR" unicode="&#xd;" horiz-adv-x="301" 
 />
    <glyph glyph-name="space" unicode=" " horiz-adv-x="301" 
 />
    <glyph glyph-name="exclam" unicode="!" horiz-adv-x="297" 
d="M318 599q-4 -9 -31.5 -75.5l-57 -135.5l-62.5 -141t-57.5 -113t-32.5 -30q-1 2 -1 6q0 6 7 6q1 0 2 -1q47 75 116.5 259t90.5 228q3 7 20 3q6 -3 6 -6zM51 25h4q1 0 2 -1l1 -1q8 -9 3 -15q-8 -14 -20 -5q-12 8 -3 17q4 4 13 5z" />
    <glyph glyph-name="quotedbl" unicode="&#x22;" horiz-adv-x="200" 
d="M123 430q-3 -5 -9.5 -17.5l-7.5 -14.5q-2 -7 -9 -5q-6 4 -4 10q7 19 15 30q12 21 19 13q6 -6 0 -13q-1 -2 -4 -3zM89 430q-5 -8 -16 -32q-3 -7 -10 -5q-6 4 -4 10q2 3 4.5 9.5t5 11.5t5.5 9q12 21 19 13q6 -6 0 -13q-1 -2 -4 -3z" />
    <glyph glyph-name="numbersign" unicode="#" horiz-adv-x="411" 
d="M285 537l-97 -214h94l63 157q3 3 9.5 2.5t12 -4t4.5 -6.5l-66 -149q17 -1 52 -1q9 0 5 -10q-2 -5 -7 -5h-57l-60 -132q38 0 57 -1q7 0 7 -7t-6 -7h-64q-48 -103 -79.5 -162.5t-40.5 -58.5q-8 1 -9 8q-1 4 4 4q2 1 4 0q35 54 104 209q-34 1 -103 1q-34 -70 -57 -112.5
t-29 -41.5q-9 1 -9 10q0 7 8 5q35 55 74 139q-22 1 -65 1q-6 0 -6 8q0 7 6 7q24 -1 71 -1l56 131q-21 1 -64 1q-7 0 -6 10q1 5 5 6q48 0 71 -1q69 169 92 221q3 3 9.5 3t12 -3.5t4.5 -6.5zM276 307h-95l-62 -131q34 -1 102 -1z" />
    <glyph glyph-name="dollar" unicode="$" horiz-adv-x="397" 
d="M336 418q20 30 19 69t-35 57l-121 -278q13 -145 -25 -219q-30 -55 -84 -47q-4 0 -10 2q-29 -58 -39 -38q-1 2 -1 5q0 5 7 5h1l19 33q-37 16 -47.5 58t10.5 81l15 25q5 5 10 2q6 -4 2 -10l-15 -23q-18 -43 -8 -74.5t39 -45.5l2 4q47 96 100 221q0 4 -0.5 12t-0.5 12
q-9 146 21 220q15 40 48.5 63.5t69.5 11.5l19 41q2 5 9 3t5 -8l-20 -42l8 -5q24 -17 31.5 -42.5t2 -49.5t-19.5 -50q-3 -6 -10 -3q-6 4 -2 10zM307 550q-31 10 -57 -10.5t-41 -54.5q-16 -37 -17 -90t5 -100zM88 20l-2 -4q47 -12 75 36q25 43 17 164q-48 -110 -90 -196z" />
    <glyph glyph-name="percent" unicode="%" horiz-adv-x="596" 
d="M301 573q30 -12 31 -57t-24 -79.5t-59 -19.5q-32 14 -33 60t25 79t60 17zM461 602q-52 -100 -141 -303.5t-138 -299.5q-1 -1 -5 -1t-8 2t-4 3q49 96 138 299.5t141 303.5q3 4 15 -1q3 -2 2 -3zM300 568q-22 2 -39 -18t-23 -46t-3.5 -50.5t15.5 -29.5q14 -6 28 4.5
t23 30.5t13.5 42t1 41t-15.5 26zM369 159q30 -12 32 -57t-23 -79.5t-59 -19.5q-32 14 -33 60t24.5 79t58.5 17zM369 154q-21 2 -38 -18t-23.5 -46t-3.5 -50.5t16 -29.5q14 -6 28 4.5t23 30.5t13.5 42t1 41t-16.5 26z" />
    <glyph glyph-name="ampersand" unicode="&#x26;" horiz-adv-x="401" 
d="M233 227q32 48 67 36q32 -11 33 -58q2 -65 -63 -137q-21 -24 -49 -40.5t-62 -22t-66 9.5q-39 -54 -85 -65l-21 -3q-8 0 -8 6t6 6l18 2q43 10 78 60l-9 6q-38 28 -44 70.5t10 80t45 70.5q42 48 105 87q29 92 56 138.5t61 70.5q21 16 52 11.5t37 -30.5q10 -40 -32 -83.5
t-98 -75.5l-48 -28q-7 -21 -22.5 -76t-25.5 -86.5t-28.5 -75t-39.5 -75.5q48 -16 88 -0.5t70 50.5q60 66 50 129q-5 36 -28 39q-18 2 -34 -21q-3 -5 -9 -3q-8 2 -4 8zM81 36l7 -5q19 33 33 74.5t34 114l27 97.5q-50 -33 -87 -76q-27 -31 -43 -65.5t-11 -74.5t40 -65z
M222 356l33 19q51 30 92.5 71t32.5 77q-5 19 -28 21.5t-38 -9.5q-43 -31 -92 -179z" />
    <glyph glyph-name="quotesingle" unicode="'" horiz-adv-x="197" 
d="M114 430q-4 -5 -10 -17.5l-7 -14.5q-2 -7 -9 -5q-6 4 -4 10q8 19 15 30q12 21 19 13q6 -6 0 -13q-1 -2 -4 -3z" />
    <glyph glyph-name="parenleft" unicode="(" horiz-adv-x="254" 
d="M253 440q-79 -9 -152 -181q-58 -137 -72 -264q-9 -74 10 -72q7 2 9 -4q2 -5 -5 -7q-40 -4 -37 84q5 112 65 251q68 159 150 195q16 7 31 9q8 0 8 -5q0 -6 -7 -6z" />
    <glyph glyph-name="parenright" unicode=")" horiz-adv-x="204" 
d="M-56 -88q79 9 152 181q58 137 72 264q9 74 -10 72q-7 -2 -9 4q-2 5 5 7q40 4 37 -84q-5 -112 -65 -251q-68 -159 -150 -195q-16 -7 -31 -9q-8 0 -8 5q0 6 7 6z" />
    <glyph glyph-name="asterisk" unicode="*" horiz-adv-x="200" 
d="M57 397l34 -33l2 48q0 3 7 3t7 -3q0 -8 -0.5 -23t-0.5 -23l31 32q1 1 7 -3q6 -5 4 -7l-40 -40l40 -38q2 -1 -2 -8q-5 -5 -7 -3l-34 32q-2 -30 -2 -45q-1 -3 -8 -3t-7 3q2 30 2 44q-4 -5 -9.5 -10t-12 -11.5l-10.5 -10.5q-2 -2 -7 3t-3 7l40 40q-1 1 -41 38q-3 2 3 8
q5 5 7 3z" />
    <glyph glyph-name="plus" unicode="+" horiz-adv-x="200" 
d="M38 316q9 0 27.5 -0.5t28.5 -0.5l2 56q0 3 7 3t7 -3q0 -18 -2 -56q10 0 28 -0.5t28 -0.5q3 0 3 -7t-3 -7q-37 0 -56 1l-2 -56q-2 -3 -8 -3q-7 0 -7 3l3 56q-38 0 -56 1q-3 0 -3 7t3 7z" />
    <glyph glyph-name="comma" unicode="," horiz-adv-x="244" 
d="M76 5q-15 10 1 23q14 11 21 0q2 -3 2 -8q1 -11 -30 -42q-6 -4 -11 1q-2 1 -1.5 4.5t2.5 5.5l4 4l6 6z" />
    <glyph glyph-name="hyphen" unicode="-" horiz-adv-x="254" 
d="M52 262l116 -2q1 0 3 -7q0 -7 -3 -7q-40 0 -116 2q-3 0 -3 7t3 7z" />
    <glyph glyph-name="period" unicode="." horiz-adv-x="219" 
d="M68 25h3q2 0 2 -1h1q0 -1 1 -1q7 -9 3 -15q-8 -14 -20 -5t-4 17q5 4 14 5z" />
    <glyph glyph-name="slash" unicode="/" horiz-adv-x="301" 
d="M276 581q-4 -9 -34.5 -83.5l-65 -156l-72 -165t-65.5 -133t-36 -38.5q-1 2 -1 6q0 6 7 6q1 0 2 -1q47 75 133 300t106 268q3 7 20 3q6 -3 6 -6z" />
    <glyph glyph-name="zero" unicode="0" horiz-adv-x="430" 
d="M100 1h-2q-88 9 -88 131q0 120 74 268q72 143 156 194q43 25 81 19q86 -14 79 -144q-7 -124 -87 -270q-75 -140 -157 -183q-30 -16 -56 -15zM99 12h1q57 -2 139 116q88 125 127 266q44 158 -21 198q-12 7 -27 10q-33 6 -71.5 -20.5t-72 -74t-64 -107t-49.5 -122t-27 -117
t2.5 -94t39.5 -50.5q7 -3 23 -5z" />
    <glyph glyph-name="one" unicode="1" horiz-adv-x="326" 
d="M187 515q13 6 40 31.5l49 46.5t27 20q6 -3 5.5 -8t-4.5 -12l-4 -7q-42 -92 -116 -280q-62 -154 -97 -229l-3 -6q-2 -4 -14.5 -34t-15.5 -35q-1 -2 -12.5 -2t-19.5 1q4 7 11.5 21.5t15 31.5t9.5 21l103 232l121 274q-6 -5 -23.5 -22.5t-26.5 -25.5q-23 -23 -44 -30
q-16 -5 -15 12v3q2 6 8 4q8 0 6 -7z" />
    <glyph glyph-name="two" unicode="2" horiz-adv-x="473" 
d="M154 392q-22 50 -3 99.5t64 85.5t104.5 39t107.5 -34q27 -24 31 -59t-12 -70.5t-37 -65.5t-44 -53q-38 -37 -123.5 -102.5t-117.5 -94.5q-62 -54 -118 -122q24 2 99.5 5t131 8t71.5 17q0 1 3 1.5t7.5 -2.5t6.5 -11t-3 -15q-12 -15 -74 -17.5t-139.5 1.5t-91.5 3
q-6 0 -16 -2q-15 -2 -17 0t9 18q55 68 138 140l73 59l87 71.5t66 61.5q23 25 42 57t31 69.5t-2.5 70t-59.5 47.5q-39 13 -77.5 5.5t-65.5 -30t-47 -52.5t-21.5 -62.5t10.5 -60.5q5 -5 -3 -7q-6 -4 -10 2z" />
    <glyph glyph-name="three" unicode="3" horiz-adv-x="448" 
d="M180 541q82 90 173 77q45 -6 69 -31.5t22.5 -57.5t-24.5 -62q-47 -62 -173 -111q84 6 117 -64q31 -66 -3 -148q-37 -89 -127 -124q-49 -19 -108 -17q-105 4 -124 78q-18 71 38 155q3 3 8 2t9.5 -5t2.5 -7q-19 -30 -30.5 -63t-12.5 -67t26 -56.5t82 -24.5q112 -3 181 84
q55 69 49 146q-6 74 -70 95q-16 5 -35 6q-7 0 -19 -1.5t-19.5 -1.5t-8.5 4q-2 4 3.5 7t12.5 5l7 2q115 42 170 112q19 24 22.5 50.5t-12.5 49t-53 31.5q-48 12 -91 -16.5t-62 -56.5q-3 -2 -8.5 -1.5t-9.5 4.5t-2 7z" />
    <glyph glyph-name="four" unicode="4" horiz-adv-x="444" 
d="M437 603q-27 -57 -87 -198l-39 -99l-25 -61h77q8 0 8 -6q0 -5 -7 -5q-55 0 -83 -1q-39 -96 -67 -156l-3 -6q-2 -4 -14.5 -34t-15.5 -35q-1 -2 -13 -2t-19 1l5 10q0 3 3 5l28 59l71 158l-98 -2q-8 0 -49 -0.5t-67 -1t-43 0.5q-17 2 6 17q51 36 105.5 107.5t85 126
l69.5 130.5q2 2 8.5 1.5t12.5 -4t4 -6.5q-132 -260 -272 -361l243 3l27 63l121 274q11 33 20 32q5 -2 6 -4q4 -2 2 -6z" />
    <glyph glyph-name="five" unicode="5" horiz-adv-x="509" 
d="M537 576q-20 -11 -76.5 -6t-110 14.5t-64.5 13.5l-6 1q-20 -43 -51.5 -125t-38.5 -99q132 26 193 -52q48 -61 26 -150q-22 -91 -104 -139q-62 -36 -143 -34q-96 3 -139 61q-41 53 4 134q2 5 9 3q6 -3 4 -8q-21 -36 -23 -62q-4 -50 40 -83t106 -34q115 -1 182 85
q54 70 44 149q-11 81 -85 109q-49 19 -117 8q-5 -1 -16 0t-12 4q-1 2 50 113t62 133l16 -2q4 0 32.5 -2.5l62.5 -5.5t68.5 -5t57.5 0.5t23 9.5q-2 6 6 6q11 0 9.5 -15.5t-9.5 -21.5z" />
    <glyph glyph-name="six" unicode="6" horiz-adv-x="323" 
d="M326 602q-33 -2 -64 -19.5t-57 -48t-47.5 -62t-41.5 -73.5t-31.5 -69.5t-24.5 -62.5q60 73 121 73q56 1 84 -52t16 -116t-51 -114t-88 -57q-45 -5 -76 14t-42.5 52.5t-14.5 73.5t9 76q14 51 41 112.5t66.5 127.5t93.5 110.5t108 46.5q7 -2 7 -7q-2 -5 -8 -5zM61 247
l-14 -21q-11 -32 -13 -69.5t5.5 -73t34 -56t68.5 -15.5q40 5 70 51.5t43 109.5q13 61 -5 107.5t-69 48.5q-63 2 -120 -82z" />
    <glyph glyph-name="seven" unicode="7" horiz-adv-x="312" 
d="M39 612q229 0 261 -1q23 -1 25 -6t-10 -19q-10 -12 -15 -20q-27 -41 -53 -90.5l-44.5 -87.5t-43 -100.5t-35 -92l-36 -101l-32.5 -91.5q-3 -7 -23 0l-4 2l77 208t86 191.5t114 195.5h-6l-261 -11q-7 0 -7 11.5t7 11.5z" />
    <glyph glyph-name="eight" unicode="8" horiz-adv-x="441" 
d="M190 442q-15 42 -13 80.5t34.5 67t89.5 31.5q72 4 123 -36.5t27 -104.5q-26 -66 -168 -162q90 -158 3 -254q-50 -55 -132.5 -64.5t-136.5 47.5q-32 45 -27 98.5t39 111.5t76 105.5t85 79.5zM195 430q-38 -30 -77.5 -74t-73.5 -100.5t-39.5 -108t24.5 -94.5
q49 -52 124.5 -42t120.5 60q27 30 32.5 67.5t-8 78t-30.5 74.5t-40.5 76t-32.5 63zM276 328q138 94 161 156q22 58 -23.5 93.5t-110.5 32.5q-141 -8 -93 -145q13 -39 66 -137z" />
    <glyph glyph-name="nine" unicode="9" horiz-adv-x="344" 
d="M18 14q144 10 265 335q-60 -73 -121 -73q-55 -1 -83.5 52.5t-16.5 116.5q13 63 52 113.5t87 56.5q45 6 76.5 -13.5t43 -52.5t14.5 -73t-9 -76q-14 -51 -41 -113t-67 -128t-94 -110.5t-108 -45.5q-8 0 -6 6q0 5 8 5zM283 369l14 22q10 32 12 69t-5 72.5t-33.5 56.5
t-69.5 15q-40 -5 -70 -51.5t-43 -109.5q-12 -61 6 -107.5t68 -48.5q61 -2 121 82z" />
    <glyph glyph-name="colon" unicode=":" horiz-adv-x="220" 
d="M100 144q2 2 2 0h1q2 0 2 -1h1q0 -1 1 -1q7 -9 3 -15q-8 -14 -20 -5t-4 17q5 4 14 5zM52 25q2 2 2 0h1q2 0 2 -1h1q0 -1 1 -1q7 -9 3 -15q-8 -14 -20 -5t-4 17q5 4 14 5z" />
    <glyph glyph-name="semicolon" unicode=";" horiz-adv-x="245" 
d="M57 3q-14 9 -2 21q13 12 22 4q4 -3 4 -10q1 -13 -31 -42q-4 -6 -10 0q-5 5 0 10q1 1 4.5 4t6.5 6.5t6 6.5zM115 146h3v-1q2 0 2 -1h1q0 -1 1 -1q8 -7 3 -15q-9 -15 -22 -3q-11 10 0 17q4 3 12 4z" />
    <glyph glyph-name="less" unicode="&#x3c;" horiz-adv-x="280" 
d="M162 315l-73 -15q28 -10 70 -22q7 -2 5 -9t-9 -5q-6 2 -18 5.5l-21.5 6.5t-17.5 6l-12 3t-14.5 5t-14 8t0.5 9q6 6 102 22q6 2 8 -6q2 -6 -6 -8z" />
    <glyph glyph-name="equal" unicode="=" horiz-adv-x="298" 
d="M47 246l116 -2q3 0 3 -7t-3 -7q-40 0 -116 2q-3 0 -3 7t3 7zM66 299l116 -2q3 0 3 -7t-2 -7q-39 0 -117 2q-2 0 -2 7t2 7z" />
    <glyph glyph-name="greater" unicode="&#x3e;" horiz-adv-x="298" 
d="M126 300l-73 15q-8 2 -6 8q2 8 8 6q96 -16 102 -22q4 -5 0.5 -9t-14 -8t-14.5 -5l-12 -3l-57 -18q-7 -2 -9 5t5 9q42 12 70 22z" />
    <glyph glyph-name="question" unicode="?" horiz-adv-x="368" 
d="M110 456q6 26 16 50t26.5 50.5t43.5 42.5t59 16q50 -1 69.5 -38t11.5 -78q-16 -86 -125 -170q-24 -18 -61 -109t-43 -102q-2 -6 -10 -14t-15 0q-1 3 -1 6q0 6 7 6q1 0 2 -1q14 22 47 110t64 114q83 69 106 147q7 24 8.5 48t-13 46.5t-47.5 22.5q-29 0 -53 -15.5
t-39.5 -41t-24 -47.5t-14.5 -45q-2 -5 -8 -5q-8 2 -6 7zM56 25h4q1 0 2 -1l1 -1q7 -9 3 -15q-8 -14 -20 -5q-12 8 -3 17q4 4 13 5z" />
    <glyph glyph-name="at" unicode="@" horiz-adv-x="614" 
d="M373 532q-58 -2 -111.5 -35t-90.5 -77q-47 -57 -78.5 -141t-30 -176.5t51.5 -145.5q44 -48 123 -50q51 1 112 17h1l1 1h1v-1h4v-1h1v-1h1v-2h1v-3h-1v-2h-1v-1h-2l-1 -1q-65 -17 -117 -17q-95 -2 -147 54q-83 88 -42 265q32 137 107 222q40 46 98 77t119 29q51 2 96 -21
q57 -29 83 -85t22 -120t-24 -125.5t-51 -111.5q-23 -35 -52 -57.5t-53.5 -25.5t-44.5 8.5t-25 43.5t7 81q6 21 12.5 38t14.5 33t11 23q-111 -152 -165 -107q-15 13 -17 41.5t8.5 62t28 64.5t43 51.5t51.5 20.5q29 0 44.5 -16t18 -34t0.5 -39q4 4 7 8.5l5.5 8.5t3.5 5
q6 8 20 4.5t7 -20.5q-1 -4 -12.5 -28.5l-26.5 -59t-25 -66.5q-14 -45 -9.5 -75t23.5 -35q21 -6 52.5 20t58.5 73q39 69 56 146t-3.5 152.5t-88.5 110.5q-35 18 -75 20zM362 245q1 17 2 40t-11.5 40t-36.5 10q-46 -14 -86 -94.5t-16 -109.5q32 -38 148 114z" />
    <glyph glyph-name="A" unicode="A" horiz-adv-x="976" 
d="M-52 187q52 37 54 -54q2 -125 -76 -409q-3 -13 -5 -19q-2 -8 -6.5 -22.5l-6.5 -20.5l256 521q-182 -3 -166 29q1 3 5 7q5 4 10 -1q4 -5 -1 -10q24 -9 160 -9q22 45 58 112.5l98.5 181.5t113.5 185t68 60q8 -5 8.5 -33t-6 -71.5t-16 -92.5t-22.5 -104.5l-23.5 -99
l-20.5 -84.5t-13 -52q139 2 141 2q135 0 159 -16q14 -10 -3 -25q-6 -5 -10 1q-6 6 1 10l3 3q-15 11 -80 11q-80 5 -214 1q-70 -333 -23 -378q91 -88 614 428q4 6 10 0q5 -5 0 -10q-187 -185 -293 -273q-257 -214 -335 -161q-29 19 -33 94.5t6.5 149t27.5 150.5
q-58 -2 -180 -4h-14q-268 -528 -317 -606l-3 -5l-4 -4q-6 -1 -8 2t0 8v1l1 2q1 2 2 5t2 4q38 88 81 276.5t39 272.5q0 9 -0.5 13l-1.5 11.5t-3 10.5t-5 6t-8 1.5t-12 -6.5q-6 -4 -10 1q-4 6 1 10zM391 201l40.5 156.5t61.5 258.5t9 110q-42 -11 -301 -528q99 0 190 3z" />
    <glyph glyph-name="B" unicode="B" horiz-adv-x="964" 
d="M-71 -269q56 134 186.5 480t210.5 518q4 8 18 -2q8 -5 6 -10q-27 -57 -73 -166q72 70 162 84q86 13 117 -38q26 -45 -3 -125q-19 -51 -61.5 -102t-90.5 -86q160 -29 171 -162q187 55 428 116q7 2 9 -6q2 -6 -5 -8q-182 -46 -273 -71l-159 -45q0 -63 -33 -126
t-85.5 -108.5t-118 -76.5t-130 -31t-120.5 28q-33 19 -41 45.5t5 52.5t40 48q18 15 44.5 29.5t64 30l66.5 27t78 27l71.5 22.5l73.5 22t59 17q-8 136 -163 157q-36 -22 -70 -29q-32 -8 -54 6q-1 0 -1 1q-3 9 2 11q32 37 118 26q103 69 151 194q41 106 -22 135
q-52 25 -136 -15q-66 -32 -109 -87q0 -1 -1 -1l-127.5 -322l-145 -366.5t-112.5 -250.5q-7 -15 -16 -4q-5 5 -2 10q1 6 4 9q0 2 1 3q38 89 80.5 276t38.5 270q0 9 -0.5 13l-1.5 11.5t-3 10.5t-5 6t-8 1.5t-12 -6.5q-7 -4 -10 2q-4 4 1 10q52 37 54 -53q2 -124 -77 -412
q-3 -12 -5 -18v-4q5 15 14 32zM546 100q-349 -102 -433 -160q-27 -19 -43.5 -41t-13 -48t35.5 -44q41 -24 92.5 -26.5t100.5 13t96.5 46.5t83 71t58 89.5t23.5 99.5zM357 275q-44 2 -69 -10q-6 -3 -12 -9l3 -1q31 -7 78 20z" />
    <glyph glyph-name="C" unicode="C" horiz-adv-x="831" 
d="M39 663l-3 -2q53 -7 290 25q90 59 177 57q43 0 58 -11q7 -5 0 -11q-20 -21 -218 -47q-48 -31 -110.5 -99.5t-123 -155.5t-107 -184t-68.5 -182.5t-0.5 -154.5t91.5 -98q77 -32 203 10q141 47 328 176t311 252q4 4 10 0q6 -6 0 -10q-35 -35 -84 -77t-115 -93.5t-135 -97.5
t-144 -88.5t-143 -66.5t-131.5 -32t-108.5 15q-88 41 -107 133t18.5 200t102 219t138 198.5t131.5 129.5q-197 -26 -252 -22q-24 2 -29.5 10t15.5 20q7 2 10 -4q2 -7 -4 -9zM377 694q122 18 163 32q-34 9 -79.5 -1.5t-83.5 -30.5z" />
    <glyph glyph-name="D" unicode="D" horiz-adv-x="970" 
d="M-38 -192l33 82q14 34 20 51l94.5 249.5l117.5 305t101 234.5l3 3h1q6 2 14.5 -4t5.5 -11l-73 -166q29 24 63 43.5t74 34.5t80.5 13.5t71.5 -23.5q146 -101 -27 -506q223 65 388 106q25 7 75 19q6 2 8 -5t-5 -9q-294 -74 -474 -129q-20 -45 -42 -85.5t-54 -84.5
t-66.5 -75.5t-80 -53.5t-93.5 -25q-64 -3 -103 32q-32 27 -29 59t22 58t49 46q16 11 41 23q96 45 331 114q182 410 52 504q-37 22 -77.5 21t-85 -22t-77 -44t-53.5 -45q-1 0 -3 -2l-127.5 -322l-146 -367.5t-112.5 -250.5q-3 -8 -8.5 -8t-8.5 5t-1 9q1 2 2 5t2 4
q38 87 81 275.5t39 272.5q0 9 -0.5 13.5t-1.5 12t-3 10.5t-5 6t-8 1.5t-12 -6.5q-6 -6 -10 1q-4 6 1 10q52 37 54 -53q2 -127 -79 -422l-2 -8l1 1q30 68 43 103zM500 86l-62.5 -18.5t-70 -21.5l-62 -20t-67.5 -24.5t-57 -25.5q-45 -22 -70.5 -49t-28.5 -52t8 -45.5
t39.5 -32.5t66.5 -11q45 2 86.5 22.5t71 48t59 71.5t47.5 77.5t40 80.5z" />
    <glyph glyph-name="E" unicode="E" horiz-adv-x="775" 
d="M301 413q67 22 111 85.5t36 134.5q-7 57 -52.5 86t-103.5 24q-58 -4 -107 -43.5t-71.5 -95t-22.5 -112.5t41.5 -104t118.5 -63q8 -2 21.5 -4t15.5 -2q68 4 75 -4t-6 -12h-1h-19q-31 0 -46 2q-179 -5 -298 -120q-90 -88 -101 -194q-11 -103 65 -156q50 -35 131 -37
q64 -1 135.5 22t142 66t124.5 82.5t115 90.5q105 88 196 179q4 6 10 0q5 -5 0 -10q-144 -144 -309 -268.5t-303 -162.5q-56 -14 -110 -13q-153 4 -204 102q-43 85 8 195q51 113 170 180q75 42 163 54h3q-65 17 -105.5 57t-51 87t-0.5 99t39 95t76 72t102 33
q70 5 121.5 -32.5t52.5 -106.5q2 -72 -43.5 -134.5t-115.5 -85.5q-6 -2 -8 5t5 9z" />
    <glyph glyph-name="F" unicode="F" horiz-adv-x="626" 
d="M-54 187q52 37 54 -53q1 -126 -77 -412q-3 -12 -5 -18l-2 -7q73 168 203 516q-75 -3 -94 -8l-2 -3q-3 -3 -10 8q-9 16 14 23q34 9 102 6q110 296 192 474q-453 0 -520 -17q2 -1 3 -7t-1 -8q-2 -3 -12 9q-22 25 12 34q5 2 11 3q71 11 316 8l200 -3q2 2 12 0q343 -7 473 -4
q71 0 100 5q-2 3 0 7q2 6 9 4q12 -6 11 -14q-1 -5 -11 -8.5t-26.5 -5t-35 -2.5t-40.5 -1.5t-38 -0.5t-32 0.5t-19 0.5h-78.5h-148h-155.5q-75 -162 -196 -474q55 1 248 -1t248 2q7 0 7 -7t-7 -7q-38 -2 -57 -2q-358 -6 -449 -10q-170 -437 -234 -573l-32 -65q-6 -14 -15 -6
q-7 6 -3 12q1 2 2 6l1 3q38 86 81.5 275t39.5 274q0 9 -0.5 13l-1.5 11.5t-3 10.5t-5 6t-8 1.5t-12 -6.5q-6 -6 -10 1q-6 6 1 10z" />
    <glyph glyph-name="G" unicode="G" horiz-adv-x="1076" 
d="M126 657l-2 -1q54 -9 298 26q85 54 169 56q5 0 12.5 -1l23 -3t22.5 -7t0 -12q-20 -20 -215 -46q-47 -31 -118.5 -117t-139.5 -192t-114 -224.5t-41 -199.5q3 -51 26 -85.5t57.5 -48.5t76 -12.5t83.5 19.5q177 76 447 415v1q4 9 24 11q7 0 7 -4l-179 -440l19 13
q325 233 523 430q5 5 11 0q3 -5 0 -10q-196 -195 -513 -422l-50 -36q-129 -317 -159 -385l-16 -33l-20.5 -39.5t-24.5 -40.5t-28 -36t-29.5 -26.5t-30 -11.5t-29.5 8q-28 19 -30.5 70t9.5 95t27 77q20 45 46.5 84.5t50 66.5t64 61t65 52l76.5 55l167 413
q-240 -296 -411 -376q-48 -23 -97 -27t-89.5 10.5t-68.5 52.5t-32 95q-7 83 37 199.5t111 221.5t136.5 190.5t117.5 120.5q-206 -27 -260 -23q-24 1 -30 9t15 20q6 3 10 -3q2 -7 -4 -10zM514 -261q-61 -43 -98 -72.5t-79.5 -72.5t-72 -92.5t-48.5 -110.5q-8 -25 -13.5 -58
t-1 -71t25.5 -49q18 -9 40.5 10t44 55.5t34.5 62.5t24 51zM468 689q124 19 159 31q-62 17 -159 -31z" />
    <glyph glyph-name="H" unicode="H" horiz-adv-x="849" 
d="M13 209q-19 18 55 23q25 2 55 2q117 313 202 497q4 8 18 -2q8 -5 6 -10q-78 -168 -200 -485q110 3 331 3q143 362 208 489q6 13 15 5q7 -6 3 -12q-2 -7 -4 -9q-30 -70 -67 -219t-49 -255q123 0 246 3q20 1 39 1q7 2 7 -6q2 -8 -6 -8q-19 -1 -287 -3q-5 -36 -3 -61
q2 -42 14 -43q6 -1 16 6q6 6 10 -1q6 -6 -1 -10q-56 -41 -53 71q0 17 2 38h-71q-10 -28 -48.5 -129l-55 -143.5l-47 -121t-57 -139.5l-53.5 -119q-3 -4 -9 -3t-11.5 6t-3.5 9q71 154 261 640q-247 -2 -332 -4l-35.5 -90.5l-36.5 -93.5l-33.5 -85l-36 -89l-32.5 -78
l-33.5 -78.5l-30 -65.5l-30.5 -63q-6 -14 -15 -6q-7 6 -3 12q2 7 4 9q38 88 81 276.5t39 272.5q0 9 -0.5 13l-1.5 11.5t-3 10.5t-5 6t-8 1.5t-12 -6.5q-6 -4 -10 1q-6 6 1 10q52 37 54 -52q2 -125 -77 -412q-3 -12 -5 -18v-6q57 133 203 519q-76 -2 -92 -6l-1 -2
q-6 -6 -11 -1zM504 236h68q16 146 76 361v1q-64 -146 -144 -362z" />
    <glyph glyph-name="I" unicode="I" horiz-adv-x="560" 
d="M597 227q-50 -26 -169.5 -28t-178.5 8l-37 5q-138 -362 -221 -551q0 -1 -5.5 -12.5l-11 -24t-12.5 -26.5t-13 -21q0 -1 -1 -3h-1q-9 -11 -12 1q-1 0 1 5l-1 1l2 3l23 61l45 139.5l40.5 132l43 146l38.5 133.5q3 10 6 24q4 18 7 20t17 -2q3 -1 5 -2q16 -4 30 -7
q35 88 99 282.5t51 209.5q-16 21 -82 -32q-84 -68 -166.5 -193.5t-139.5 -250.5q-4 -6 -10 -3q-6 2 -4 9q123 266 273 415q33 33 74.5 59.5t62.5 8.5q8 -7 9.5 -25t-3.5 -46.5t-12 -59.5t-19.5 -71l-23 -73t-25 -74l-23.5 -65.5l-21 -56.5t-14 -38q80 -14 203 -11.5
t167 24.5q6 5 10 -1q6 -6 -1 -10zM187 216q-14 2 -37 9l-47.5 -163.5l-56.5 -193.5t-51 -164q41 95 105 274.5t87 237.5z" />
    <glyph glyph-name="J" unicode="J" horiz-adv-x="628" 
d="M-104 221q27 51 59.5 105.5t81.5 124t96 124.5t101.5 96.5t100.5 49.5q47 8 62.5 -17.5t4.5 -65.5q-16 -58 -40 -135.5l-42.5 -134.5l-54.5 -160l-49.5 -140l-55 -151.5l-44.5 -122.5q6 5 18 13q324 232 524 430q4 6 10 0q5 -5 0 -10q-201 -198 -513 -422l-49 -35
l-153 -369q-12 -30 -28 -60.5t-43 -73.5t-57.5 -61.5t-56.5 -0.5q-28 20 -30.5 71t9.5 94.5t27 77.5q20 45 46.5 84.5t51 67.5t63.5 61t66 53l76 55q227 608 302 876q9 30 -0.5 48.5t-41.5 13.5q-54 -9 -120 -66t-126.5 -140t-104 -152.5t-78.5 -134.5q-4 -6 -9 -3
q-6 3 -3 10zM68 -256q-60 -42 -98 -72.5t-80.5 -73.5t-72 -93t-49.5 -111q-8 -26 -13.5 -58.5t-1 -71t26.5 -49.5q17 -9 40 10t44.5 56t35.5 64.5t23 50.5z" />
    <glyph glyph-name="K" unicode="K" horiz-adv-x="869" 
d="M755 705l-172.5 -134t-226.5 -171t-186 -116l-15 -38q13 -29 36.5 -92.5l45.5 -121t47.5 -115t54 -92t54.5 -34.5q30 0 77 28.5t91 65.5t103.5 96.5t95 98l86 95l57.5 64.5q4 5 10 1q5 -5 0 -10q-1 -1 -53 -60l-86 -96t-96.5 -100t-108 -101t-96 -67.5t-83.5 -28.5
q-38 1 -72 38t-59 96t-44 117.5l-37 117.5t-28 81q-1 0 -1 2l-29 -73.5l-29.5 -76.5l-27.5 -71l-29 -73.5l-27 -67l-28.5 -68.5l-26 -61l-26.5 -61.5l-24 -52t-25 -50.5q-4 -8 -9 -7.5t-8.5 5.5t-1.5 9q4 8 4 9q38 87 81 276t39 272q0 9 -0.5 13.5t-1.5 12t-3 10.5t-5 6
t-8 1.5t-12 -6.5q-4 -5 -10 1q-4 7 2 10q52 37 53 -52q2 -125 -75 -411l-6 -20v-2q52 120 218 557q-2 5 -4 7q-29 -14 -48.5 -12t-16.5 27q2 19 23 24t41 -15l5 -7l12 7q104 278 180 440q3 4 9 3t12 -6t4 -9q-65 -138 -171 -407q93 59 308 218t258 188q6 4 11 -1
q4 -6 -2 -10zM122 276q-22 25 -43 4v-5q1 -9 12 -8.5t31 9.5z" />
    <glyph glyph-name="L" unicode="L" horiz-adv-x="569" 
d="M606 225l-685 -643q-8 -8 -25 -13q-8 -2 -8 4q1 1 1 2q2 6 56 128.5l119.5 279.5l130 320.5t97.5 282t11 134.5q-21 16 -81 -33q-84 -68 -166.5 -193.5t-139.5 -250.5q-4 -6 -10 -3q-7 2 -3 9q27 63 70 138q23 40 56 90t76.5 107.5t90.5 100t82 50.5q17 4 29 0
q21 -10 20 -56.5t-22 -124t-52.5 -169.5t-71.5 -193.5l-79.5 -195.5l-76 -176.5l-61 -136t-34.5 -73.5l666 626q6 4 10 -1q5 -5 0 -10z" />
    <glyph glyph-name="M" unicode="M" horiz-adv-x="990" 
d="M-62 192q61 27 57 -57q-4 -85 -81 -299q-11 -31 -41 -109.5t-45 -121.5q9 -5 77 151t153 375.5t137 374.5q-3 46 -4 83t1.5 71t10.5 51.5t21 14.5q20 -5 24 -37t-4.5 -78.5t-16.5 -77.5t-16 -56q4 -55 18 -185t17 -195q17 23 39 48.5l40 45.5l47 50.5l44.5 46.5l51 52
l48.5 49q12 24 35 63.5t54.5 88.5t60.5 77t43 15l-1 2q10 -8 11 -17q6 -42 -171 -221q-12 -24 -30.5 -64.5l-47 -108t-48.5 -133.5t-33 -128.5t-2.5 -107t45.5 -55.5q41 -13 111.5 23t147.5 100.5t144 128.5l122.5 121t61.5 62q1 2 4.5 1.5t5.5 -2.5q6 -4 2 -10
q-9 -7 -51.5 -49.5l-94 -93.5t-118.5 -109.5t-127.5 -104t-119 -70t-94.5 -12.5q-39 13 -54 54.5t-7.5 100.5t22 118t39.5 123.5t40 99.5l27 61l-43.5 -43t-46.5 -46.5l-38 -40t-43 -47.5l-35.5 -43.5t-39.5 -52.5q1 -40 0 -62.5t-6.5 -45.5t-17.5 -30q-5 -3 -10 -3
q-13 -1 -20 8t-9 23q-5 47 40 110q-2 66 -25 372q-45 -128 -176 -448.5t-181 -404.5q-19 -31 -28.5 -19.5t3.5 49.5l42 113l55.5 151t43 136.5t23.5 120.5q2 31 -4 40.5t-30 -0.5q-4 -3 -10 3q-3 7 1 10zM577 450q69 72 96 109l5 6q4 6 7.5 10.5t8.5 13t7 14t3.5 12.5
t-3.5 9q-30 -1 -124 -174zM208 542q8 25 15 61t9.5 70t-8.5 38q-23 -8 -16 -169zM224 39q-13 -18 -19.5 -40t-5 -37.5t6.5 -18.5q6 -1 9.5 4.5t5.5 19.5t2.5 30t0.5 42z" />
    <glyph glyph-name="N" unicode="N" horiz-adv-x="949" 
d="M310 626l-12 -29q-6 -37 -19 -110l-23.5 -130.5l-12.5 -68.5q-98 -588 -35 -688q9 -14 21 -17q23 -5 53 26.5t59.5 89t57 119.5t53 132l39.5 110.5t23 69.5q-20 34 -25 85t-1 90t14 103q13 77 47 198.5t61 124.5q21 2 31.5 -19.5t10 -60.5t-6 -86.5t-18.5 -105
l-24.5 -107.5t-26.5 -102l-23.5 -80.5l-15.5 -51.5q32 -47 93 -51q82 -6 182 47t166 123q4 7 10 1q5 -5 0 -10q-53 -57 -124.5 -101.5t-142.5 -63.5q-133 -36 -190 37q-13 -40 -25 -73.5l-38.5 -105.5t-53 -127t-58.5 -111.5t-65 -87t-62 -27.5q-63 6 -59 204q3 227 92 709
l10 53l-125.5 -320.5l-150 -377t-119.5 -262.5q-6 -13 -15 -5q-7 6 -3 12q2 7 4 9q38 87 81 275.5t39 272.5q-2 42 -14 43q-6 1 -16 -6q-6 -6 -10 1q-6 6 1 10q52 37 54 -53q2 -126 -76 -411q-3 -13 -5 -19l-3 -9q81 186 197.5 494.5t174.5 449.5q4 8 18 -2q8 -5 6 -10z
M520 149l18.5 60t31.5 107t34.5 135t25.5 127t7 100t-25 39q-19 -14 -48 -112.5t-40 -154.5l-6 -31.5l-7 -37.5t-6 -37.5t-5 -41.5t-2 -39.5t1.5 -41.5t7.5 -36.5t13 -35.5z" />
    <glyph glyph-name="O" unicode="O" horiz-adv-x="808" 
d="M409 -26q170 56 355 205q25 20 71 60q5 4 10 -1q4 -5 -1 -10q-64 -58 -131 -106q-163 -121 -316 -167q-53 -77 -120.5 -127t-142.5 -43q-58 5 -99 52q-39 46 -50 125.5t2 167t44 180.5q13 108 61.5 206.5t120.5 155.5q84 68 181 57q70 -8 110 -56t48 -118.5t-1 -154.5
t-33.5 -166t-53 -150t-55.5 -110zM332 654q-31 4 -52.5 -3.5t-47.5 -28.5q-52 -41 -102 -126.5t-85 -190.5q-11 -89 8 -164q24 -93 71.5 -141.5t109 -52.5t136.5 16q32 47 68.5 130.5t64 186.5t34.5 196t-28 160.5t-116 78.5q-47 6 -97.5 -13t-90.5 -56q-104 -95 -145 -260
q74 177 163 248q29 23 53.5 30.5t59.5 3.5q7 -2 5 -8q-2 -8 -9 -6zM27 247q-36 -115 -33 -228.5t52 -171.5q36 -41 90 -48q107 -12 222 146q-75 -17 -137 -10.5t-110 57.5t-72 146q-12 45 -12 109z" />
    <glyph glyph-name="P" unicode="P" horiz-adv-x="831" 
d="M347 714l-55 -134q135 170 257 148q60 -11 88 -57t27 -105t-17.5 -130.5t-37 -125t-41.5 -96.5h97.5t89.5 6t107 20q6 1 8 -5q2 -7 -5 -9q-61 -15 -110.5 -21t-92.5 -6h-102q-115 -226 -273 -262q-38 -9 -67.5 -4t-53.5 17.5t-35.5 33.5t-11.5 44t18.5 49.5t52.5 49.5
q135 89 348 87q16 31 32.5 73.5t34.5 97.5t25.5 108.5t6 100.5t-24.5 79.5t-66 40.5q-50 9 -106 -22t-95 -72.5t-73 -91.5l-98.5 -250l-107.5 -273l-94.5 -228t-92.5 -202q-7 -15 -16 -4q-5 5 -2 10q0 2 1 4t2 3v2q38 87 81.5 276t39.5 273q0 9 -0.5 13l-1.5 11.5t-3 10.5
t-5 6t-8 1.5t-12 -6.5q-7 -3 -11 2q-3 5 2 10q52 37 53 -53q2 -124 -76 -411q-3 -13 -5 -19t-2 -9q81 187 215.5 539.5l191.5 491.5q5 5 11 4t10.5 -6.5t2.5 -9.5zM531 200q-204 0 -333 -85q-38 -25 -54 -54.5t-8 -52t28 -40.5t54 -21.5t70 5.5q68 20 131 88t112 160z" />
    <glyph glyph-name="Q" unicode="Q" horiz-adv-x="766" 
d="M372 -106q31 -33 50.5 -50t50.5 -34.5t63.5 -12t67.5 31.5l20 16q5 5 10 0q4 -6 -1 -10l-20 -17q-32 -23 -62.5 -30t-53 -3t-50 23t-43 33.5t-41.5 42.5q-31 -33 -68.5 -57t-78.5 -36.5t-83 -1.5t-75 49q-40 46 -51 126.5t3 169t46 182.5q14 105 62 203t118 154
q46 36 100.5 50.5t104.5 2.5q58 -14 93 -59.5t44 -112t2.5 -141t-28.5 -157.5q-57 -222 -180 -362zM355 655q-30 4 -51.5 -3.5t-48.5 -28.5q-51 -40 -100.5 -124.5t-84.5 -187.5q-11 -81 1 -149q11 -60 37.5 -134t57.5 -88q6 -3 14.5 7.5t19.5 21t28.5 15t49 -13.5t73.5 -62
q119 135 177 351q20 73 28.5 141t4 135t-35.5 114.5t-88 62.5q-50 13 -107 -5.5t-102 -59.5q-96 -89 -141 -250q74 172 159 237q29 24 53.5 31.5t59.5 3.5q7 -2 5 -9t-9 -5zM50 250q-36 -115 -33.5 -230t52.5 -173q40 -46 92.5 -46.5t96 26.5t83.5 70q-40 43 -68.5 60
t-43.5 12t-24.5 -15.5l-19.5 -21t-21 -7.5q-36 10 -66 90t-41 145q-7 39 -7 90z" />
    <glyph glyph-name="R" unicode="R" horiz-adv-x="890" 
d="M238 465q164 192 293 168q42 -8 65 -36.5t26 -66.5t-3.5 -75.5t-20.5 -72.5q-43 -102 -140 -178.5t-201 -74.5q7 -7 13 -16q13 -19 22 -45.5t22 -76.5l16 -62q19 -68 50.5 -103.5t94.5 -28.5q27 3 58.5 19.5t60.5 38.5t63.5 57.5t60 64.5t59 72l52.5 68.5l48 65.5l37 51
q4 5 10 1q7 -4 1 -10q-4 -5 -44 -60.5l-58.5 -80l-61 -78t-72.5 -83l-69 -65t-75 -53.5t-68 -22q-71 -8 -110 28.5t-60 105.5q-4 13 -13 71t-24 95.5t-44 48.5q-1 0 -3.5 0.5t-3.5 0.5l-11 3h-2v1q-15 6 -5 11q12 6 32 -2q103 -12 192.5 54.5t137.5 170.5q15 31 24 68
t10.5 75.5t-16 67.5t-53.5 37q-40 8 -85.5 -8t-87 -50.5t-73 -68t-61.5 -71.5q-12 -29 -70 -178.5l-80 -204.5l-66 -163t-75.5 -178t-60.5 -126q-4 -8 -9 -8t-8 5.5t-1 9.5q0 2 1 3.5t2 2.5v2q38 88 81.5 276.5t39.5 272.5q-3 39 -13 42q-6 2 -17 -6q-7 -3 -11 2q-4 6 2 10
q52 37 53 -53q2 -124 -76 -411q-3 -13 -5 -19t-2 -9q81 187 215.5 539.5l191.5 491.5q2 3 6 2.5t9 -2.5t7.5 -5.5t1.5 -6.5z" />
    <glyph glyph-name="S" unicode="S" horiz-adv-x="861" 
d="M376 395q-28 -94 20 -140q28 -24 59 -22t61.5 24t54 49t36.5 54q27 55 30 116.5t-17 114t-68.5 88t-116.5 38.5q-84 4 -154.5 -30t-118.5 -95t-79.5 -134t-47.5 -157q-13 -66 -15.5 -129t5.5 -126t20 -119.5t33 -128.5q22 13 48 27l54.5 29.5l41.5 22.5l672 362
q6 4 10 -2q3 -6 -3 -10l-719 -388l-46.5 -26l-53.5 -30q42 -146 -48 -203q-49 -30 -91 -11q-42 18 -29 68q10 36 51 78q31 32 89 68q-21 79 -33 134t-21.5 122.5t-7 132.5t15.5 133q17 88 50.5 163t84.5 137t126 96.5t166 30.5q75 -3 128 -43.5t73.5 -99t14.5 -126.5
t-40 -126q-17 -28 -42 -54.5t-56 -45.5t-65 -18.5t-62 26.5q-54 53 -24 156q2 6 9 4q7 -3 5 -10zM58 -231q-90 -54 -120 -115q-25 -50 5 -70.5t71 1.5q33 16 45.5 48.5t10.5 62.5t-12 73z" />
    <glyph glyph-name="T" unicode="T" horiz-adv-x="533" 
d="M-58 188q52 37 53 -53q2 -124 -76 -411q-3 -13 -5 -19l-3 -9q68 156 198.5 503.5t206.5 514.5q-457 -2 -520 -18q8 -5 3 -15q-2 -3 -13 10q-22 27 18 36q3 0 6 1q66 10 315 7q101 0 201 -3q3 3 12 0q343 -7 473 -4q65 0 100 6q-2 4 -1 6q4 7 10 4q12 -5 11 -13
q-1 -5 -11 -8.5t-27 -5.5t-35 -3t-40 -1h-37.5h-32.5h-19q-13 0 -148 0.5t-235 0.5q-72 -155 -236 -577t-235 -561q-4 -8 -9.5 -8t-8.5 5t-1 9l2 4l2 4v1q38 88 81.5 276.5t39.5 272.5q-3 39 -13 42q-7 2 -18 -6q-6 -4 -10 2t2 10z" />
    <glyph glyph-name="U" unicode="U" horiz-adv-x="925" 
d="M961 227l-90 -119.5l-98 -130.5l-90.5 -116.5l-99.5 -121.5q-166 -196 -234 -172q-28 10 -30.5 59.5t17.5 126.5t48 162t67.5 182l70.5 169.5l61.5 141.5t35.5 82q-97 -168 -238 -370q-237 -334 -319 -334q-13 0 -22 3q-31 10 -38.5 50t7 105t37.5 132.5t58 155.5
l40 98.5l40.5 98.5l34.5 87.5t28 80.5t15 61.5t1.5 46.5t-18.5 20q-22 8 -76 -35q-84 -68 -166 -193.5t-140 -250.5q-4 -6 -10 -3q-6 1 -4 9q31 66 70 138q24 42 56.5 90.5t76.5 107t90.5 100.5t82.5 50q15 3 24 1q62 -14 -13 -235q-24 -71 -107 -281l-41 -104t-34 -93.5
t-26 -87.5t-10.5 -66t6 -50t29.5 -21q54 -10 184 152q205 251 397 594l18 35q18 34 26 47q6 15 19 10q12 -4 6 -16q-7 -20 -32 -77l-57 -129l-71.5 -162l-75 -177t-67.5 -174.5t-49 -153t-20 -113t20 -55.5q58 -27 221 166l100.5 122.5l88.5 114l99.5 133.5l88.5 118
q5 6 10 1q3 -1 3.5 -4.5t-1.5 -5.5z" />
    <glyph glyph-name="V" unicode="V" horiz-adv-x="710" 
d="M12 646q82 -22 40 -287q-13 -81 -78 -378q-60 -271 -49 -348q7 -51 41 -49h5q21 3 47.5 28t58.5 74l58 92t61.5 113.5l52.5 104l47 96.5q-41 31 -50 104.5t10.5 158.5t52.5 167.5t76 140.5t81 68q62 16 53 -83q-13 -152 -169 -500q-15 -36 -27 -60q54 -37 135.5 -14.5
t151.5 65t114 87.5l11 12q4 6 10 0q6 -4 0 -10q-55 -60 -132.5 -106.5t-153.5 -62.5q-89 -19 -143 15q-95 -198 -188.5 -347t-153.5 -158q-54 -7 -65 65q-16 93 48 389q65 300 73 343q42 239 -15 263q-2 1 -5 2q-8 2 -6 9q0 6 8 6zM303 106l25.5 54.5l34 75.5t40 93l39 97
t35 98t23 84t9 67.5t-12.5 38.5q-14 13 -37 -1t-40 -32q-47 -51 -95.5 -169t-62.5 -233t42 -173z" />
    <glyph glyph-name="W" unicode="W" horiz-adv-x="999" 
d="M1 724q64 25 82 -81q22 -132 -32 -536q-34 -256 -33 -292q0 -15 3 -20q9 6 18.5 15.5t16.5 18t17 23.5t14 21.5l14 23.5t12 20l57 98l67 125.5t53 100.5q3 6 15.5 4t9.5 -14q-1 -5 -10 -42.5t-16 -69.5l-18.5 -85t-18.5 -97l-15 -96.5t-9.5 -93.5t0.5 -77.5t12.5 -59
t27.5 -28.5q51 -17 155 162q59 102 169 337q-46 30 -57.5 104.5t7.5 161t52.5 170t77.5 142.5t82 69q23 6 37 -5q20 -15 20 -60.5t-16.5 -109.5t-38 -130.5t-50.5 -139l-48.5 -119l-37.5 -85.5q76 -40 198 15.5t193 128.5l11 12q5 5 10 1q6 -6 1 -11q-56 -60 -133.5 -106.5
t-152.5 -62.5q-81 -17 -133 9q-42 -92 -84 -173.5t-90.5 -161t-92.5 -124.5t-76 -40q-126 19 -9 555q5 24 16 66l-63 -120l-71 -127.5t-76 -118t-49 -41.5q-31 2 -7 231q5 47 17 150q40 341 34 449q-5 104 -43 104q-6 0 -13 -3q-7 -2 -10 4q-2 7 4 9zM598 95l24.5 55.5
l34 77t39 94l37.5 98.5t33 98.5t22 85.5t8 68t-13 39q-14 13 -37 -1t-40 -32q-50 -55 -98.5 -172.5t-61 -234.5t51.5 -176z" />
    <glyph glyph-name="X" unicode="X" horiz-adv-x="790" 
d="M827 223l-87 -116l-106 -141l-86.5 -110.5t-104.5 -125.5q-157 -179 -227 -166q-36 7 -50.5 53.5t-7.5 133.5t20 166.5t38 201.5l-142 -199.5l-148.5 -207t-79.5 -103.5l-4 -5q-58 -68 -66 -36q-1 5 1 20q0 8 8 6t6 -8t-2 -13q15 8 45 45q23 26 81 109l151.5 218
l161.5 230q61 300 67 397q7 118 -32 135q-36 15 -102 -45q-126 -114 -240 -404q-2 -6 -9 -4q-9 2 -4 9q32 82 70 160t98.5 163t117.5 120q47 28 75 15q29 -12 41 -55.5t6 -117t-17.5 -145.5t-32.5 -175q148 203 252 318t140 94q5 -5 2 -10q-4 -6 -10 -2q-14 8 -51.5 -25
t-95 -103l-115.5 -146.5l-134 -181.5q-62 -301 -73 -389q-23 -193 40 -204t211 161q47 53 103.5 124l87.5 111.5l104.5 139l88.5 117.5q4 7 10 1q7 -4 1 -10z" />
    <glyph glyph-name="Y" unicode="Y" horiz-adv-x="873" 
d="M323 -232l278 682q-91 -156 -220 -340q-237 -334 -319 -334q-102 -1 -35 224q27 95 137 365q95 237 99 304q3 40 -18 46q-24 6 -76 -35q-84 -68 -166 -193.5t-140 -250.5q-4 -6 -10 -3q-6 2 -3 9q31 70 70 137q33 58 79.5 127t113 140t112.5 82q17 5 28 0
q58 -22 -16 -237q-16 -46 -120 -310q-101 -257 -99 -336q2 -55 45 -55q73 1 306 329q176 251 276 436q9 24 29 72q4 10 21 10q6 -2 6 -5l-342 -838l31 22q318 229 511 421q5 5 10 0t0 -10q-147 -145 -315 -276q-6 -5 -247 -181l-120 -290q-57 -140 -93 -197
q-63 -101 -114 -83q-29 10 -37 51.5t-2.5 79t15.5 67.5q14 44 33 82t46 72t49.5 59t61.5 56l63.5 49zM202 -525l111 269l-83.5 -62t-71.5 -61t-67 -71.5t-48 -79.5t-38 -100q-6 -24 -9.5 -54t3.5 -64.5t31 -39.5q21 -4 43.5 14.5t44.5 58.5t35 68t31 75z" />
    <glyph glyph-name="Z" unicode="Z" horiz-adv-x="699" 
d="M163 -74q63 -6 23 -131l20 15q328 235 524 429q4 6 10 0q6 -4 0 -10q-117 -116 -239.5 -215t-285.5 -216l-39 -27q-133 -328 -159 -387l-11 -23.5l-15.5 -31.5t-20 -35l-23.5 -34.5t-25.5 -30t-27 -21.5t-27.5 -9t-27 8q-28 20 -30.5 71t9.5 94.5t27 77.5q20 44 47 84
t50.5 67.5t64 61t66 52.5l76.5 55q61 151 0 141q-76 -81 -122 -112q-19 -13 -24.5 -10t5.5 23q22 37 60 72t74 41q88 95 192.5 238t151.5 270q22 60 24 112.5t-15.5 90t-51.5 60.5t-82.5 23.5t-109.5 -20.5q-79 -29 -157.5 -106t-132.5 -166.5t-78 -171.5l-5 -22
q-2 -8 -9 -6t-5 9l5 23q39 133 146.5 269.5t227.5 182.5q66 23 121 24.5t94 -23t60 -63.5t19.5 -97t-27.5 -125q-27 -67 -73.5 -144t-101 -148t-94.5 -118.5zM141 -255q-61 -44 -97 -73t-79 -72t-72 -92t-48 -110q-38 -119 -10 -163q22 -33 67 7q50 44 97 156zM121 -98
q-49 -22 -90 -82q37 28 90 82z" />
    <glyph glyph-name="bracketleft" unicode="[" horiz-adv-x="288" 
d="M311 445q-4 -6 -19.5 -6t-35.5 2t-27 1q-38 -83 -105.5 -243l-100.5 -234q-2 -2 -11 -21t-7 -20q7 -5 26 -4.5t26 4.5q0 6 7 4q7 0 7 -5q-1 -15 -44 -15q-16 0 -28 4q-19 10 -8 36l52 125l84.5 200.5t80.5 174.5q3 6 28 6q9 0 32.5 -2t30.5 -1q3 3 8 1q6 -1 4 -7z" />
    <glyph glyph-name="backslash" unicode="\" horiz-adv-x="328" 
d="M6 581q-2 3 5 6q16 4 21 -3q20 -43 106 -268t133 -300q1 1 2 1q7 0 7 -6q0 -4 -1 -6q-8 -11 -36 38.5t-65.5 133l-72 165l-65 156t-34.5 83.5z" />
    <glyph glyph-name="bracketright" unicode="]" horiz-adv-x="333" 
d="M-15 -83q4 6 19.5 6t35.5 -2t27 -1q38 83 105.5 243l100.5 234q2 2 11 21t7 20q-7 5 -26 4.5t-26 -4.5q0 -6 -7 -4q-7 0 -7 5q1 15 44 15q16 0 28 -4q19 -10 8 -36l-52 -125l-84.5 -200.5t-80.5 -174.5q-3 -6 -28 -6q-9 0 -32.5 2t-30.5 1q-3 -3 -8 -1q-6 1 -4 7z" />
    <glyph glyph-name="asciicircum" unicode="^" horiz-adv-x="247" 
d="M102 344l-19 72q-1 -5 -18 -71q-2 -7 -9 -5q-7 0 -5 8l15 58l2.5 12t4 16t6.5 13.5t9 0.5q4 -4 28 -101q2 -6 -6 -8q-6 -3 -8 5z" />
    <glyph glyph-name="underscore" unicode="_" horiz-adv-x="533" 
d="M49 -154l348 -2q1 0 3 -7q0 -7 -3 -7q-272 0 -348 2q-3 0 -3 7t3 7z" />
    <glyph glyph-name="grave" unicode="`" horiz-adv-x="201" 
d="M81 598q5 16 17 5q35 -35 24 -42q-4 -3 -9.5 3.5l-12.5 15t-13 9.5q-8 2 -6 9z" />
    <glyph glyph-name="a" unicode="a" horiz-adv-x="391" 
d="M128 161q13 18 17 22q5 8 19 5t7 -21q-2 -4 -13 -29q-87 -189 -48 -189q13 1 29.5 9.5t36 23.5t38.5 32t42 41l40.5 42.5t39 44l33 39l28 33.5t18.5 22q4 5 10 1q5 -5 1 -10q-123 -148 -184 -207q-91 -87 -135 -86q-16 0 -25.5 8t-10.5 22.5t1 29.5t9 35.5l12 34.5t13 32
t10 22q-109 -154 -165 -108q-15 13 -17 42t8.5 62t28 64t43 51.5t51.5 21.5q41 1 54 -27t9 -63zM111 138q1 17 1.5 40t-12 40t-36.5 10q-30 -9 -61.5 -52.5t-42.5 -85t2 -65.5q32 -38 149 113z" />
    <glyph glyph-name="b" unicode="b" 
d="M299 709q28 -6 29.5 -36t-22.5 -77.5t-54.5 -96.5t-75 -108.5l-74.5 -97.5l-64 -78q-1 -3 -3.5 -9t-7.5 -17t-9 -21q24 36 48 55t42 20.5t31.5 -10t19 -32t2 -50t-17.5 -59.5l91.5 69t101.5 78q6 4 10 -2q3 -6 -3 -10l-208 -159q-30 -57 -79 -101.5t-76 -28.5
q-4 3 -4.5 7.5t3.5 11t10 13.5t16 16l19 17t21.5 18l22.5 18l22.5 18l20.5 16q40 96 17 135q-19 31 -64 -5q-33 -27 -68 -85q-45 -106 -47 -111q-3 -7 -18 -5q-7 2 -5 6q7 17 29.5 76.5l45.5 119.5l55 137t63 141t63 119.5t62.5 84.5t54.5 23zM54 258l23.5 29.5l40.5 51
l51.5 68l52 73.5t47.5 75.5t32.5 65.5t12.5 51t-17 25q-15 5 -35.5 -14.5t-42.5 -57.5t-44 -82t-43.5 -94l-37 -88l-27.5 -70t-13 -33zM94 40l-50 -41t-38.5 -33t-17.5 -16q43 -3 106 90z" />
    <glyph glyph-name="c" unicode="c" horiz-adv-x="316" 
d="M79 200q12 13 10 25t-20 9q-28 -4 -52 -40q-26 -42 -31.5 -93t19.5 -77t98 9q89 47 240 205q6 4 10 0q5 -5 0 -10q-145 -156 -244 -207q-76 -38 -118.5 -7t-26.5 111q9 51 35.5 90.5t68.5 35.5q29 -3 35 -20.5t-13 -40.5q-5 -5 -10.5 0t-0.5 10z" />
    <glyph glyph-name="d" unicode="d" horiz-adv-x="420" 
d="M149 191l7 18q123 329 203 435q49 64 85 56q28 -6 29.5 -36t-22.5 -77.5t-54.5 -96.5t-75 -108.5l-74.5 -97.5l-64 -78l-10.5 -29.5t-16.5 -49t-18 -61.5t-12 -57t-1.5 -46t16.5 -18q16 -1 49 24t74.5 67.5l73.5 77l69.5 78t38.5 44.5q5 5 11 1q4 -6 0 -10l-36 -42
l-54 -61.5l-59 -63.5t-63 -62.5t-55 -44t-45 -21.5q-6 -2 -12 0q-18 2 -25.5 22.5t-4 53.5t11 66t18.5 70q-146 -192 -191 -129q-17 21 -10 60.5t24.5 78.5t48.5 68.5t61 30.5q40 1 53 -26.5t10 -62.5zM199 248l24 29l40 51l51 68.5l52 74t47.5 75t33 65.5t12.5 51t-17 26
q-66 22 -243 -440zM112 141v3q1 18 1 40.5t-12.5 38.5t-35.5 9q-44 -14 -86 -93.5t-22 -112.5q15 -26 59 11.5t96 103.5z" />
    <glyph glyph-name="e" unicode="e" horiz-adv-x="313" 
d="M-7 149q-25 -74 -1 -112q38 -59 167 35q44 32 97 82q29 27 85 85q4 6 10 0q5 -5 0 -10q-153 -160 -244 -207q-79 -37 -114 -11t-35 84t31 107q19 28 38 39q21 10 39 10t29 -9t8 -20q-12 -43 -110 -73zM0 166q73 24 89 58q5 11 -12 12q-24 2 -44 -19q-19 -19 -33 -51z" />
    <glyph glyph-name="f" unicode="f" horiz-adv-x="228" 
d="M45 233q55 46 109.5 123.5t74.5 140.5q5 10 4 31.5t-20 16.5q-25 -7 -75.5 -84.5t-98.5 -178.5q-83 -178 -126 -293q-14 -37 -31 -89t-40.5 -139.5t-19.5 -144.5t42 -55q44 2 76.5 82t45 159.5t12.5 127.5q0 45 -8 70q19 3 48.5 22t64.5 49.5l62.5 56l61.5 59l42 41.5
q5 5 0 10.5t-10 0.5l-20 -19l-38.5 -37.5l-47 -44l-53 -48t-49 -40.5t-42 -29t-25.5 -8q-5 8 -11 8q-3 0 -5 -3.5t-0.5 -8.5t6.5 -7q2 -3 4 -9q17 -60 -8 -192t-61 -190q-8 -11 -17.5 -20t-20 -14t-19 1t-11.5 23q-14 70 48.5 251t155.5 381zM61 268q55 117 93 180
q40 67 59 81q13 9 2 -28q-17 -53 -61 -119.5t-93 -113.5z" />
    <glyph glyph-name="g" unicode="g" 
d="M143 188l15 44q2 10 20 7q8 -2 8 -6q-24 -76 -70 -189l79 59.5t67.5 57.5t76.5 78q5 5 11 1q5 -5 0 -10l-15 -19q-18 -20 -39 -40l-34.5 -33t-41.5 -34.5l-35.5 -27.5t-42 -31.5t-37.5 -27.5l-46 -114q-57 -142 -106 -225q-63 -107 -120 -110q-38 -2 -50 43
q-16 59 26 138q31 57 75.5 107t83 81.5t90.5 70.5l21 15q14 33 42 105q-1 -1 -3.5 -4.5t-4.5 -4.5q-109 -155 -165 -108q-15 13 -17 42t8.5 62.5t28 64.5t43 52t51.5 21q41 1 53.5 -27t9.5 -64l15 21zM31 -96l38 92l-28.5 -21.5t-31 -23t-28.5 -22t-30.5 -26t-27.5 -25.5
t-29 -30l-24.5 -31t-26 -36.5t-21.5 -38.5q-42 -82 -23 -132q14 -37 51 -22q42 17 85 98q16 29 33 67l28 64l22.5 55.5t12.5 31.5zM107 139q2 19 2 42.5t-12.5 39.5t-35.5 10q-46 -14 -86 -95.5t-16 -110.5q33 -37 148 114z" />
    <glyph glyph-name="h" unicode="h" horiz-adv-x="412" 
d="M303 710q28 -6 29.5 -36t-22.5 -77.5t-54 -96t-74.5 -108l-75 -97.5l-63.5 -78q-61 -140 -90 -218q153 225 213 186q31 -21 8 -98q-16 -55 -14 -64q2 -11 16 -8l19 4q25 8 62 38t65 58l67 70t50 53q4 6 10 0q5 -4 1 -10q-8 -7 -54.5 -56.5t-78.5 -80.5t-76 -61t-71 -29
q-26 1 -30 26.5t6.5 57t15 58.5t-5.5 31q-21 7 -52.5 -17t-65.5 -67t-54.5 -72t-38.5 -58q0 -4 -17 -17.5t-22 -2.5q-2 5 48 133q130 342 203 478q92 171 146 159zM58 258q318 398 248 438q-3 1 -5 2q-12 4 -27 -7.5t-31.5 -35t-34 -54t-35 -68l-33 -72.5l-30.5 -71.5
l-25 -62l-18 -46.5t-9 -23z" />
    <glyph glyph-name="i" unicode="i" horiz-adv-x="248" 
d="M46 230q-1 -8 -16 -56q-47 -146 -29 -159q2 -2 7 -1l19 4q73 24 244 219q4 6 10 0q5 -4 1 -10q-201 -230 -280 -227q-14 1 -21 12t-7 29t4 40t11 46l13.5 44.5l12.5 38.5t7 25q1 4 7 4.5t11.5 -2.5t5.5 -7zM64 290q-1 -4 -7 -23q-12 0 -17.5 6.5t-1.5 16.5q2 7 2.5 10
t1.5 5q1 8 14 -1q9 -6 8 -14z" />
    <glyph glyph-name="j" unicode="j" horiz-adv-x="180" 
d="M52 232l-71 -189l79 59t69 58.5t76 77.5q4 7 10 1q7 -4 1 -10l-16 -18l-22.5 -24.5l-21 -22t-24 -22t-22 -19.5t-24 -19.5t-22 -17.5t-24 -18.5l-22.5 -16.5t-24.5 -17.5t-22.5 -16.5l-47 -115q-66 -159 -105 -225q-62 -106 -119 -110q-39 -3 -52 43q-16 59 26 138
q12 22 24.5 41.5t28.5 39l27 33t32 32t29.5 27t33.5 28l30.5 24t34 26t31.5 23.5q15 37 78 210q1 4 9 6t14.5 0t5.5 -6zM-104 -97l38 93q-2 -1 -32 -24l-35 -27l-31.5 -25t-35 -30.5t-29.5 -30t-32 -36l-25.5 -37.5t-26.5 -45q-22 -42 -27 -80t6 -56.5t30 -22t48 23.5t57 79
q44 82 95 218zM67 288q-1 -4 -7 -23q-12 0 -17.5 6.5t-1.5 16.5l4 14q1 8 14 0q9 -6 8 -14z" />
    <glyph glyph-name="k" unicode="k" horiz-adv-x="384" 
d="M300 710q28 -6 29.5 -36.5t-22 -77t-54 -96t-74.5 -107.5l-75.5 -97.5l-63.5 -78.5q-73 -173 -84 -204q117 180 211 224q29 14 39 0q10 -16 -25 -47q-18 -16 -69 -50q4 0 10 -4q16 -11 19.5 -28.5t-1.5 -34l-10 -31.5t-2.5 -22.5t17.5 -4.5l18 4q33 11 76 48t104 101.5
t65 68.5q4 7 10 1q5 -4 1 -10q-8 -8 -54 -57t-78.5 -80.5t-76.5 -61t-71 -28.5q-26 1 -32 19t2 40t10.5 41.5t-7.5 23.5q-21 6 -53 -18l8 23l12 6q116 76 114 92q-3 4 -20 -4q-54 -26 -116.5 -100t-108.5 -151l-6 -14l-2.5 -2.5t-5.5 -6t-8.5 -7.5l-9 -6t-8 -2t-5.5 5
q-2 6 49 133l45.5 119l53.5 135t65.5 148.5t63.5 119.5t65.5 91.5t54.5 23.5zM56 258q317 396 247 438q-2 1 -5 2q-17 6 -41.5 -20t-52 -78.5t-50 -100t-48 -112l-33 -84z" />
    <glyph glyph-name="l" unicode="l" horiz-adv-x="277" 
d="M45 223l-10 -27.5l-18 -52t-19 -64.5t-13 -61.5t-1 -48.5t17 -20q49 -5 207 177q53 59 93 109q5 5 10 1q6 -6 1 -11l-22.5 -27l-29 -34.5l-31.5 -36.5l-35.5 -40l-35 -38t-37 -37l-33.5 -30.5t-32 -25.5t-27 -15q-17 -7 -31 -7q-22 1 -31.5 21.5t-6.5 55t11 69t20 72.5
q29 90 65.5 184.5t93 200t105.5 144.5q29 25 55 15.5t20 -48.5q-12 -78 -103.5 -203t-181.5 -222zM59 260q87 96 166.5 208.5t90.5 181.5q4 29 -14 33.5t-38 -13.5q-31 -25 -70.5 -99t-68 -142t-58.5 -147q-5 -15 -8 -22z" />
    <glyph glyph-name="m" unicode="m" horiz-adv-x="537" 
d="M49 237q-68 -160 -94 -226q22 35 40.5 61.5t42.5 57.5t46 48t38 17q53 -1 7 -156q99 97 136 91q25 -4 26.5 -32.5t-7.5 -52t2 -30.5q12 -2 32 6q78 29 244 216q6 6 11 1q4 -6 0 -10q-183 -210 -268 -225q-15 -3 -22 -2q-19 2 -23.5 20t1.5 38.5t7 38t-8 18.5
q-30 3 -127 -94l-4 -3q-4 -3 -8.5 -5.5t-9.5 -5t-9.5 -2t-5.5 4.5q-1 3 4 21.5l12 42.5t12.5 48t5 40.5t-9.5 17.5q-29 1 -96 -92q-1 -2 -27 -42.5l-47.5 -73t-24.5 -33.5q-9 -3 -15 6t-4 14q13 34 116 283q2 4 9.5 4.5t13 -3t4.5 -7.5z" />
    <glyph glyph-name="n" unicode="n" horiz-adv-x="414" 
d="M51 232q-77 -183 -95 -233q150 225 212 186q31 -21 8 -98q-16 -56 -14 -65q2 -11 16 -8q12 2 19 5q25 8 62.5 38t64 57l67.5 70.5l50 52.5q5 5 10 1q5 -5 1 -10q-8 -8 -54 -57t-78.5 -80.5t-76.5 -61.5t-71 -29q-26 1 -29.5 27t7 57t14.5 58.5t-6 31.5q-21 7 -52.5 -17
t-65 -66.5t-55 -73.5t-38.5 -58l-2.5 -2.5t-5.5 -6t-8.5 -7.5l-9 -6t-8 -2t-5.5 5q-3 6 46 127l70 170q3 9 20 3q9 -3 7 -8z" />
    <glyph glyph-name="o" unicode="o" horiz-adv-x="249" 
d="M61 225q-23 5 -54 -54q-38 -71 -33 -122q3 -31 26 -35q28 -5 58.5 28.5t48 76t16.5 68.5q-37 14 -47 38q-7 18 14 18h2q37 -1 44 -45q70 -16 136 40q6 4 10 -2q6 -6 1 -10q-15 -12 -26 -19q-62 -37 -120 -24q1 -30 -19 -75.5t-55 -80t-69 -25.5q-49 12 -39 93
q9 73 49 123q32 39 58 24q7 -3 6 -12q-1 -6 -7 -5zM121 203q-5 25 -27 26q-5 0 -5 -2q0 -10 25 -21q3 -2 7 -3z" />
    <glyph glyph-name="p" unicode="p" horiz-adv-x="319" 
d="M48 234l-28 -80q70 87 120 86q37 0 44 -28t-11 -66q36 20 177 93q6 4 10 -2q3 -6 -3 -10q-186 -98 -195 -104q-29 -55 -74 -94t-75 -26q-35 16 88 97l41 28q37 81 0 94q-21 9 -62 -25.5t-78 -89.5l-81 -202q-58 -145 -106 -226q-63 -107 -120 -110q-38 -2 -50 43
q-16 59 26 138q12 22 24.5 41.5t28.5 39l27 33t31.5 32.5l29.5 27.5t33.5 27.5t30.5 24t33.5 25.5l31.5 23.5q55 135 79 210q3 9 21 6q7 -2 7 -6zM-107 -94l38 92q-5 -4 -32 -24t-35 -26.5l-31.5 -25.5t-34 -29.5l-30 -30.5t-31.5 -36t-26.5 -38t-26.5 -45q-41 -81 -23 -131
q14 -38 51 -23q42 18 86 99q16 29 33 66.5t27.5 64l22 55t12.5 32.5zM123 98q-93 -65 -102 -83q41 -3 102 83z" />
    <glyph glyph-name="q" unicode="q" horiz-adv-x="373" 
d="M183 235q-27 -57 -117 -221t-135.5 -269t-36.5 -155q4 -17 12.5 -23t18.5 -1t20 14t17 20q55 86 110.5 209.5t39.5 177.5q-2 6 -4 9q-5 2 -6 7t1 8.5t5 3.5q6 0 11 -8q13 -3 51 25q19 13 43.5 33.5l47 40.5l47.5 43t41 39l32.5 31.5t17.5 16.5q3 5 10 0q4 -6 -1 -11
l-50.5 -48.5l-65.5 -62.5t-53.5 -47t-62.5 -48q-31 -21 -52 -25q11 -35 4 -70q-5 -41 -41 -128t-85.5 -165t-83.5 -81q-102 -8 20 263q71 157 152 285q5 7 8 12q-103 -145 -159 -99q-15 13 -17 41.5t8.5 60.5t28 62t43 50t51.5 21q41 1 54 -24.5t9 -59.5q3 3 6.5 8l5.5 8
t4 5l23 53q6 4 15.5 3t12.5 -4zM99 139q1 17 1.5 39t-12.5 37t-37 8q-46 -14 -85.5 -91.5t-14.5 -106.5q32 -38 148 114z" />
    <glyph glyph-name="r" unicode="r" horiz-adv-x="319" 
d="M75 115q-15 -33 -22.5 -52.5t-18.5 -51t-9 -47t16 -14.5q11 1 26.5 8.5t31 18.5t35 28.5l36 33.5l38 38.5t35.5 38.5l34 39l29 33.5l24 29t16 19.5q4 7 10 1q5 -4 1 -10q-137 -165 -209 -229q-73 -64 -111 -64q-16 0 -25 8t-10 22.5t0.5 29.5t9 36l12.5 34t13.5 32
t9.5 22q11 24 14 41t-4 30.5t-15.5 22t-28.5 24.5q-9 7 -10.5 17t2 19l8.5 22t6 23q2 19 28 2q9 -6 14 -13q18 -27 -17 -71q32 -20 39.5 -54t-8.5 -67z" />
    <glyph glyph-name="s" unicode="s" horiz-adv-x="202" 
d="M56 141q1 31 -20 61.5t-21 53.5q0 21 16 39.5t35 6.5q13 -6 8 -22.5t-13.5 -29.5t-16.5 -21v-1q33 -30 36 -73l1 1q21 15 46.5 29t57.5 30l44 22q7 3 10 0q7 -7 0 -11q-88 -39 -158 -86q-6 -46 -46.5 -97t-83 -78t-55.5 -14q-27 26 12 72t148 118zM54 122
q-74 -51 -122 -96.5t-28 -61.5q18 -13 80 53.5t70 104.5zM42 248q23 30 17 42q-11 5 -15.5 -11t-1.5 -31z" />
    <glyph glyph-name="t" unicode="t" horiz-adv-x="245" 
d="M93 412q2 5 11 6t15 -4.5t1 -17.5l-22 -52l6 -1q1 0 27.5 -1.5t40.5 -1.5q7 -2 7 -8q0 -7 -8 -7q-28 3 -79 4l-92 -220q-43 -107 -47 -130q-6 -31 12 -30q13 1 29.5 9.5t36 23.5t38.5 32t42 41l40.5 42.5t39 44l33 39l28 33.5t18.5 22q4 5 10 1q5 -5 1 -11l-22 -26.5
l-31 -36.5l-35.5 -41t-40.5 -45l-41 -42.5t-42.5 -40l-39 -31.5t-37 -22t-30.5 -7q-11 0 -18.5 5t-10 14.5t-3 20t2 25t5.5 26.5t8.5 28l9 25.5t9 23t6.5 16.5q2 4 16 37.5l36 88l36 87.5q-57 2 -66 1q0 -1 -1 -1q-4 -7 -10 -1q-17 15 26 17q22 1 57 -1q25 61 28 66z" />
    <glyph glyph-name="u" unicode="u" horiz-adv-x="386" 
d="M51 234q-1 -8 -11 -33.5l-21 -53t-21 -58.5t-11 -49.5t11 -24.5q18 -6 47 25t51.5 68t41.5 75q1 4 9 4q18 2 18 -7l-30 -71q-45 -117 -45 -143q1 -18 14 -17t29.5 9.5t36 23.5t38.5 32t42 41l40.5 42.5t39 44l33 39l28 33.5t18.5 22q5 6 11 0q5 -4 1 -10q-3 -4 -22 -26.5
l-31 -37l-35 -41t-41 -45l-41.5 -42.5t-42.5 -40t-39 -31t-37.5 -22.5t-30.5 -7.5q-60 2 -6 143q-57 -87 -103 -75q-19 4 -23.5 26t3 53.5t18 61.5l21.5 59t13 38q0 4 7 4t13.5 -2.5t6.5 -6.5z" />
    <glyph glyph-name="v" unicode="v" horiz-adv-x="309" 
d="M133 178q-27 20 -20 49q5 22 22 18q2 0 3 -1q13 -4 16 -20t-5 -39q29 -15 87 1q50 13 96 49q5 5 11 -1q4 -5 -1 -10q-85 -66 -171 -59q-13 0 -25 5l-1 1q-53 -109 -79 -140q-33 -37 -64 -30q-19 5 -25 26.5t-0.5 53t14 61t18 59t11.5 37.5q1 4 7.5 4t12.5 -3t6 -7
q-1 -7 -9.5 -32.5l-17.5 -54t-16.5 -57.5t-7 -49.5t12.5 -23.5q13 -4 30.5 10.5t35.5 43.5t31 53.5zM139 192q4 17 1 28.5t-9 11.5q-2 -1 -3.5 -7.5t1 -16t10.5 -16.5z" />
    <glyph glyph-name="w" unicode="w" horiz-adv-x="430" 
d="M161 187q0 -4 -4 -31t-8.5 -60.5t-7.5 -67.5t-1.5 -56.5t9.5 -22.5q17 0 57 96.5t49 132.5q-26 20 -19 51q4 21 18 18q3 0 6 -2q20 -12 11 -60q28 -14 87 1q53 14 96 50q7 3 11 -1q4 -6 -1 -10q-83 -66 -170 -60q-16 2 -26 6q-10 -42 -51.5 -138t-66.5 -99
q-16 -2 -23.5 18.5t-6.5 58.5t3.5 67t7.5 66q-36 -74 -66 -112t-64 -30q-19 5 -25 26.5t0 52.5t14.5 60.5t18.5 59t12 38.5q1 6 14.5 3.5t12.5 -8.5q-1 -7 -9.5 -32.5l-18.5 -54t-18 -57.5t-7.5 -50t12.5 -24q14 -4 31.5 11t36.5 46t31.5 54.5t28.5 56.5q0 5 6.5 7.5t13 1.5
t6.5 -6zM258 195q5 29 -5 37v1q-2 -1 -3.5 -7t0.5 -15t8 -16z" />
    <glyph glyph-name="x" unicode="x" horiz-adv-x="320" 
d="M207 221q-14 3 -126 -101l-3 -6q-45 -107 -50 -134q-3 -31 14 -31q13 1 29.5 9.5t36 23.5t38.5 32t42 41l40.5 42.5t39 44l33 39l28 33.5t18.5 22q4 7 10 1q5 -4 1 -10q-128 -154 -193 -215q-84 -79 -126 -78q-66 1 -12 136q-25 -23 -76 -46.5t-86 -23.5q-8 0 -6 8
q0 8 8 6q23 -1 85 29.5t89 57.5q24 55 20 90.5t-40 28.5q-6 -1 -3 10q2 8 7 9q47 2 60.5 -20t3.5 -70q98 91 124 86q6 -4 4 -10q-4 -6 -10 -4z" />
    <glyph glyph-name="y" unicode="y" horiz-adv-x="308" 
d="M53 233q-1 -8 -10.5 -33t-21 -52.5t-21 -58.5t-10.5 -49t11 -24q26 -8 66 47t71 120l18 49q3 9 21 7q7 -2 7 -6q-42 -121 -70 -189l77.5 58t70.5 60t76 77q4 5 10 1q5 -5 1 -10l-16 -19q-18 -20 -39 -40l-34.5 -33t-41.5 -34.5l-35.5 -27.5t-42 -31.5t-37.5 -27.5
l-46 -114q-57 -142 -106 -225q-63 -107 -120 -110q-38 -2 -50 44q-16 58 26 136q11 20 23.5 39l22.5 33.5t26.5 32.5l25.5 28t29 27.5t27 24.5t30 24.5t27.5 21.5t30 23t28.5 21l26 64q-59 -97 -108 -85q-19 5 -23.5 26.5t3 52.5t17.5 60.5t21 58.5t13 38q1 6 14.5 3.5
t12.5 -8.5zM29 -96l38 92l-25.5 -19l-27.5 -20.5l-26 -20t-27.5 -22.5l-25 -22.5t-26.5 -25.5l-23.5 -26.5t-24 -30.5l-21 -31.5t-20.5 -35.5q-22 -42 -27 -80t6 -56.5t30 -22t48 23.5t57 79q16 29 33 66.5t27.5 64.5l22 55.5t12.5 31.5z" />
    <glyph glyph-name="z" unicode="z" horiz-adv-x="363" 
d="M168 44l79 59.5t68 58t77 78.5q4 6 10 0q5 -4 1 -10l-16 -18q-18 -20 -38.5 -40l-35.5 -34t-40.5 -33.5l-37 -28.5t-41 -30.5l-37.5 -27.5l-46 -114q-57 -142 -106 -226q-63 -106 -120 -110q-38 -2 -50 44q-16 59 26 137q12 22 24.5 41.5t28.5 39l27 33t31.5 32.5
l29.5 27.5t33.5 27.5t30.5 24t33.5 25.5l31.5 23.5q13 34 13 56t-9.5 29.5t-24 6.5t-32.5 -11l-17 -24q-20 -27 -45.5 -56.5t-63.5 -61t-59 -28.5q-10 1 -11 7q-4 21 58 77.5t100 77.5q80 117 97 158q12 30 7 44q-3 9 -10.5 10t-17.5 -5.5t-20.5 -14.5t-22.5 -20.5
l-20 -21.5l-16 -18l-8 -10q-5 -3 -10 0q-5 6 0 11q1 1 11 13t18 20.5l21 22t24.5 21t23.5 13t21.5 3t16.5 -13.5q26 -43 -63 -183q40 16 65 -4.5t8 -78.5q2 2 3 2zM83 -95l38 92l-26 -19t-27.5 -20.5l-25.5 -20t-27.5 -22.5l-25 -22.5t-26.5 -25.5l-23.5 -26.5t-24 -30.5
l-21 -32t-20.5 -36q-41 -80 -23 -131q14 -38 51 -22q42 17 86 98q16 29 33 66.5t27.5 64.5l22 55.5t12.5 31.5zM20 67q-34 -22 -73.5 -58.5t-47.5 -60.5q12 1 25 9.5t28.5 25.5l24 27t25.5 33t18 24z" />
    <glyph glyph-name="braceleft" unicode="{" horiz-adv-x="285" 
d="M273 446q-36 -2 -57.5 -25t-31.5 -54l-20.5 -62.5t-35.5 -54.5t-66 -25q35 -31 37 -71.5t-16 -74t-37 -72.5t-18 -61q0 -13 8 -16q6 -2 24 0q7 0 9 -5t-6 -7q-48 -5 -49 28q-1 19 28 94t33 101q3 26 -2 44t-13 25t-16.5 12.5t-9.5 7.5q-1 3 0 5t4 2h5.5t5.5 -0.5t4 -0.5
q11 -1 20.5 1.5t16.5 6.5t14.5 12t12 14t10 17l8 16t7 16.5t5.5 13.5q1 3 6.5 16.5t7.5 17t8 16t9 17t10 14t12 14t13.5 11.5t17 10t19.5 5.5t23 3.5q7 0 7 -6t-7 -6z" />
    <glyph glyph-name="bar" unicode="|" horiz-adv-x="235" 
d="M85 504q-1 8 16 1q8 -5 9 -9q1 -59 -7 -197t-11.5 -227.5t5.5 -191.5h2q6 -4 4 -8t-4 -5q-30 -18 -19 430q1 49 3 130q2 66 2 77z" />
    <glyph glyph-name="braceright" unicode="}" horiz-adv-x="298" 
d="M19 -73q36 2 57.5 25t31.5 54l20.5 62.5t35.5 54.5t66 25q-35 31 -37 71.5t16 74t37 72.5t18 61q0 13 -8 16q-6 2 -24 0q-7 0 -9 5t6 7q48 5 49 -28q1 -19 -28 -94t-33 -101q-3 -26 2 -44t13 -25t16.5 -12.5t9.5 -7.5q1 -3 0 -5t-4 -2h-5.5t-5.5 0.5t-4 0.5
q-11 1 -20.5 -1.5t-16.5 -6.5t-14.5 -12t-12 -14t-10 -17l-8 -16t-7 -16.5t-5.5 -13.5q-1 -3 -6.5 -16.5t-7.5 -17t-8 -16t-9 -17t-10 -14t-12 -14t-13.5 -11.5t-17 -10t-19.5 -5.5t-23 -3.5q-7 0 -7 6t7 6z" />
    <glyph glyph-name="asciitilde" unicode="~" horiz-adv-x="321" 
d="M90 213q9 20 30.5 17.5t37 -11t26.5 5.5q2 7 9 3q8 -2 4 -9q-12 -24 -50 -10.5t-44 -1.5q-1 -6 -9 -4q-7 4 -4 10z" />
    <glyph glyph-name="exclamdown" unicode="&#xa1;" horiz-adv-x="262" 
d="M-12 -91q4 9 31.5 75.5l57 135.5l62.5 141t57.5 113t32.5 30q1 -2 1 -6q0 -6 -7 -6q-1 0 -2 1q-47 -75 -116.5 -259t-90.5 -228q-3 -7 -20 -3q-6 3 -6 6zM255 483h-4q-1 0 -2 1l-1 1q-8 9 -3 15q8 14 20 5q12 -8 3 -17q-4 -4 -13 -5z" />
    <glyph glyph-name="cent" unicode="&#xa2;" horiz-adv-x="316" 
d="M48 394q-1 6 12 1q9 -4 9 -8q0 -51 -5 -136h4q29 -3 35 -20.5t-13 -40.5q-5 -5 -10.5 0t-0.5 10q12 13 10 25t-20 9q-2 -1 -6 -1q-10 -143 -11 -219q23 5 51 19q89 47 240 205q6 4 10 0q5 -5 0 -10q-145 -156 -244 -207q-29 -15 -57 -20q-2 -74 6 -127h1q6 -4 4 -7l-4 -4
q-16 -9 -18 137q-46 -2 -67.5 32t-9.5 93q8 42 28.5 78.5t51.5 45.5q4 142 4 145zM17 194q-15 -25 -24 -56.5t-9 -59.5t14.5 -47t42.5 -18q-1 94 2 209q-13 -9 -26 -28z" />
    <glyph glyph-name="sterling" unicode="&#xa3;" horiz-adv-x="569" 
d="M86 113l32 -1q234 571 185 608q-21 16 -81 -33q-84 -68 -166.5 -193.5t-139.5 -250.5q-4 -6 -10 -3q-7 2 -3 9q27 63 70 138q23 40 56 90t76.5 107.5t90.5 100t82 50.5q17 4 29 0q82 -29 -158 -623l53 -1q1 0 3 -7q0 -7 -3 -7h-59q-141 -346 -213 -487l666 626q6 4 10 -1
q5 -5 0 -10l-685 -643q-8 -8 -25 -13q-8 -2 -8 4q1 1 1 2q3 8 35.5 82.5l87 201.5l100.5 239q-4 0 -13 0.5t-13 0.5q-3 0 -3 7t3 7z" />
    <glyph glyph-name="currency" unicode="&#xa4;" horiz-adv-x="833" 
d="M36 184q-1 25 11 42l-9 8q-2 3 3 9q6 6 8 3l9 -8q16 12 36.5 12.5t35.5 -10.5l8 7q2 2 8 -3q6 -6 3 -8l-7 -8q10 -14 9 -39q-1 -16 -10 -30l9 -9q2 -2 -3 -8q-4 -6 -8 -4l-9 9q-16 -13 -36.5 -13.5t-35.5 10.5l-7 -7q-3 -1 -9 3q-6 6 -3 8l7 7q-9 14 -10 29zM69 227l2 -2
q-7 -5 -11 -12l-2 2q-8 -12 -7 -29q1 -12 7 -20l2 3q5 -8 11 -11l-2 -3q25 -15 50 3l-2 2q7 5 10 11l2 -2q5 8 7 21q1 14 -6 27l-2 -2q-3 5 -11 11l2 2q-23 17 -50 -1z" />
    <glyph glyph-name="yen" unicode="&#xa5;" horiz-adv-x="299" 
d="M139 221h32q2 0 2 -5l-1 -5h-37l-11 -27h34q2 -2 2 -5l-2 -5h-38q-47 -112 -66 -141q-28 -41 -50 -34q-14 5 -17.5 24.5t-1 37t7.5 31.5q9 26 21 49q4 -2 5 -4q-16 -27 -23 -58q-5 -11 -4.5 -41t16.5 -34q10 -2 20.5 7t22.5 32l19 37.5t21 50l17 43.5q-6 0 -16 0.5
t-15 0.5q-2 0 -2 5t2 5l35 -1l11 27q-6 0 -17 0.5t-16 0.5q-1 2 -1 5l1 5l37 -1l149 365q-57 -95 -104 -160q-90 -126 -129 -150q-12 -7 -20 -7q-56 0 -4 147q13 36 44 111q57 141 54 170q0 6 -3 10v4t1 4q27 -15 -27 -156q-7 -20 -24 -61q-62 -154 -62 -194q0 -28 21 -28
q23 1 69 56t75 99q93 136 130 204l14 34q1 6 10 5l2 -2z" />
    <glyph glyph-name="section" unicode="&#xa7;" horiz-adv-x="425" 
d="M360 288q37 68 4 111q-25 33 -67 21q-41 -12 -64 -65q-17 -42 -17.5 -101.5t8 -111t5.5 -111.5t-25 -102q-18 -37 -52 -46l-6 -12q-26 -50 -77 -47q-46 1 -68 42q-30 54 17 129q1 3 4.5 3.5t5.5 -1.5q7 -4 1 -10q-45 -73 -11 -120q24 -34 65 -27q33 5 51 36
q15 26 15.5 82t-4.5 116t-5 121t20.5 109.5t65.5 68.5q30 61 85 64q47 2 71 -38q29 -49 -9 -119q-4 -6 -10 -2q-6 3 -3 10zM160 -98q18 9 32 32q15 26 16 79.5t-5 107.5t-4 120t18 111q-32 -23 -46 -66t-11.5 -91t6 -103t6 -102t-11.5 -88z" />
    <glyph glyph-name="dieresis" unicode="&#xa8;" horiz-adv-x="196" 
d="M77 572h2q1 0 1 -1h2q4 -6 2 -11q-6 -10 -14 -3q-10 7 -1 12q3 2 8 3zM113 572h2q1 0 1 -1h2q4 -6 2 -11q-6 -10 -14 -3q-10 7 -1 12q3 2 8 3z" />
    <glyph glyph-name="copyright" unicode="&#xa9;" horiz-adv-x="601" 
d="M276 637q126 6 193 -99q58 -92 44 -213q-16 -123 -98 -187q-63 -48 -152 -44q-79 4 -132.5 44.5t-73.5 99.5t-14.5 127.5t33.5 127.5t81 100t119 44zM280 612q-60 0 -107.5 -36t-73 -90t-30 -117t13 -118t65 -93t116.5 -42q118 -7 181 95q55 89 40 202q-15 115 -93 168
q-48 33 -112 31zM228 471h-1q10 -2 71 6q24 14 44 14h3t5.5 -1t5.5 -2t0 -3q-6 -6 -53 -11q-26 -17 -58 -63t-43.5 -90.5t22.5 -62.5q20 -7 50 3q35 11 81 43t77 62q0 1 1 1t1 -1q1 0 1 -1t-1 -1q-42 -42 -109.5 -83.5t-102.5 -25.5q-37 20 -26 65t40.5 89.5t55.5 62.5
q-56 -6 -62 -5q-6 0 -7.5 2t3.5 5q2 0 3 -1q0 -2 -1 -2zM311 479q31 3 40 8q-14 4 -40 -8z" />
    <glyph glyph-name="ordfeminine" unicode="&#xaa;" horiz-adv-x="391" 
d="M165 507q10 12 11 13q2 3 7 3.5t8.5 -2.5t0.5 -11q-1 -3 -8 -18q-54 -116 -30 -115q8 0 18 5.5t22 15l24 19.5t26 25l24.5 26t24 27l20 24l17 20.5t11.5 13.5q2 2 6 0q3 -3 0 -6l-13 -16l-19 -23l-21.5 -25t-25 -28l-24.5 -26t-26.5 -25l-24 -18.5t-23 -13.5t-18.5 -4
q-10 0 -15.5 4.5t-6 14t0.5 18t5.5 22t7.5 20.5l8.5 19.5t5.5 13.5q-67 -93 -101 -66q-13 10 -10.5 34.5t12.5 49.5t29 44.5t39 19.5q25 0 33 -17t5 -38zM155 493q0 10 0.5 24t-7 24.5t-22.5 6.5q-28 -8 -52.5 -57.5t-9.5 -67.5q19 -23 91 70z" />
    <glyph glyph-name="guillemotleft" unicode="&#xab;" horiz-adv-x="495" 
d="M333 226l-81 -15v-3l80 -21q8 -2 6 -8q-2 -8 -9 -6t-26 6.5l-35 8.5t-25 8q-6 4 -5.5 13t2.5 13q2 2 22.5 6t43 7.5t24.5 4.5q8 2 8 -6q1 -6 -5 -8zM195 226l-81 -15v-3l80 -21q8 -2 6 -8q-2 -8 -9 -6t-26 6.5l-35 8.5t-25 8q-6 4 -5.5 13t2.5 13q2 2 22.5 6t43 7.5
t24.5 4.5q8 2 8 -6q1 -6 -5 -8z" />
    <glyph glyph-name="logicalnot" unicode="&#xac;" horiz-adv-x="545" 
d="M384 300l1 125q-264 0 -336 2q-3 0 -3 7t3 7l348 -2q1 0 3 -7v-3l-1 -2q0 -91 -1 -127q0 -3 -7 -3t-7 3z" />
    <glyph glyph-name="registered" unicode="&#xae;" horiz-adv-x="554" 
d="M276 637q126 6 193 -99q58 -92 44 -213q-16 -123 -98 -187q-63 -48 -152 -44q-79 4 -132.5 44.5t-73.5 99.5t-14.5 127.5t33.5 127.5t81 100t119 44zM280 612q-60 0 -107.5 -36t-73 -90t-30 -117t13 -118t65 -93t116.5 -42q118 -7 181 95q55 89 40 202q-15 115 -93 168
q-48 33 -112 31zM289 492l-25 -60q42 47 72 41q19 -3 22 -24.5t-5 -36.5q-10 -25 -34 -44t-50 -19l3 -4q3 -4 15 -45q10 -35 36 -32q10 1 22 8.5t26.5 23.5t22 25t22.5 29l15 21q0 2 2 0q2 0 0 -2q-57 -81 -88 -100q-12 -8 -22 -9q-30 -4 -42 33q-1 3 -3 17.5t-6 23.5
t-11 12h-1q-1 1 -3 1q-6 2 1 4q2 0 5 -1q25 -4 47.5 13t33.5 42q9 18 9 37.5t-17 23.5q-33 7 -76 -49q-61 -159 -86 -209q-2 -3 -4 -1t-1 3l1 2q9 21 20 67.5t10 67.5q-2 11 -4 11t-4 -2t-2 0q-2 2 0 3q23 16 7 -63q-7 -32 -14 -56v-2q19 44 51.5 129.5t48.5 123.5q1 2 5 -1
q1 -1 1 -2z" />
    <glyph glyph-name="degree" unicode="&#xb0;" horiz-adv-x="246" 
d="M59 482q-2 35 28 44q29 9 44 -13q8 -11 7 -27q-2 -24 -21 -33.5t-37.5 -1t-20.5 30.5zM72 484q1 -15 13.5 -21t25.5 0.5t14 23.5q2 23 -19 27q-22 5 -31 -14q-4 -7 -3 -16z" />
    <glyph glyph-name="plusminus" unicode="&#xb1;" horiz-adv-x="298" 
d="M54 16l116 -2q1 0 3 -7q0 -7 -3 -7q-40 0 -116 2q-3 0 -3 7t3 7zM40 118q9 0 27.5 -0.5t28.5 -0.5l2 56q0 3 7 3t7 -3q0 -18 -2 -56q10 0 28 -0.5t28 -0.5q3 0 3 -7t-3 -7q-37 0 -56 1l-2 -56q-2 -3 -8 -3q-7 0 -7 3l3 56q-38 0 -56 1q-3 0 -3 7t3 7z" />
    <glyph glyph-name="twosuperior" unicode="&#xb2;" horiz-adv-x="174" 
d="M61 475q-7 17 -0.5 34.5t22.5 29.5q15 13 36 14t37 -12q14 -11 11 -28.5t-12 -32t-20 -25.5q-13 -13 -43 -36l-41 -32q-15 -14 -41 -43q8 1 34 2t45.5 3t25.5 6q4 2 6 -5q0 -3 -1 -5q-4 -5 -25.5 -5.5t-48.5 0.5t-32 1q-11 -1 -12 -1q-1 1 4 6q19 24 47 49q66 53 79 67
q11 12 19.5 27t6.5 32.5t-22 24.5q-34 11 -58.5 -16.5t-11.5 -52.5q1 -1 -1 -3q-3 0 -4 1z" />
    <glyph glyph-name="threesuperior" unicode="&#xb3;" horiz-adv-x="196" 
d="M65 521q34 38 73 33q29 -4 36.5 -24.5t-8.5 -39.5q-20 -26 -73 -46q43 3 53 -37q11 -42 -21 -79q-31 -35 -83 -33q-44 2 -52 33q-8 29 16 65q1 1 3.5 1t4 -2t0.5 -3q-8 -13 -13 -26.5t-5 -28t11.5 -24t34.5 -10.5q56 -2 85 47q24 41 5 72q-11 19 -37 20q-4 1 -8.5 0.5
t-8 -0.5t-3.5 1q-1 1 1.5 2.5t5.5 2.5l2 1q50 18 72 47q13 15 9 32t-27 23q-20 5 -38 -7t-27 -24q-3 -2 -8 4z" />
    <glyph glyph-name="acute" unicode="&#xb4;" horiz-adv-x="202" 
d="M131 598q2 -7 -6 -9q-6 -1 -13 -9.5l-12.5 -15t-9.5 -3.5q-11 7 24 42q12 11 17 -5z" />
    <glyph glyph-name="mu" unicode="&#xb5;" horiz-adv-x="317" 
d="M223 265q-45 -107 -67 -155q-9 -29 -11 -58t7 -38q12 -7 40 44q36 68 87 205q5 5 11.5 5t9.5 -5l-46 -105l-42 -88t-35.5 -62t-20.5 -12l-2 7q0 1 1 2q-4 1 -7 6q-15 15 -17 45q-29 -62 -49.5 -94t-27.5 -23q-1 2 -1 7q-1 2 1.5 4t5.5 1h2q51 82 137 314q6 4 14 4t10 -4z
" />
    <glyph glyph-name="paragraph" unicode="&#xb6;" horiz-adv-x="340" 
d="M292 396h-40q-8 -17 -35 -83q0 -2 -1 -3l-57.5 -136.5l-58 -130.5t-58 -113.5t-29.5 -25.5q-2 2 -2 6q0 6 7 6h2q23 36 48 89.5t41 94.5l42 111.5t38 100.5q-29 12 -30.5 41t26.5 45q9 5 27.5 8t33 3.5t39.5 1t29 0.5q7 2 7 -6v-3q2 0 0 -2q-5 -11 -32 -75.5l-57 -135
l-62.5 -142t-57 -112.5t-32.5 -31q-1 2 -1 6q0 6 7 6h2q47 74 117 258.5t87 221.5z" />
    <glyph glyph-name="periodcentered" unicode="&#xb7;" horiz-adv-x="199" 
d="M100 326q0 -1 -0.5 -11t-1.5 -13q-1 -5 -8 -5.5t-9 3.5q-2 2 -2 24q1 7 10.5 7.5t10.5 -5.5z" />
    <glyph glyph-name="cedilla" unicode="&#xb8;" horiz-adv-x="201" 
d="M105 -7q0 -3 -0.5 -10.5t-0.5 -11.5h11.5t9 -4.5t2.5 -14.5q-1 -5 -4 -9t-7 -5.5t-10.5 -2.5t-10.5 -1h-11h-8q-7 0 -7 7t7 7q33 0 36 4q2 3 0 6h-1q-20 0 -21 4q0 -1 1 31q0 7 7 7t7 -7z" />
    <glyph glyph-name="onesuperior" unicode="&#xb9;" horiz-adv-x="106" 
d="M53 516q5 2 14 11l17 16.5t10 7.5q2 -1 2 -3t-2 -4l-1 -3q-15 -32 -41 -98q-26 -65 -34 -80q0 -1 -1 -2q-1 -2 -5 -12t-5 -12q0 -1 -11 -1l12 26l36 81l22 50.5l20 45.5q-14 -14 -17 -16q-18 -18 -21 -9v3q2 2 3 2q3 0 2 -3z" />
    <glyph glyph-name="ordmasculine" unicode="&#xba;" horiz-adv-x="198" 
d="M105 490q-15 3 -36 -36q-30 -55 -21 -88q4 -14 17 -16q28 -5 55.5 40t26.5 74q-28 11 -33 28q-2 9 10 10h2q26 -1 29 -30q1 -4 1 -10q1 -34 -30.5 -81t-64.5 -39q-37 9 -25 71q10 54 39 81q17 15 31 7q5 -3 3 -9q0 -3 -4 -2zM145 475q-3 17 -18 17q-3 0 -3 -2
q1 -7 21 -15z" />
    <glyph glyph-name="guillemotright" unicode="&#xbb;" horiz-adv-x="503" 
d="M183 211l-81 15q-6 2 -5 8q0 8 8 6q2 -1 24.5 -4.5t43 -7.5t22.5 -6q2 -4 2.5 -13t-5.5 -13q-9 -4 -25 -8l-35 -8.5t-26 -6.5t-9 6q-2 6 6 8l80 21v3zM321 211l-81 15q-6 2 -5 8q0 8 8 6q2 -1 24.5 -4.5t43 -7.5t22.5 -6q2 -4 2.5 -13t-5.5 -13q-9 -4 -25 -8l-35 -8.5
t-26 -6.5t-9 6q-2 6 6 8l80 21v3z" />
    <glyph glyph-name="onequarter" unicode="&#xbc;" horiz-adv-x="328" 
d="M265 574q-6 -12 -41 -96q-200 -467 -218 -466q-2 3 0 6q0 6 5 6l1 -1q41 73 129 292t107 262q2 7 13 3q6 -2 4 -6zM293 214q-3 -6 -31 -70l-14 -35q-2 -4 -5 -12.5t-4 -9.5h27q3 0 3 -2t-2 -2h-30q-11 -30 -24 -56l-1 -2q-1 -1 -3 -7t-4.5 -11t-3.5 -6q0 -1 -11 -1l2 4
q0 1 1 2l10 21l25 56l-35 -1h-56q-5 1 2 6q42 29 92 129q1 3 8 -1q2 -1 1 -2q-45 -92 -97 -128l87 1l9 22l44 97q0 1 2.5 6.5t4.5 5.5l2 -2q1 0 1 -2zM63 516q5 2 14 11l17 16.5t10 7.5q2 -1 2 -3t-2 -4l-1 -3q-15 -32 -41 -98q-26 -65 -34 -80q0 -1 -1 -2q-1 -2 -5 -12
t-5 -12q0 -1 -11 -1l12 26l36 81l22 50.5l20 45.5q-14 -14 -17 -16q-18 -18 -21 -9v3q2 2 3 2q3 0 2 -3z" />
    <glyph glyph-name="onehalf" unicode="&#xbd;" horiz-adv-x="330" 
d="M265 574q-6 -12 -41 -96q-200 -467 -218 -466q-2 3 0 6q0 6 5 6l1 -1q41 73 129 292t107 262q2 7 13 3q6 -2 4 -6zM206 138q-7 17 -0.5 34.5t22.5 29.5q15 13 36 14t37 -12q14 -11 11 -28.5t-12 -32t-20 -25.5q-13 -13 -43 -36l-41 -32q-15 -14 -41 -43q8 1 34 2t45.5 3
t25.5 6q4 2 6 -5q0 -3 -1 -5q-4 -5 -25.5 -5.5t-48.5 0.5t-32 1q-11 -1 -12 -1q-1 1 4 6q19 24 47 49q66 53 79 67q11 12 19.5 27t6.5 32.5t-22 24.5q-34 11 -58.5 -16.5t-11.5 -52.5q1 -1 -1 -3q-3 0 -4 1zM63 516q5 2 14 11l17 16.5t10 7.5q2 -1 2 -3t-2 -4l-1 -3
q-15 -32 -41 -98q-26 -65 -34 -80q0 -1 -1 -2q-1 -2 -5 -12t-5 -12q0 -1 -11 -1l12 26l36 81l22 50.5l20 45.5q-14 -14 -17 -16q-18 -18 -21 -9v3q2 2 3 2q3 0 2 -3z" />
    <glyph glyph-name="threequarters" unicode="&#xbe;" horiz-adv-x="365" 
d="M307 574q-6 -12 -41 -96q-200 -467 -218 -466q-2 3 0 6q0 6 5 6l1 -1q41 73 129 292t107 262q2 7 13 3q6 -2 4 -6zM76 524q29 35 66 30q26 -4 33 -22.5t-7 -35.5q-19 -24 -67 -42q39 3 49 -35q9 -38 -21 -71q-27 -31 -74 -29q-40 2 -47 30q-8 27 14 59q1 1 3 1t3.5 -2
t0.5 -3q-7 -12 -11.5 -24t-4.5 -25.5t10.5 -22t31.5 -9.5q52 -1 78 44q22 39 3 66q-11 16 -33 17q-4 1 -7.5 0.5t-7 -0.5t-3.5 1q-1 1 1 2l4 2l3 1q44 15 66 43q11 13 7.5 29t-24.5 21q-29 7 -59 -28q-3 -1 -7 3zM335 214q-3 -6 -31 -70l-14 -35q-2 -4 -5 -12.5t-4 -9.5h27
q3 0 3 -2t-2 -2h-30q-11 -30 -24 -56l-1 -2q-1 -1 -3 -7t-4.5 -11t-3.5 -6q0 -1 -11 -1l2 4q0 1 1 2l10 21l25 56l-35 -1h-56q-5 1 2 6q42 29 92 129q1 3 8 -1q2 -1 1 -2q-45 -92 -97 -128l87 1l9 22l44 97q0 1 2.5 6.5t4.5 5.5l2 -2q1 0 1 -2z" />
    <glyph glyph-name="questiondown" unicode="&#xbf;" horiz-adv-x="339" 
d="M216 62q-6 -26 -16 -50t-26.5 -50.5t-43.5 -42.5t-59 -16q-50 1 -69.5 38t-11.5 78q16 86 125 170q24 18 61 109t43 102q2 6 10 14t15 0q1 -3 1 -6q0 -6 -7 -6q-1 0 -2 1q-14 -22 -47 -110t-64 -114q-83 -69 -106 -147q-7 -24 -8.5 -48t13 -46.5t47.5 -22.5q29 0 53 15.5
t39.5 41t24 47.5t14.5 45q2 5 8 5q8 -2 6 -7zM270 493h-4q-1 0 -2 1l-1 1q-7 9 -3 15q8 14 20 5q12 -8 3 -17q-4 -4 -13 -5z" />
    <glyph glyph-name="Agrave" unicode="&#xc0;" horiz-adv-x="976" 
d="M-52 187q52 37 54 -54q2 -125 -76 -409q-3 -13 -5 -19q-2 -8 -6.5 -22.5l-6.5 -20.5l256 521q-182 -3 -166 29q1 3 5 7q5 4 10 -1q4 -5 -1 -10q24 -9 160 -9q22 45 58 112.5l98.5 181.5t113.5 185t68 60q8 -5 8.5 -33t-6 -71.5t-16 -92.5t-22.5 -104.5l-23.5 -99
l-20.5 -84.5t-13 -52q139 2 141 2q135 0 159 -16q14 -10 -3 -25q-6 -5 -10 1q-6 6 1 10l3 3q-15 11 -80 11q-80 5 -214 1q-70 -333 -23 -378q91 -88 614 428q4 6 10 0q5 -5 0 -10q-187 -185 -293 -273q-257 -214 -335 -161q-29 19 -33 94.5t6.5 149t27.5 150.5
q-58 -2 -180 -4h-14q-268 -528 -317 -606l-3 -5l-4 -4q-6 -1 -8 2t0 8v1l1 2q1 2 2 5t2 4q38 88 81 276.5t39 272.5q0 9 -0.5 13l-1.5 11.5t-3 10.5t-5 6t-8 1.5t-12 -6.5q-6 -4 -10 1q-4 6 1 10zM391 201l40.5 156.5t61.5 258.5t9 110q-42 -11 -301 -528q99 0 190 3z
M463 900q5 16 17 5q35 -35 24 -42q-4 -3 -9.5 3.5l-12.5 15t-13 9.5q-8 2 -6 9z" />
    <glyph glyph-name="Aacute" unicode="&#xc1;" horiz-adv-x="976" 
d="M-52 187q52 37 54 -54q2 -125 -76 -409q-3 -13 -5 -19q-2 -8 -6.5 -22.5l-6.5 -20.5l256 521q-182 -3 -166 29q1 3 5 7q5 4 10 -1q4 -5 -1 -10q24 -9 160 -9q22 45 58 112.5l98.5 181.5t113.5 185t68 60q8 -5 8.5 -33t-6 -71.5t-16 -92.5t-22.5 -104.5l-23.5 -99
l-20.5 -84.5t-13 -52q139 2 141 2q135 0 159 -16q14 -10 -3 -25q-6 -5 -10 1q-6 6 1 10l3 3q-15 11 -80 11q-80 5 -214 1q-70 -333 -23 -378q91 -88 614 428q4 6 10 0q5 -5 0 -10q-187 -185 -293 -273q-257 -214 -335 -161q-29 19 -33 94.5t6.5 149t27.5 150.5
q-58 -2 -180 -4h-14q-268 -528 -317 -606l-3 -5l-4 -4q-6 -1 -8 2t0 8v1l1 2q1 2 2 5t2 4q38 88 81 276.5t39 272.5q0 9 -0.5 13l-1.5 11.5t-3 10.5t-5 6t-8 1.5t-12 -6.5q-6 -4 -10 1q-4 6 1 10zM391 201l40.5 156.5t61.5 258.5t9 110q-42 -11 -301 -528q99 0 190 3z
M513 900q2 -7 -6 -9q-6 -1 -13 -9.5l-12.5 -15t-9.5 -3.5q-11 7 24 42q12 11 17 -5z" />
    <glyph glyph-name="Acircumflex" unicode="&#xc2;" horiz-adv-x="976" 
d="M493 844q-7 0 -7 7q-1 3 1.5 5.5t4.5 2.5q6 0 14 22.5t17 20.5l7 -14.5t9.5 -18.5t8.5 -10l2 -1q6 -2 5 -8q-2 -8 -9 -6q-16 6 -26 32q-11 -30 -27 -32zM-52 187q52 37 54 -54q2 -125 -76 -409q-3 -13 -5 -19q-2 -8 -6.5 -22.5l-6.5 -20.5l256 521q-182 -3 -166 29
q1 3 5 7q5 4 10 -1q4 -5 -1 -10q24 -9 160 -9q22 45 58 112.5l98.5 181.5t113.5 185t68 60q8 -5 8.5 -33t-6 -71.5t-16 -92.5t-22.5 -104.5l-23.5 -99l-20.5 -84.5t-13 -52q139 2 141 2q135 0 159 -16q14 -10 -3 -25q-6 -5 -10 1q-6 6 1 10l3 3q-15 11 -80 11q-80 5 -214 1
q-70 -333 -23 -378q91 -88 614 428q4 6 10 0q5 -5 0 -10q-187 -185 -293 -273q-257 -214 -335 -161q-29 19 -33 94.5t6.5 149t27.5 150.5q-58 -2 -180 -4h-14q-268 -528 -317 -606l-3 -5l-4 -4q-6 -1 -8 2t0 8v1l1 2q1 2 2 5t2 4q38 88 81 276.5t39 272.5q0 9 -0.5 13
l-1.5 11.5t-3 10.5t-5 6t-8 1.5t-12 -6.5q-6 -4 -10 1q-4 6 1 10zM391 201l40.5 156.5t61.5 258.5t9 110q-42 -11 -301 -528q99 0 190 3z" />
    <glyph glyph-name="Atilde" unicode="&#xc3;" horiz-adv-x="976" 
d="M-52 187q52 37 54 -54q2 -125 -76 -409q-3 -13 -5 -19q-2 -8 -6.5 -22.5l-6.5 -20.5l256 521q-182 -3 -166 29q1 3 5 7q5 4 10 -1q4 -5 -1 -10q24 -9 160 -9q22 45 58 112.5l98.5 181.5t113.5 185t68 60q8 -5 8.5 -33t-6 -71.5t-16 -92.5t-22.5 -104.5l-23.5 -99
l-20.5 -84.5t-13 -52q139 2 141 2q135 0 159 -16q14 -10 -3 -25q-6 -5 -10 1q-6 6 1 10l3 3q-15 11 -80 11q-80 5 -214 1q-70 -333 -23 -378q91 -88 614 428q4 6 10 0q5 -5 0 -10q-187 -185 -293 -273q-257 -214 -335 -161q-29 19 -33 94.5t6.5 149t27.5 150.5
q-58 -2 -180 -4h-14q-268 -528 -317 -606l-3 -5l-4 -4q-6 -1 -8 2t0 8v1l1 2q1 2 2 5t2 4q38 88 81 276.5t39 272.5q0 9 -0.5 13l-1.5 11.5t-3 10.5t-5 6t-8 1.5t-12 -6.5q-6 -4 -10 1q-4 6 1 10zM391 201l40.5 156.5t61.5 258.5t9 110q-42 -11 -301 -528q99 0 190 3z
M461 854q0 11 6.5 13t19 -1.5t13.5 -3.5q2 5 6 5q8 2 8 -6q0 -11 -6.5 -13t-19.5 2l-13 3q-2 -5 -7 -6q-7 0 -7 7z" />
    <glyph glyph-name="Adieresis" unicode="&#xc4;" horiz-adv-x="976" 
d="M-52 187q52 37 54 -54q2 -125 -76 -409q-3 -13 -5 -19q-2 -8 -6.5 -22.5l-6.5 -20.5l256 521q-182 -3 -166 29q1 3 5 7q5 4 10 -1q4 -5 -1 -10q24 -9 160 -9q22 45 58 112.5l98.5 181.5t113.5 185t68 60q8 -5 8.5 -33t-6 -71.5t-16 -92.5t-22.5 -104.5l-23.5 -99
l-20.5 -84.5t-13 -52q139 2 141 2q135 0 159 -16q14 -10 -3 -25q-6 -5 -10 1q-6 6 1 10l3 3q-15 11 -80 11q-80 5 -214 1q-70 -333 -23 -378q91 -88 614 428q4 6 10 0q5 -5 0 -10q-187 -185 -293 -273q-257 -214 -335 -161q-29 19 -33 94.5t6.5 149t27.5 150.5
q-58 -2 -180 -4h-14q-268 -528 -317 -606l-3 -5l-4 -4q-6 -1 -8 2t0 8v1l1 2q1 2 2 5t2 4q38 88 81 276.5t39 272.5q0 9 -0.5 13l-1.5 11.5t-3 10.5t-5 6t-8 1.5t-12 -6.5q-6 -4 -10 1q-4 6 1 10zM391 201l40.5 156.5t61.5 258.5t9 110q-42 -11 -301 -528q99 0 190 3z
M513 874h2q1 0 1 -1h2q4 -6 2 -11q-6 -10 -14 -3q-10 7 -1 12q3 2 8 3zM549 874h2q1 0 1 -1h2q4 -6 2 -11q-6 -10 -14 -3q-10 7 -1 12q3 2 8 3z" />
    <glyph glyph-name="Aring" unicode="&#xc5;" horiz-adv-x="976" 
d="M-52 187q52 37 54 -54q2 -125 -76 -409q-3 -13 -5 -19q-2 -8 -6.5 -22.5l-6.5 -20.5l256 521q-182 -3 -166 29q1 3 5 7q5 4 10 -1q4 -5 -1 -10q24 -9 160 -9q22 45 58 112.5l98.5 181.5t113.5 185t68 60q8 -5 8.5 -33t-6 -71.5t-16 -92.5t-22.5 -104.5l-23.5 -99
l-20.5 -84.5t-13 -52q139 2 141 2q135 0 159 -16q14 -10 -3 -25q-6 -5 -10 1q-6 6 1 10l3 3q-15 11 -80 11q-80 5 -214 1q-70 -333 -23 -378q91 -88 614 428q4 6 10 0q5 -5 0 -10q-187 -185 -293 -273q-257 -214 -335 -161q-29 19 -33 94.5t6.5 149t27.5 150.5
q-58 -2 -180 -4h-14q-268 -528 -317 -606l-3 -5l-4 -4q-6 -1 -8 2t0 8v1l1 2q1 2 2 5t2 4q38 88 81 276.5t39 272.5q0 9 -0.5 13l-1.5 11.5t-3 10.5t-5 6t-8 1.5t-12 -6.5q-6 -4 -10 1q-4 6 1 10zM391 201l40.5 156.5t61.5 258.5t9 110q-42 -11 -301 -528q99 0 190 3z
M541 902h3q10 -1 15 -8.5t3 -16t-8 -12.5q-18 -13 -29.5 4t4.5 28q5 4 12 5zM543 888q-12 -2 -8 -9q5 -8 11 -3q1 2 2 5q2 7 -5 7z" />
    <glyph glyph-name="AE" unicode="&#xc6;" horiz-adv-x="1259" 
d="M785 413q67 22 111 85.5t36 134.5q-7 57 -52.5 86t-103.5 24q-58 -4 -107 -43.5t-71.5 -95t-22.5 -112.5t41.5 -104t118.5 -63l12 -2t13.5 -2t11.5 -2q68 4 75 -4t-6 -12h-1h-19q-31 0 -46 2q-179 -5 -298 -120q-90 -88 -101 -194q-11 -103 65 -156q50 -35 131 -37
q64 -1 135.5 22t142 66t124.5 82.5t115 90.5q105 88 196 179q4 6 10 0q5 -5 0 -10q-144 -144 -309 -268.5t-303 -162.5q-56 -14 -110 -13q-119 3 -175 62.5t-46 147.5h-2q7 83 32 194q-58 -2 -180 -4h-14q-268 -528 -317 -606l-3 -5l-4 -4q-6 -1 -8 2t0 8v1l1 2q1 2 2 5t2 4
q38 88 81 276.5t39 272.5q0 9 -0.5 13l-1.5 11.5t-3 10.5t-5 6t-8 1.5t-12 -6.5q-6 -4 -10 1q-4 6 1 10q52 37 54 -54q2 -125 -76 -409q-3 -13 -5 -19q-2 -8 -6.5 -22.5l-6.5 -20.5l256 521q-182 -3 -166 29q1 3 5 7q5 4 10 -1q4 -5 -1 -10q24 -9 160 -9q22 45 58 112.5
l98.5 181.5t113.5 185t68 60q8 -5 8.5 -33t-6 -71.5t-16 -92.5t-22.5 -104.5l-23.5 -99l-20.5 -84.5t-13 -52l-3 -13q-6 -26 -16 -78q45 77 127.5 133t190.5 72h3q-65 17 -105.5 57t-51 87t-0.5 99t39 95t76 72t102 33q70 5 121.5 -32.5t52.5 -106.5q2 -72 -43.5 -134.5
t-115.5 -85.5q-6 -2 -8 5t5 9zM385 201l40.5 156.5t61.5 258.5t9 110q-42 -11 -301 -528q99 0 190 3z" />
    <glyph glyph-name="Ccedilla" unicode="&#xc7;" horiz-adv-x="931" 
d="M139 663l-3 -2q53 -7 290 25q90 59 177 57q43 0 58 -11q7 -5 0 -11q-20 -21 -218 -47q-48 -31 -110.5 -99.5t-123 -155.5t-107 -184t-68.5 -182.5t-0.5 -154.5t91.5 -98q77 -32 203 10q141 47 328 176t311 252q4 4 10 0q6 -6 0 -10q-61 -60 -152.5 -133t-206.5 -151.5
t-234.5 -128t-203.5 -42.5q-1 -5 -1 -17h11.5t9 -4.5t2.5 -14.5q-1 -5 -4 -9t-7 -5.5t-10.5 -2.5t-10.5 -1h-11h-8q-7 0 -7 7t7 7q33 0 36 4q2 3 0 6h-1q-19 0 -20.5 2.5t0.5 28.5q-31 5 -50 14q-88 41 -107 133t18.5 200t102 219t138 198.5t131.5 129.5q-197 -26 -252 -22
q-24 2 -29.5 10t15.5 20q7 2 10 -4q2 -7 -4 -9zM477 694q122 18 163 32q-34 9 -79.5 -1.5t-83.5 -30.5z" />
    <glyph glyph-name="Egrave" unicode="&#xc8;" horiz-adv-x="875" 
d="M401 413q67 22 111 85.5t36 134.5q-7 57 -52.5 86t-103.5 24q-58 -4 -107 -43.5t-71.5 -95t-22.5 -112.5t41.5 -104t118.5 -63l12 -2t13.5 -2t11.5 -2q68 4 75 -4t-6 -12h-1h-19q-31 0 -46 2q-179 -5 -298 -120q-90 -88 -101 -194q-11 -103 65 -156q50 -35 131 -37
q64 -1 135.5 22t142 66t124.5 82.5t115 90.5q105 88 196 179q4 6 10 0q5 -5 0 -10q-144 -144 -309 -268.5t-303 -162.5q-56 -14 -110 -13q-153 4 -204 102q-43 85 8 195q51 113 170 180q75 42 163 54h3q-65 17 -105.5 57t-51 87t-0.5 99t39 95t76 72t102 33
q70 5 121.5 -32.5t52.5 -106.5q2 -72 -43.5 -134.5t-115.5 -85.5q-6 -2 -8 5t5 9zM412 900q6 16 17 5q35 -35 24 -42q-4 -3 -9.5 3.5l-12.5 15t-13 9.5q-8 2 -6 9z" />
    <glyph glyph-name="Eacute" unicode="&#xc9;" horiz-adv-x="875" 
d="M401 413q67 22 111 85.5t36 134.5q-7 57 -52.5 86t-103.5 24q-58 -4 -107 -43.5t-71.5 -95t-22.5 -112.5t41.5 -104t118.5 -63l12 -2t13.5 -2t11.5 -2q68 4 75 -4t-6 -12h-1h-19q-31 0 -46 2q-179 -5 -298 -120q-90 -88 -101 -194q-11 -103 65 -156q50 -35 131 -37
q64 -1 135.5 22t142 66t124.5 82.5t115 90.5q105 88 196 179q4 6 10 0q5 -5 0 -10q-144 -144 -309 -268.5t-303 -162.5q-56 -14 -110 -13q-153 4 -204 102q-43 85 8 195q51 113 170 180q75 42 163 54h3q-65 17 -105.5 57t-51 87t-0.5 99t39 95t76 72t102 33
q70 5 121.5 -32.5t52.5 -106.5q2 -72 -43.5 -134.5t-115.5 -85.5q-6 -2 -8 5t5 9zM462 900q2 -7 -6 -9q-6 -1 -13 -9.5l-12.5 -15t-9.5 -3.5q-11 7 24 42q11 11 17 -5z" />
    <glyph glyph-name="Ecircumflex" unicode="&#xca;" horiz-adv-x="875" 
d="M401 413q67 22 111 85.5t36 134.5q-7 57 -52.5 86t-103.5 24q-58 -4 -107 -43.5t-71.5 -95t-22.5 -112.5t41.5 -104t118.5 -63l12 -2t13.5 -2t11.5 -2q68 4 75 -4t-6 -12h-1h-19q-31 0 -46 2q-179 -5 -298 -120q-90 -88 -101 -194q-11 -103 65 -156q50 -35 131 -37
q64 -1 135.5 22t142 66t124.5 82.5t115 90.5q105 88 196 179q4 6 10 0q5 -5 0 -10q-144 -144 -309 -268.5t-303 -162.5q-56 -14 -110 -13q-153 4 -204 102q-43 85 8 195q51 113 170 180q75 42 163 54h3q-65 17 -105.5 57t-51 87t-0.5 99t39 95t76 72t102 33
q70 5 121.5 -32.5t52.5 -106.5q2 -72 -43.5 -134.5t-115.5 -85.5q-6 -2 -8 5t5 9zM366 856q-7 0 -7 7q-1 3 1.5 5.5t4.5 2.5q6 0 14 22.5t17 20.5l7 -14.5t9.5 -18.5t8.5 -10l2 -1q6 -2 5 -8q-2 -8 -9 -6q-16 6 -26 32q-11 -30 -27 -32z" />
    <glyph glyph-name="Edieresis" unicode="&#xcb;" horiz-adv-x="875" 
d="M401 413q67 22 111 85.5t36 134.5q-7 57 -52.5 86t-103.5 24q-58 -4 -107 -43.5t-71.5 -95t-22.5 -112.5t41.5 -104t118.5 -63l12 -2t13.5 -2t11.5 -2q68 4 75 -4t-6 -12h-1h-19q-31 0 -46 2q-179 -5 -298 -120q-90 -88 -101 -194q-11 -103 65 -156q50 -35 131 -37
q64 -1 135.5 22t142 66t124.5 82.5t115 90.5q105 88 196 179q4 6 10 0q5 -5 0 -10q-144 -144 -309 -268.5t-303 -162.5q-56 -14 -110 -13q-153 4 -204 102q-43 85 8 195q51 113 170 180q75 42 163 54h3q-65 17 -105.5 57t-51 87t-0.5 99t39 95t76 72t102 33
q70 5 121.5 -32.5t52.5 -106.5q2 -72 -43.5 -134.5t-115.5 -85.5q-6 -2 -8 5t5 9zM463 874h2q1 0 1 -1h2q4 -6 2 -11q-6 -10 -14 -3q-10 7 -1 12q3 2 8 3zM427 874h2q1 0 1 -1h2q4 -6 2 -11q-6 -10 -14 -3q-10 7 -1 12q3 2 8 3z" />
    <glyph glyph-name="Igrave" unicode="&#xcc;" horiz-adv-x="560" 
d="M597 227q-50 -26 -169.5 -28t-178.5 8l-37 5q-138 -362 -221 -551q0 -1 -5.5 -12.5l-11 -24t-12.5 -26.5t-13 -21q0 -1 -1 -3h-1q-9 -11 -12 1q-1 0 1 5l-1 1l2 3l23 61l45 139.5l40.5 132l43 146l38.5 133.5q3 10 6 24q4 18 7 20t17 -2q3 -1 5 -2q16 -4 30 -7
q35 88 99 282.5t51 209.5q-16 21 -82 -32q-84 -68 -166.5 -193.5t-139.5 -250.5q-4 -6 -10 -3q-6 2 -4 9q123 266 273 415q33 33 74.5 59.5t62.5 8.5q8 -7 9.5 -25t-3.5 -46.5t-12 -59.5t-19.5 -71l-23 -73t-25 -74l-23.5 -65.5l-21 -56.5t-14 -38q80 -14 203 -11.5
t167 24.5q6 5 10 -1q6 -6 -1 -10zM187 216q-14 2 -37 9l-47.5 -163.5l-56.5 -193.5t-51 -164q41 95 105 274.5t87 237.5zM255 900q5 16 17 5q35 -35 24 -42q-4 -3 -9.5 3.5l-12.5 15t-13 9.5q-8 2 -6 9z" />
    <glyph glyph-name="Iacute" unicode="&#xcd;" horiz-adv-x="560" 
d="M597 227q-50 -26 -169.5 -28t-178.5 8l-37 5q-138 -362 -221 -551q0 -1 -5.5 -12.5l-11 -24t-12.5 -26.5t-13 -21q0 -1 -1 -3h-1q-9 -11 -12 1q-1 0 1 5l-1 1l2 3l23 61l45 139.5l40.5 132l43 146l38.5 133.5q3 10 6 24q4 18 7 20t17 -2q3 -1 5 -2q16 -4 30 -7
q35 88 99 282.5t51 209.5q-16 21 -82 -32q-84 -68 -166.5 -193.5t-139.5 -250.5q-4 -6 -10 -3q-6 2 -4 9q123 266 273 415q33 33 74.5 59.5t62.5 8.5q8 -7 9.5 -25t-3.5 -46.5t-12 -59.5t-19.5 -71l-23 -73t-25 -74l-23.5 -65.5l-21 -56.5t-14 -38q80 -14 203 -11.5
t167 24.5q6 5 10 -1q6 -6 -1 -10zM187 216q-14 2 -37 9l-47.5 -163.5l-56.5 -193.5t-51 -164q41 95 105 274.5t87 237.5zM372 900q2 -7 -6 -9q-6 -1 -13 -9.5l-12.5 -15t-9.5 -3.5q-11 7 24 42q11 11 17 -5z" />
    <glyph glyph-name="Icircumflex" unicode="&#xce;" horiz-adv-x="560" 
d="M597 227q-50 -26 -169.5 -28t-178.5 8l-37 5q-138 -362 -221 -551q0 -1 -5.5 -12.5l-11 -24t-12.5 -26.5t-13 -21q0 -1 -1 -3h-1q-9 -11 -12 1q-1 0 1 5l-1 1l2 3l23 61l45 139.5l40.5 132l43 146l38.5 133.5q3 10 6 24q4 18 7 20t17 -2q3 -1 5 -2q16 -4 30 -7
q35 88 99 282.5t51 209.5q-16 21 -82 -32q-84 -68 -166.5 -193.5t-139.5 -250.5q-4 -6 -10 -3q-6 2 -4 9q123 266 273 415q33 33 74.5 59.5t62.5 8.5q8 -7 9.5 -25t-3.5 -46.5t-12 -59.5t-19.5 -71l-23 -73t-25 -74l-23.5 -65.5l-21 -56.5t-14 -38q80 -14 203 -11.5
t167 24.5q6 5 10 -1q6 -6 -1 -10zM187 216q-14 2 -37 9l-47.5 -163.5l-56.5 -193.5t-51 -164q41 95 105 274.5t87 237.5zM300 844q-7 0 -7 7q-1 3 1.5 5.5t4.5 2.5q6 0 14 22.5t17 20.5l7 -14.5t9.5 -18.5t8.5 -10l2 -1q6 -2 5 -8q-2 -8 -9 -6q-16 6 -26 32q-11 -30 -27 -32
z" />
    <glyph glyph-name="Idieresis" unicode="&#xcf;" horiz-adv-x="560" 
d="M597 227q-50 -26 -169.5 -28t-178.5 8l-37 5q-138 -362 -221 -551q0 -1 -5.5 -12.5l-11 -24t-12.5 -26.5t-13 -21q0 -1 -1 -3h-1q-9 -11 -12 1q-1 0 1 5l-1 1l2 3l23 61l45 139.5l40.5 132l43 146l38.5 133.5q3 10 6 24q4 18 7 20t17 -2q3 -1 5 -2q16 -4 30 -7
q35 88 99 282.5t51 209.5q-16 21 -82 -32q-84 -68 -166.5 -193.5t-139.5 -250.5q-4 -6 -10 -3q-6 2 -4 9q123 266 273 415q33 33 74.5 59.5t62.5 8.5q8 -7 9.5 -25t-3.5 -46.5t-12 -59.5t-19.5 -71l-23 -73t-25 -74l-23.5 -65.5l-21 -56.5t-14 -38q80 -14 203 -11.5
t167 24.5q6 5 10 -1q6 -6 -1 -10zM187 216q-14 2 -37 9l-47.5 -163.5l-56.5 -193.5t-51 -164q41 95 105 274.5t87 237.5zM339 874h2q1 0 1 -1h2q4 -6 2 -11q-6 -10 -14 -3q-10 7 -1 12q3 2 8 3zM375 874h2q1 0 1 -1h2q4 -6 2 -11q-6 -10 -14 -3q-10 7 -1 12q3 2 8 3z" />
    <glyph glyph-name="Eth" unicode="&#xd0;" horiz-adv-x="970" 
d="M128 379l52 -1q79 203 148 352l3 3h1q6 2 14.5 -4t5.5 -11l-73 -166q29 24 63 43.5t74 34.5t80.5 13.5t71.5 -23.5q146 -101 -27 -506q223 65 388 106q25 7 75 19q6 2 8 -5t-5 -9q-294 -74 -474 -129q-20 -45 -42 -85.5t-54 -84.5t-66.5 -75.5t-80 -53.5t-93.5 -25
q-64 -3 -103 32q-32 27 -29 59t22 58t49 46q16 11 41 23q96 45 331 114q182 410 52 504q-37 22 -77.5 21t-85 -22t-77 -44t-53.5 -45q-1 0 -3 -2q-30 -70 -56 -139h36q1 0 3 -7q0 -7 -3 -7h-42l-82.5 -212l-89.5 -228.5l-75 -180t-77 -166.5q-3 -8 -8.5 -8t-8.5 5t-1 9
q1 2 2 5t2 4q38 87 81 275.5t39 272.5q0 9 -0.5 13.5t-1.5 12t-3 10.5t-5 6t-8 1.5t-12 -6.5q-6 -6 -10 1q-4 6 1 10q52 37 54 -53q2 -127 -79 -422l-2 -8l1 1q30 68 43 103l33 82q14 34 20 51l160 422l-47 2q-3 0 -3 7t3 7zM500 86l-62.5 -18.5t-70 -21.5l-62 -20
t-67.5 -24.5t-57 -25.5q-45 -22 -70.5 -49t-28.5 -52t8 -45.5t39.5 -32.5t66.5 -11q45 2 86.5 22.5t71 48t59 71.5t47.5 77.5t40 80.5z" />
    <glyph glyph-name="Ntilde" unicode="&#xd1;" horiz-adv-x="949" 
d="M310 626l-12 -29q-6 -37 -19 -110l-23.5 -130.5l-12.5 -68.5q-98 -588 -35 -688q9 -14 21 -17q23 -5 53 26.5t59.5 89t57 119.5t53 132l39.5 110.5t23 69.5q-20 34 -25 85t-1 90t14 103q13 77 47 198.5t61 124.5q21 2 31.5 -19.5t10 -60.5t-6 -86.5t-18.5 -105
l-24.5 -107.5t-26.5 -102l-23.5 -80.5l-15.5 -51.5q32 -47 93 -51q82 -6 182 47t166 123q4 7 10 1q5 -5 0 -10q-53 -57 -124.5 -101.5t-142.5 -63.5q-133 -36 -190 37q-13 -40 -25 -73.5l-38.5 -105.5t-53 -127t-58.5 -111.5t-65 -87t-62 -27.5q-63 6 -59 204q3 227 92 709
l10 53l-125.5 -320.5l-150 -377t-119.5 -262.5q-6 -13 -15 -5q-7 6 -3 12q2 7 4 9q38 87 81 275.5t39 272.5q-2 42 -14 43q-6 1 -16 -6q-6 -6 -10 1q-6 6 1 10q52 37 54 -53q2 -126 -76 -411q-3 -13 -5 -19l-3 -9q81 186 197.5 494.5t174.5 449.5q4 8 18 -2q8 -5 6 -10z
M520 149l18.5 60t31.5 107t34.5 135t25.5 127t7 100t-25 39q-19 -14 -48 -112.5t-40 -154.5l-6 -31.5l-7 -37.5t-6 -37.5t-5 -41.5t-2 -39.5t1.5 -41.5t7.5 -36.5t13 -35.5zM448 854q0 11 6.5 13t19 -1.5t13.5 -3.5q2 5 6 5q8 2 8 -6q0 -11 -6.5 -13t-19.5 2l-13 3
q-2 -5 -7 -6q-7 0 -7 7z" />
    <glyph glyph-name="Ograve" unicode="&#xd2;" horiz-adv-x="808" 
d="M409 -26q170 56 355 205q25 20 71 60q5 4 10 -1q4 -5 -1 -10q-64 -58 -131 -106q-163 -121 -316 -167q-53 -77 -120.5 -127t-142.5 -43q-58 5 -99 52q-39 46 -50 125.5t2 167t44 180.5q13 108 61.5 206.5t120.5 155.5q84 68 181 57q70 -8 110 -56t48 -118.5t-1 -154.5
t-33.5 -166t-53 -150t-55.5 -110zM332 654q-31 4 -52.5 -3.5t-47.5 -28.5q-52 -41 -102 -126.5t-85 -190.5q-11 -89 8 -164q24 -93 71.5 -141.5t109 -52.5t136.5 16q32 47 68.5 130.5t64 186.5t34.5 196t-28 160.5t-116 78.5q-47 6 -97.5 -13t-90.5 -56q-104 -95 -145 -260
q74 177 163 248q29 23 53.5 30.5t59.5 3.5q7 -2 5 -8q-2 -8 -9 -6zM27 247q-36 -115 -33 -228.5t52 -171.5q36 -41 90 -48q107 -12 222 146q-75 -17 -137 -10.5t-110 57.5t-72 146q-12 45 -12 109zM379 900q5 16 17 5q35 -35 24 -42q-4 -3 -9.5 3.5l-12.5 15t-13 9.5
q-8 2 -6 9z" />
    <glyph glyph-name="Oacute" unicode="&#xd3;" horiz-adv-x="808" 
d="M409 -26q170 56 355 205q25 20 71 60q5 4 10 -1q4 -5 -1 -10q-64 -58 -131 -106q-163 -121 -316 -167q-53 -77 -120.5 -127t-142.5 -43q-58 5 -99 52q-39 46 -50 125.5t2 167t44 180.5q13 108 61.5 206.5t120.5 155.5q84 68 181 57q70 -8 110 -56t48 -118.5t-1 -154.5
t-33.5 -166t-53 -150t-55.5 -110zM332 654q-31 4 -52.5 -3.5t-47.5 -28.5q-52 -41 -102 -126.5t-85 -190.5q-11 -89 8 -164q24 -93 71.5 -141.5t109 -52.5t136.5 16q32 47 68.5 130.5t64 186.5t34.5 196t-28 160.5t-116 78.5q-47 6 -97.5 -13t-90.5 -56q-104 -95 -145 -260
q74 177 163 248q29 23 53.5 30.5t59.5 3.5q7 -2 5 -8q-2 -8 -9 -6zM27 247q-36 -115 -33 -228.5t52 -171.5q36 -41 90 -48q107 -12 222 146q-75 -17 -137 -10.5t-110 57.5t-72 146q-12 45 -12 109zM429 900q2 -7 -6 -9q-6 -1 -13 -9.5l-12.5 -15t-9.5 -3.5q-11 7 24 42
q12 11 17 -5z" />
    <glyph glyph-name="Ocircumflex" unicode="&#xd4;" horiz-adv-x="808" 
d="M409 -26q170 56 355 205q25 20 71 60q5 4 10 -1q4 -5 -1 -10q-64 -58 -131 -106q-163 -121 -316 -167q-53 -77 -120.5 -127t-142.5 -43q-58 5 -99 52q-39 46 -50 125.5t2 167t44 180.5q13 108 61.5 206.5t120.5 155.5q84 68 181 57q70 -8 110 -56t48 -118.5t-1 -154.5
t-33.5 -166t-53 -150t-55.5 -110zM332 654q-31 4 -52.5 -3.5t-47.5 -28.5q-52 -41 -102 -126.5t-85 -190.5q-11 -89 8 -164q24 -93 71.5 -141.5t109 -52.5t136.5 16q32 47 68.5 130.5t64 186.5t34.5 196t-28 160.5t-116 78.5q-47 6 -97.5 -13t-90.5 -56q-104 -95 -145 -260
q74 177 163 248q29 23 53.5 30.5t59.5 3.5q7 -2 5 -8q-2 -8 -9 -6zM27 247q-36 -115 -33 -228.5t52 -171.5q36 -41 90 -48q107 -12 222 146q-75 -17 -137 -10.5t-110 57.5t-72 146q-12 45 -12 109zM376 844q-7 0 -7 7q-1 3 1.5 5.5t4.5 2.5q6 0 14 22.5t17 20.5l7 -14.5
t9.5 -18.5t8.5 -10l2 -1q6 -2 5 -8q-2 -8 -9 -6q-16 6 -26 32q-11 -30 -27 -32z" />
    <glyph glyph-name="Otilde" unicode="&#xd5;" horiz-adv-x="808" 
d="M409 -26q170 56 355 205q25 20 71 60q5 4 10 -1q4 -5 -1 -10q-64 -58 -131 -106q-163 -121 -316 -167q-53 -77 -120.5 -127t-142.5 -43q-58 5 -99 52q-39 46 -50 125.5t2 167t44 180.5q13 108 61.5 206.5t120.5 155.5q84 68 181 57q70 -8 110 -56t48 -118.5t-1 -154.5
t-33.5 -166t-53 -150t-55.5 -110zM332 654q-31 4 -52.5 -3.5t-47.5 -28.5q-52 -41 -102 -126.5t-85 -190.5q-11 -89 8 -164q24 -93 71.5 -141.5t109 -52.5t136.5 16q32 47 68.5 130.5t64 186.5t34.5 196t-28 160.5t-116 78.5q-47 6 -97.5 -13t-90.5 -56q-104 -95 -145 -260
q74 177 163 248q29 23 53.5 30.5t59.5 3.5q7 -2 5 -8q-2 -8 -9 -6zM27 247q-36 -115 -33 -228.5t52 -171.5q36 -41 90 -48q107 -12 222 146q-75 -17 -137 -10.5t-110 57.5t-72 146q-12 45 -12 109zM377 854q0 11 6.5 13t19 -1.5t13.5 -3.5q2 5 6 5q8 2 8 -6q0 -11 -6.5 -13
t-19.5 2l-13 3q-2 -5 -7 -6q-7 0 -7 7z" />
    <glyph glyph-name="Odieresis" unicode="&#xd6;" horiz-adv-x="808" 
d="M409 -26q170 56 355 205q25 20 71 60q5 4 10 -1q4 -5 -1 -10q-64 -58 -131 -106q-163 -121 -316 -167q-53 -77 -120.5 -127t-142.5 -43q-58 5 -99 52q-39 46 -50 125.5t2 167t44 180.5q13 108 61.5 206.5t120.5 155.5q84 68 181 57q70 -8 110 -56t48 -118.5t-1 -154.5
t-33.5 -166t-53 -150t-55.5 -110zM332 654q-31 4 -52.5 -3.5t-47.5 -28.5q-52 -41 -102 -126.5t-85 -190.5q-11 -89 8 -164q24 -93 71.5 -141.5t109 -52.5t136.5 16q32 47 68.5 130.5t64 186.5t34.5 196t-28 160.5t-116 78.5q-47 6 -97.5 -13t-90.5 -56q-104 -95 -145 -260
q74 177 163 248q29 23 53.5 30.5t59.5 3.5q7 -2 5 -8q-2 -8 -9 -6zM27 247q-36 -115 -33 -228.5t52 -171.5q36 -41 90 -48q107 -12 222 146q-75 -17 -137 -10.5t-110 57.5t-72 146q-12 45 -12 109zM394 874h2q1 0 1 -1h2q4 -6 2 -11q-6 -10 -14 -3q-10 7 -1 12q3 2 8 3z
M430 874h2q1 0 1 -1h2q4 -6 2 -11q-6 -10 -14 -3q-10 7 -1 12q3 2 8 3z" />
    <glyph glyph-name="multiply" unicode="&#xd7;" horiz-adv-x="833" 
d="M217 166l41 -39l39 39q1 2 8 -2q4 -6 3 -8l-40 -39q40 -37 41 -38q2 -3 -3 -8t-7 -3q-40 37 -41 38l-39 -39q-3 -2 -8 3q-6 4 -3 7l40 39l-40 39q-2 1 2 8q6 4 7 3z" />
    <glyph glyph-name="Oslash" unicode="&#xd8;" horiz-adv-x="808" 
d="M409 -26q170 56 355 205q25 20 71 60q5 4 10 -1q4 -5 -1 -10q-64 -58 -131 -106q-163 -121 -316 -167q-53 -77 -120.5 -127t-142.5 -43q-37 3 -69 25q-70 -133 -79 -121q-1 2 -1 6q0 6 7 6q1 0 2 -1q20 32 62 117q-14 12 -21 20q-39 46 -50 125.5t2 167t44 180.5
q13 108 61.5 206.5t120.5 155.5q84 68 181 57q46 -6 77 -27l28 61q3 7 20 3q6 -3 6 -6l-34 -74q52 -49 62.5 -149.5t-13.5 -208t-59.5 -203.5t-71.5 -151zM332 654q-31 4 -52.5 -3.5t-47.5 -28.5q-52 -41 -102 -126.5t-85 -190.5q-11 -89 8 -164q27 -107 86 -155l325 702
q-28 21 -71 27q-47 6 -97.5 -13t-90.5 -56q-104 -95 -145 -260q74 177 163 248q29 23 53.5 30.5t59.5 3.5q7 -2 5 -8q-2 -8 -9 -6zM152 -23q78 -54 218 -14q35 51 73.5 145t67.5 201.5t25 209.5t-52 152zM27 247q-36 -115 -33 -228.5t52 -171.5q8 -9 17 -17l69 143
q-64 49 -93 165q-12 45 -12 109zM72 -177q27 -19 64 -24q107 -12 222 146q-135 -33 -213 18q-40 -80 -73 -140z" />
    <glyph glyph-name="Ugrave" unicode="&#xd9;" horiz-adv-x="925" 
d="M961 227l-90 -119.5l-98 -130.5l-90.5 -116.5l-99.5 -121.5q-166 -196 -234 -172q-28 10 -30.5 59.5t17.5 126.5t48 162t67.5 182l70.5 169.5l61.5 141.5t35.5 82q-97 -168 -238 -370q-237 -334 -319 -334q-13 0 -22 3q-31 10 -38.5 50t7 105t37.5 132.5t58 155.5
l40 98.5l40.5 98.5l34.5 87.5t28 80.5t15 61.5t1.5 46.5t-18.5 20q-22 8 -76 -35q-84 -68 -166 -193.5t-140 -250.5q-4 -6 -10 -3q-6 1 -4 9q31 66 70 138q24 42 56.5 90.5t76.5 107t90.5 100.5t82.5 50q15 3 24 1q62 -14 -13 -235q-24 -71 -107 -281l-41 -104t-34 -93.5
t-26 -87.5t-10.5 -66t6 -50t29.5 -21q54 -10 184 152q205 251 397 594l18 35q18 34 26 47q6 15 19 10q12 -4 6 -16q-7 -20 -32 -77l-57 -129l-71.5 -162l-75 -177t-67.5 -174.5t-49 -153t-20 -113t20 -55.5q58 -27 221 166l100.5 122.5l88.5 114l99.5 133.5l88.5 118
q5 6 10 1q3 -1 3.5 -4.5t-1.5 -5.5zM437 900q5 16 17 5q35 -35 24 -42q-4 -3 -9.5 3.5l-12.5 15t-13 9.5q-8 2 -6 9z" />
    <glyph glyph-name="Uacute" unicode="&#xda;" horiz-adv-x="925" 
d="M961 227l-90 -119.5l-98 -130.5l-90.5 -116.5l-99.5 -121.5q-166 -196 -234 -172q-28 10 -30.5 59.5t17.5 126.5t48 162t67.5 182l70.5 169.5l61.5 141.5t35.5 82q-97 -168 -238 -370q-237 -334 -319 -334q-13 0 -22 3q-31 10 -38.5 50t7 105t37.5 132.5t58 155.5
l40 98.5l40.5 98.5l34.5 87.5t28 80.5t15 61.5t1.5 46.5t-18.5 20q-22 8 -76 -35q-84 -68 -166 -193.5t-140 -250.5q-4 -6 -10 -3q-6 1 -4 9q31 66 70 138q24 42 56.5 90.5t76.5 107t90.5 100.5t82.5 50q15 3 24 1q62 -14 -13 -235q-24 -71 -107 -281l-41 -104t-34 -93.5
t-26 -87.5t-10.5 -66t6 -50t29.5 -21q54 -10 184 152q205 251 397 594l18 35q18 34 26 47q6 15 19 10q12 -4 6 -16q-7 -20 -32 -77l-57 -129l-71.5 -162l-75 -177t-67.5 -174.5t-49 -153t-20 -113t20 -55.5q58 -27 221 166l100.5 122.5l88.5 114l99.5 133.5l88.5 118
q5 6 10 1q3 -1 3.5 -4.5t-1.5 -5.5zM487 900q2 -7 -6 -9q-6 -1 -13 -9.5l-12.5 -15t-9.5 -3.5q-11 7 24 42q12 11 17 -5z" />
    <glyph glyph-name="Ucircumflex" unicode="&#xdb;" horiz-adv-x="925" 
d="M961 227l-90 -119.5l-98 -130.5l-90.5 -116.5l-99.5 -121.5q-166 -196 -234 -172q-28 10 -30.5 59.5t17.5 126.5t48 162t67.5 182l70.5 169.5l61.5 141.5t35.5 82q-97 -168 -238 -370q-237 -334 -319 -334q-13 0 -22 3q-31 10 -38.5 50t7 105t37.5 132.5t58 155.5
l40 98.5l40.5 98.5l34.5 87.5t28 80.5t15 61.5t1.5 46.5t-18.5 20q-22 8 -76 -35q-84 -68 -166 -193.5t-140 -250.5q-4 -6 -10 -3q-6 1 -4 9q31 66 70 138q24 42 56.5 90.5t76.5 107t90.5 100.5t82.5 50q15 3 24 1q62 -14 -13 -235q-24 -71 -107 -281l-41 -104t-34 -93.5
t-26 -87.5t-10.5 -66t6 -50t29.5 -21q54 -10 184 152q205 251 397 594l18 35q18 34 26 47q6 15 19 10q12 -4 6 -16q-7 -20 -32 -77l-57 -129l-71.5 -162l-75 -177t-67.5 -174.5t-49 -153t-20 -113t20 -55.5q58 -27 221 166l100.5 122.5l88.5 114l99.5 133.5l88.5 118
q5 6 10 1q3 -1 3.5 -4.5t-1.5 -5.5zM435 844q-7 0 -7 7q-1 3 1.5 5.5t4.5 2.5q6 0 14 22.5t17 20.5l7 -14.5t9.5 -18.5t8.5 -10l2 -1q6 -2 5 -8q-2 -8 -9 -6q-16 6 -26 32q-11 -30 -27 -32z" />
    <glyph glyph-name="Udieresis" unicode="&#xdc;" horiz-adv-x="925" 
d="M961 227l-90 -119.5l-98 -130.5l-90.5 -116.5l-99.5 -121.5q-166 -196 -234 -172q-28 10 -30.5 59.5t17.5 126.5t48 162t67.5 182l70.5 169.5l61.5 141.5t35.5 82q-97 -168 -238 -370q-237 -334 -319 -334q-13 0 -22 3q-31 10 -38.5 50t7 105t37.5 132.5t58 155.5
l40 98.5l40.5 98.5l34.5 87.5t28 80.5t15 61.5t1.5 46.5t-18.5 20q-22 8 -76 -35q-84 -68 -166 -193.5t-140 -250.5q-4 -6 -10 -3q-6 1 -4 9q31 66 70 138q24 42 56.5 90.5t76.5 107t90.5 100.5t82.5 50q15 3 24 1q62 -14 -13 -235q-24 -71 -107 -281l-41 -104t-34 -93.5
t-26 -87.5t-10.5 -66t6 -50t29.5 -21q54 -10 184 152q205 251 397 594l18 35q18 34 26 47q6 15 19 10q12 -4 6 -16q-7 -20 -32 -77l-57 -129l-71.5 -162l-75 -177t-67.5 -174.5t-49 -153t-20 -113t20 -55.5q58 -27 221 166l100.5 122.5l88.5 114l99.5 133.5l88.5 118
q5 6 10 1q3 -1 3.5 -4.5t-1.5 -5.5zM488 874h2q1 0 1 -1h2q5 -6 2 -11q-6 -10 -14 -3q-10 7 -1 12q3 2 8 3zM452 874h2q1 0 1 -1h2q5 -6 2 -11q-6 -10 -14 -3q-10 7 -1 12q3 2 8 3z" />
    <glyph glyph-name="Yacute" unicode="&#xdd;" horiz-adv-x="873" 
d="M323 -232l278 682q-91 -156 -220 -340q-237 -334 -319 -334q-102 -1 -35 224q27 95 137 365q95 237 99 304q3 40 -18 46q-24 6 -76 -35q-84 -68 -166 -193.5t-140 -250.5q-4 -6 -10 -3q-6 2 -3 9q31 70 70 137q33 58 79.5 127t113 140t112.5 82q17 5 28 0
q58 -22 -16 -237q-16 -46 -120 -310q-101 -257 -99 -336q2 -55 45 -55q73 1 306 329q176 251 276 436q9 24 29 72q4 10 21 10q6 -2 6 -5l-342 -838l31 22q318 229 511 421q5 5 10 0t0 -10q-147 -145 -315 -276q-6 -5 -247 -181l-120 -290q-57 -140 -93 -197
q-63 -101 -114 -83q-29 10 -37 51.5t-2.5 79t15.5 67.5q14 44 33 82t46 72t49.5 59t61.5 56l63.5 49zM202 -525l111 269l-83.5 -62t-71.5 -61t-67 -71.5t-48 -79.5t-38 -100q-6 -24 -9.5 -54t3.5 -64.5t31 -39.5q21 -4 43.5 14.5t44.5 58.5t35 68t31 75zM547 900q2 -7 -6 -9
q-6 -1 -13 -9.5l-12.5 -15t-9.5 -3.5q-11 7 24 42q12 11 17 -5z" />
    <glyph glyph-name="Thorn" unicode="&#xde;" horiz-adv-x="331" 
d="M274 541q-1 -3 -59 -140q29 18 58 6t37.5 -46.5t-16.5 -89.5q-14 -28 -36.5 -45.5t-44 -21t-40 6.5t-25.5 34l-44 -98t-39 -80t-32 -54t-18 -10q-2 4 -2 6q0 6 7 6h2q48 75 128 283.5t97 244.5q3 8 21 4q6 -3 6 -6zM203 370l-2 -2l-42 -99q0 -36 20.5 -47t47 4.5
t42.5 48.5q38 80 6 112q-21 21 -52 2q-12 -7 -20 -19z" />
    <glyph glyph-name="germandbls" unicode="&#xdf;" horiz-adv-x="483" 
d="M290 529l-218 -503q-5 -8 -25 -20q-9 -4 -8 0q0 1 1 2q12 27 56 133l92 217.5t84 182.5q2 3 28 6q56 4 84.5 -18.5t26 -53.5t-27.5 -63t-64 -45q50 -14 83 -45t44 -69.5t9.5 -81t-19.5 -81t-44 -68.5t-64 -44t-78 -6q-64 12 -82 69t12.5 109.5t86.5 55.5q7 0 7 -8
q0 -7 -8 -7q-35 -1 -59.5 -30.5t-30 -65t14 -68.5t62.5 -41q79 -16 134 60q50 70 44 159q-7 99 -84 137q-18 9 -38 13q-2 0 -5.5 0.5t-12.5 2t-10 4.5t1 9q6 2 7 2q77 16 96 71q15 43 -15 72t-80 13z" />
    <glyph glyph-name="agrave" unicode="&#xe0;" horiz-adv-x="391" 
d="M128 161q13 18 17 22q5 8 19 5t7 -21q-2 -4 -13 -29q-87 -189 -48 -189q13 1 29.5 9.5t36 23.5t38.5 32t42 41l40.5 42.5t39 44l33 39l28 33.5t18.5 22q4 5 10 1q5 -5 1 -10q-123 -148 -184 -207q-91 -87 -135 -86q-16 0 -25.5 8t-10.5 22.5t1 29.5t9 35.5l12 34.5t13 32
t10 22q-109 -154 -165 -108q-15 13 -17 42t8.5 62t28 64t43 51.5t51.5 21.5q41 1 54 -27t9 -63zM111 138q1 17 1.5 40t-12 40t-36.5 10q-30 -9 -61.5 -52.5t-42.5 -85t2 -65.5q32 -38 149 113zM170 437q6 17 17 5q35 -35 24 -42q-4 -3 -9.5 3.5l-12.5 15t-13 9.5q-8 2 -6 9z
" />
    <glyph glyph-name="aacute" unicode="&#xe1;" horiz-adv-x="391" 
d="M128 161q13 18 17 22q5 8 19 5t7 -21q-2 -4 -13 -29q-87 -189 -48 -189q13 1 29.5 9.5t36 23.5t38.5 32t42 41l40.5 42.5t39 44l33 39l28 33.5t18.5 22q4 5 10 1q5 -5 1 -10q-123 -148 -184 -207q-91 -87 -135 -86q-16 0 -25.5 8t-10.5 22.5t1 29.5t9 35.5l12 34.5t13 32
t10 22q-109 -154 -165 -108q-15 13 -17 42t8.5 62t28 64t43 51.5t51.5 21.5q41 1 54 -27t9 -63zM111 138q1 17 1.5 40t-12 40t-36.5 10q-30 -9 -61.5 -52.5t-42.5 -85t2 -65.5q32 -38 149 113zM220 434q2 -7 -6 -9q-6 -1 -13 -9.5l-12.5 -15t-9.5 -3.5q-11 7 24 42
q11 11 17 -5z" />
    <glyph glyph-name="acircumflex" unicode="&#xe2;" horiz-adv-x="391" 
d="M128 161q13 18 17 22q5 8 19 5t7 -21q-2 -4 -13 -29q-87 -189 -48 -189q13 1 29.5 9.5t36 23.5t38.5 32t42 41l40.5 42.5t39 44l33 39l28 33.5t18.5 22q4 5 10 1q5 -5 1 -10q-123 -148 -184 -207q-91 -87 -135 -86q-16 0 -25.5 8t-10.5 22.5t1 29.5t9 35.5l12 34.5t13 32
t10 22q-109 -154 -165 -108q-15 13 -17 42t8.5 62t28 64t43 51.5t51.5 21.5q41 1 54 -27t9 -63zM111 138q1 17 1.5 40t-12 40t-36.5 10q-30 -9 -61.5 -52.5t-42.5 -85t2 -65.5q32 -38 149 113zM168 405q-7 0 -7 7q-1 3 1.5 5.5t4.5 2.5q6 0 14 22.5t17 20.5l7 -14.5
t9.5 -18.5t8.5 -10l2 -1q6 -2 5 -8q-2 -8 -9 -6q-16 6 -26 32q-11 -30 -27 -32z" />
    <glyph glyph-name="atilde" unicode="&#xe3;" horiz-adv-x="391" 
d="M128 161q13 18 17 22q5 8 19 5t7 -21q-2 -4 -13 -29q-87 -189 -48 -189q13 1 29.5 9.5t36 23.5t38.5 32t42 41l40.5 42.5t39 44l33 39l28 33.5t18.5 22q4 5 10 1q5 -5 1 -10q-123 -148 -184 -207q-91 -87 -135 -86q-16 0 -25.5 8t-10.5 22.5t1 29.5t9 35.5l12 34.5t13 32
t10 22q-109 -154 -165 -108q-15 13 -17 42t8.5 62t28 64t43 51.5t51.5 21.5q41 1 54 -27t9 -63zM111 138q1 17 1.5 40t-12 40t-36.5 10q-30 -9 -61.5 -52.5t-42.5 -85t2 -65.5q32 -38 149 113zM169 412q0 11 6.5 13t19 -1.5t13.5 -3.5q2 5 6 5q8 2 8 -6q0 -11 -6.5 -13
t-19.5 2l-13 3q-2 -5 -7 -6q-7 0 -7 7z" />
    <glyph glyph-name="adieresis" unicode="&#xe4;" horiz-adv-x="391" 
d="M128 161q13 18 17 22q5 8 19 5t7 -21q-2 -4 -13 -29q-87 -189 -48 -189q13 1 29.5 9.5t36 23.5t38.5 32t42 41l40.5 42.5t39 44l33 39l28 33.5t18.5 22q4 5 10 1q5 -5 1 -10q-123 -148 -184 -207q-91 -87 -135 -86q-16 0 -25.5 8t-10.5 22.5t1 29.5t9 35.5l12 34.5t13 32
t10 22q-109 -154 -165 -108q-15 13 -17 42t8.5 62t28 64t43 51.5t51.5 21.5q41 1 54 -27t9 -63zM111 138q1 17 1.5 40t-12 40t-36.5 10q-30 -9 -61.5 -52.5t-42.5 -85t2 -65.5q32 -38 149 113zM185 423h2q1 0 1 -1h2q4 -6 2 -11q-6 -10 -14 -3q-10 7 -1 12q3 2 8 3zM221 423
h2q1 0 1 -1h2q4 -6 2 -11q-6 -10 -14 -3q-10 7 -1 12q3 2 8 3z" />
    <glyph glyph-name="aring" unicode="&#xe5;" horiz-adv-x="391" 
d="M128 161q13 18 17 22q5 8 19 5t7 -21q-2 -4 -13 -29q-87 -189 -48 -189q13 1 29.5 9.5t36 23.5t38.5 32t42 41l40.5 42.5t39 44l33 39l28 33.5t18.5 22q4 5 10 1q5 -5 1 -10q-123 -148 -184 -207q-91 -87 -135 -86q-16 0 -25.5 8t-10.5 22.5t1 29.5t9 35.5l12 34.5t13 32
t10 22q-109 -154 -165 -108q-15 13 -17 42t8.5 62t28 64t43 51.5t51.5 21.5q41 1 54 -27t9 -63zM111 138q1 17 1.5 40t-12 40t-36.5 10q-30 -9 -61.5 -52.5t-42.5 -85t2 -65.5q32 -38 149 113zM201 438h3q10 -1 15 -8.5t3 -16t-8 -12.5q-18 -13 -29.5 4t4.5 28q5 4 12 5z
M203 424q-12 -2 -8 -9q5 -8 11 -3q1 2 2 5q2 7 -5 7z" />
    <glyph glyph-name="ae" unicode="&#xe6;" horiz-adv-x="485" 
d="M165 149q-25 -74 -1 -112q38 -59 167 35q44 32 97 82q29 27 85 85q4 6 10 0q5 -5 0 -10q-153 -160 -244 -207q-74 -40 -127.5 -12t-35.5 108q-109 -154 -165 -108q-15 13 -17 42t8.5 62t28 64t43 51.5t51.5 21.5q41 1 54 -27t9 -63q13 18 17 22q1 2 7 4l9 15q19 28 38 39
q21 10 39 10t29 -9t8 -20q-12 -43 -110 -73zM111 138q1 17 1.5 40t-12 40t-36.5 10q-30 -9 -61.5 -52.5t-42.5 -85t2 -65.5q32 -38 149 113zM172 166q73 24 89 58q5 11 -12 12q-24 2 -44 -19q-19 -19 -33 -51z" />
    <glyph glyph-name="ccedilla" unicode="&#xe7;" horiz-adv-x="316" 
d="M79 200q12 13 10 25t-20 9q-28 -4 -52 -40q-26 -42 -31.5 -93t19.5 -77t98 9q89 47 240 205q6 4 10 0q5 -5 0 -10q-145 -156 -244 -207q-39 -19 -69 -21q0 -2 -0.5 -8t-0.5 -10h11.5t9 -4.5t2.5 -14.5q-1 -5 -4 -9t-7 -5.5t-10.5 -2.5t-10.5 -1h-11h-8q-7 0 -7 7t7 7
q33 0 36 4q2 3 0 6h-1q-19 0 -20.5 3t0.5 29q-38 4 -55 37t-7 87q9 51 35.5 90.5t68.5 35.5q29 -3 35 -20.5t-13 -40.5q-5 -5 -10.5 0t-0.5 10z" />
    <glyph glyph-name="egrave" unicode="&#xe8;" horiz-adv-x="313" 
d="M-7 149q-25 -74 -1 -112q38 -59 167 35q44 32 97 82q29 27 85 85q4 6 10 0q5 -5 0 -10q-153 -160 -244 -207q-79 -37 -114 -11t-35 84t31 107q19 28 38 39q21 10 39 10t29 -9t8 -20q-12 -43 -110 -73zM0 166q73 24 89 58q5 11 -12 12q-24 2 -44 -19q-19 -19 -33 -51z
M49 443q5 17 17 5q35 -35 24 -42q-4 -3 -9.5 3.5l-12.5 15t-13 9.5q-8 2 -6 9z" />
    <glyph glyph-name="eacute" unicode="&#xe9;" horiz-adv-x="313" 
d="M-7 149q-25 -74 -1 -112q38 -59 167 35q44 32 97 82q29 27 85 85q4 6 10 0q5 -5 0 -10q-153 -160 -244 -207q-79 -37 -114 -11t-35 84t31 107q19 28 38 39q21 10 39 10t29 -9t8 -20q-12 -43 -110 -73zM0 166q73 24 89 58q5 11 -12 12q-24 2 -44 -19q-19 -19 -33 -51z
M113 439q2 -7 -6 -9q-6 -1 -13 -9.5l-12.5 -15t-9.5 -3.5q-11 7 24 42q12 12 17 -5z" />
    <glyph glyph-name="ecircumflex" unicode="&#xea;" horiz-adv-x="313" 
d="M-7 149q-25 -74 -1 -112q38 -59 167 35q44 32 97 82q29 27 85 85q4 6 10 0q5 -5 0 -10q-153 -160 -244 -207q-79 -37 -114 -11t-35 84t31 107q19 28 38 39q21 10 39 10t29 -9t8 -20q-12 -43 -110 -73zM0 166q73 24 89 58q5 11 -12 12q-24 2 -44 -19q-19 -19 -33 -51z
M54 397q-7 0 -7 7q-1 3 1.5 5.5t4.5 2.5q6 0 14 22.5t17 20.5l7 -14.5t9.5 -18.5t8.5 -10l2 -1q6 -2 5 -8q-2 -8 -9 -6q-16 6 -26 32q-11 -30 -27 -32z" />
    <glyph glyph-name="edieresis" unicode="&#xeb;" horiz-adv-x="313" 
d="M-7 149q-25 -74 -1 -112q38 -59 167 35q44 32 97 82q29 27 85 85q4 6 10 0q5 -5 0 -10q-153 -160 -244 -207q-79 -37 -114 -11t-35 84t31 107q19 28 38 39q21 10 39 10t29 -9t8 -20q-12 -43 -110 -73zM0 166q73 24 89 58q5 11 -12 12q-24 2 -44 -19q-19 -19 -33 -51z
M57 418h2q1 0 1 -1h2q4 -6 2 -11q-6 -10 -14 -3q-10 7 -1 12q3 2 8 3zM93 418h2q1 0 1 -1h2q4 -6 2 -11q-6 -10 -14 -3q-10 7 -1 12q3 2 8 3z" />
    <glyph glyph-name="igrave" unicode="&#xec;" horiz-adv-x="248" 
d="M46 230q-1 -8 -16 -56q-47 -146 -29 -159q2 -2 7 -1l19 4q73 24 244 219q4 6 10 0q5 -4 1 -10q-201 -230 -280 -227q-14 1 -21 12t-7 29t4 40t11 46l13.5 44.5l12.5 38.5t7 25q1 4 7 4.5t11.5 -2.5t5.5 -7zM26 439q6 17 17 5q35 -35 24 -42q-4 -3 -9.5 3.5l-12.5 15
t-13 9.5q-8 2 -6 9z" />
    <glyph glyph-name="iacute" unicode="&#xed;" horiz-adv-x="248" 
d="M46 230q-1 -8 -16 -56q-47 -146 -29 -159q2 -2 7 -1l19 4q73 24 244 219q4 6 10 0q5 -4 1 -10q-201 -230 -280 -227q-14 1 -21 12t-7 29t4 40t11 46l13.5 44.5l12.5 38.5t7 25q1 4 7 4.5t11.5 -2.5t5.5 -7zM71 439q2 -7 -6 -9q-6 -1 -13 -9.5l-12.5 -15t-9.5 -3.5
q-11 7 24 42q12 12 17 -5z" />
    <glyph glyph-name="icircumflex" unicode="&#xee;" horiz-adv-x="248" 
d="M46 230q-1 -8 -16 -56q-47 -146 -29 -159q2 -2 7 -1l19 4q73 24 244 219q4 6 10 0q5 -4 1 -10q-201 -230 -280 -227q-14 1 -21 12t-7 29t4 40t11 46l13.5 44.5l12.5 38.5t7 25q1 4 7 4.5t11.5 -2.5t5.5 -7zM37 399q-7 0 -7 7q-1 3 1.5 5.5t4.5 2.5q6 0 14 22.5t17 20.5
l7 -14.5t9.5 -18.5t8.5 -10l2 -1q6 -2 5 -8q-2 -8 -9 -6q-16 6 -26 32q-11 -30 -27 -32z" />
    <glyph glyph-name="idieresis" unicode="&#xef;" horiz-adv-x="248" 
d="M46 230q-1 -8 -16 -56q-47 -146 -29 -159q2 -2 7 -1l19 4q73 24 244 219q4 6 10 0q5 -4 1 -10q-201 -230 -280 -227q-14 1 -21 12t-7 29t4 40t11 46l13.5 44.5l12.5 38.5t7 25q1 4 7 4.5t11.5 -2.5t5.5 -7zM84 418h2q1 0 1 -1h2q5 -6 2 -11q-6 -10 -14 -3q-10 7 -1 12
q3 2 8 3zM48 418h2q1 0 1 -1h2q5 -6 2 -11q-6 -10 -14 -3q-10 7 -1 12q3 2 8 3z" />
    <glyph glyph-name="ntilde" unicode="&#xf1;" horiz-adv-x="414" 
d="M51 232q-77 -183 -95 -233q150 225 212 186q31 -21 8 -98q-16 -56 -14 -65q2 -11 16 -8q12 2 19 5q25 8 62.5 38t64 57l67.5 70.5l50 52.5q5 5 10 1q5 -5 1 -10q-8 -8 -54 -57t-78.5 -80.5t-76.5 -61.5t-71 -29q-26 1 -29.5 27t7 57t14.5 58.5t-6 31.5q-21 7 -52.5 -17
t-65 -66.5t-55 -73.5t-38.5 -58l-2.5 -2.5t-5.5 -6t-8.5 -7.5l-9 -6t-8 -2t-5.5 5q-3 6 46 127l70 170q3 9 20 3q9 -3 7 -8zM102 400q0 11 6.5 13t19 -1.5t13.5 -3.5q2 5 6 5q8 2 8 -6q0 -11 -6.5 -13t-19.5 2l-13 3q-2 -5 -7 -6q-7 0 -7 7z" />
    <glyph glyph-name="ograve" unicode="&#xf2;" horiz-adv-x="249" 
d="M61 225q-23 5 -54 -53q-38 -71 -32 -121q3 -30 26 -34q28 -5 58 27.5t47.5 74.5t16.5 68q-37 14 -47 38q-7 18 14 18h2q37 -1 44 -45q70 -16 136 40q6 4 10 -2q6 -6 1 -10q-15 -12 -26 -19q-62 -37 -120 -24q1 -30 -19 -75t-54.5 -78.5t-68.5 -24.5q-49 12 -39 93
q9 71 48 120q32 39 58 24q7 -3 6 -12q-1 -6 -7 -5zM121 203q-5 25 -27 26q-5 0 -5 -2q0 -10 25 -21q3 -2 7 -3zM104 437q6 17 17 5q35 -35 24 -42q-4 -3 -9.5 3.5l-12.5 15t-13 9.5q-8 2 -6 9z" />
    <glyph glyph-name="oacute" unicode="&#xf3;" horiz-adv-x="249" 
d="M61 225q-23 5 -54 -53q-38 -71 -32 -121q3 -30 26 -34q28 -5 58 27.5t47.5 74.5t16.5 68q-37 14 -47 38q-7 18 14 18h2q37 -1 44 -45q70 -16 136 40q6 4 10 -2q6 -6 1 -10q-15 -12 -26 -19q-62 -37 -120 -24q1 -30 -19 -75t-54.5 -78.5t-68.5 -24.5q-49 12 -39 93
q9 71 48 120q32 39 58 24q7 -3 6 -12q-1 -6 -7 -5zM121 203q-5 25 -27 26q-5 0 -5 -2q0 -10 25 -21q3 -2 7 -3zM119 437q2 -7 -6 -9q-6 -1 -13 -9.5l-12.5 -15t-9.5 -3.5q-11 7 24 42q12 12 17 -5z" />
    <glyph glyph-name="ocircumflex" unicode="&#xf4;" horiz-adv-x="249" 
d="M61 225q-23 5 -54 -53q-38 -71 -32 -121q3 -30 26 -34q28 -5 58 27.5t47.5 74.5t16.5 68q-37 14 -47 38q-7 18 14 18h2q37 -1 44 -45q70 -16 136 40q6 4 10 -2q6 -6 1 -10q-15 -12 -26 -19q-62 -37 -120 -24q1 -30 -19 -75t-54.5 -78.5t-68.5 -24.5q-49 12 -39 93
q9 71 48 120q32 39 58 24q7 -3 6 -12q-1 -6 -7 -5zM121 203q-5 25 -27 26q-5 0 -5 -2q0 -10 25 -21q3 -2 7 -3zM69 398q-7 0 -7 7q-1 3 1.5 5.5t4.5 2.5q6 0 14 22.5t17 20.5l7 -14.5t9.5 -18.5t8.5 -10l2 -1q6 -2 5 -8q-2 -8 -9 -6q-16 6 -26 32q-11 -30 -27 -32z" />
    <glyph glyph-name="otilde" unicode="&#xf5;" horiz-adv-x="249" 
d="M61 225q-23 5 -54 -53q-38 -71 -32 -121q3 -30 26 -34q28 -5 58 27.5t47.5 74.5t16.5 68q-37 14 -47 38q-7 18 14 18h2q37 -1 44 -45q70 -16 136 40q6 4 10 -2q6 -6 1 -10q-15 -12 -26 -19q-62 -37 -120 -24q1 -30 -19 -75t-54.5 -78.5t-68.5 -24.5q-49 12 -39 93
q9 71 48 120q32 39 58 24q7 -3 6 -12q-1 -6 -7 -5zM121 203q-5 25 -27 26q-5 0 -5 -2q0 -10 25 -21q3 -2 7 -3zM62 407q0 11 6.5 13t19 -1.5t13.5 -3.5q2 5 6 5q8 2 8 -6q0 -11 -6.5 -13t-19.5 1l-13 4q-2 -5 -7 -6q-7 0 -7 7z" />
    <glyph glyph-name="odieresis" unicode="&#xf6;" horiz-adv-x="249" 
d="M61 225q-23 5 -54 -53q-38 -71 -32 -121q3 -30 26 -34q28 -5 58 27.5t47.5 74.5t16.5 68q-37 14 -47 38q-7 18 14 18h2q37 -1 44 -45q70 -16 136 40q6 4 10 -2q6 -6 1 -10q-15 -12 -26 -19q-62 -37 -120 -24q1 -30 -19 -75t-54.5 -78.5t-68.5 -24.5q-49 12 -39 93
q9 71 48 120q32 39 58 24q7 -3 6 -12q-1 -6 -7 -5zM121 203q-5 25 -27 26q-5 0 -5 -2q0 -10 25 -21q3 -2 7 -3zM79 420h2q1 0 1 -1h2q4 -6 2 -11q-6 -10 -14 -3q-10 7 -1 12q3 2 8 3zM115 420h2q1 0 1 -1h2q4 -6 2 -11q-6 -10 -14 -3q-10 7 -1 12q3 2 8 3z" />
    <glyph glyph-name="divide" unicode="&#xf7;" horiz-adv-x="305" 
d="M169 371q2 2 2 0h1q2 0 2 -1h1q0 -1 1 -1q7 -9 3 -15q-8 -14 -20 -5t-4 17q5 4 14 5zM121 252q2 2 2 0h1q2 0 2 -1h1q0 -1 1 -1q7 -9 3 -15q-8 -14 -20 -5t-4 17q5 4 14 5zM43 319l212 -2q1 0 3 -7q0 -7 -3 -7q-136 0 -212 2q-3 0 -3 7t3 7z" />
    <glyph glyph-name="oslash" unicode="&#xf8;" horiz-adv-x="249" 
d="M148 342l-43 -101q24 -8 31 -43q70 -16 136 40q6 4 10 -2q6 -6 1 -10q-15 -12 -26 -19q-62 -37 -120 -24q1 -49 -43 -117t-93 -62q-35 -73 -45 -66q-1 1 -1 4q0 4 5 4q1 0 2 -1q16 25 32 60q-49 13 -37 95q10 72 49 120q31 37 56 22q7 -3 6 -12q-1 -6 -7 -5
q-12 3 -29 -16t-30.5 -48.5t-22 -60.5t-3.5 -54.5t24 -28.5q15 35 79 202q-15 22 9 24q23 61 41 101q3 6 16 2q4 -2 3 -4zM123 187q-18 5 -32 18q-57 -132 -84 -189q27 0 55.5 33t45 73.5t15.5 64.5zM121 203q-5 21 -21 25l-4 -11q8 -8 25 -14z" />
    <glyph glyph-name="ugrave" unicode="&#xf9;" horiz-adv-x="386" 
d="M51 234q-1 -8 -11 -33.5l-21 -53t-21 -58.5t-11 -49.5t11 -24.5q18 -6 47 25t51.5 68t41.5 75q1 4 9 4q18 2 18 -7l-30 -71q-45 -117 -45 -143q1 -18 14 -17t29.5 9.5t36 23.5t38.5 32t42 41l40.5 42.5t39 44l33 39l28 33.5t18.5 22q5 6 11 0q5 -4 1 -10q-3 -4 -22 -26.5
l-31 -37l-35 -41t-41 -45l-41.5 -42.5t-42.5 -40t-39 -31t-37.5 -22.5t-30.5 -7.5q-60 2 -6 143q-57 -87 -103 -75q-19 4 -23.5 26t3 53.5t18 61.5l21.5 59t13 38q0 4 7 4t13.5 -2.5t6.5 -6.5zM66 433q6 17 17 5q35 -35 24 -42q-4 -3 -9.5 3.5l-12.5 15t-13 9.5q-8 2 -6 9z
" />
    <glyph glyph-name="uacute" unicode="&#xfa;" horiz-adv-x="386" 
d="M51 234q-1 -8 -11 -33.5l-21 -53t-21 -58.5t-11 -49.5t11 -24.5q18 -6 47 25t51.5 68t41.5 75q1 4 9 4q18 2 18 -7l-30 -71q-45 -117 -45 -143q1 -18 14 -17t29.5 9.5t36 23.5t38.5 32t42 41l40.5 42.5t39 44l33 39l28 33.5t18.5 22q5 6 11 0q5 -4 1 -10q-3 -4 -22 -26.5
l-31 -37l-35 -41t-41 -45l-41.5 -42.5t-42.5 -40t-39 -31t-37.5 -22.5t-30.5 -7.5q-60 2 -6 143q-57 -87 -103 -75q-19 4 -23.5 26t3 53.5t18 61.5l21.5 59t13 38q0 4 7 4t13.5 -2.5t6.5 -6.5zM145 437q2 -7 -6 -9q-6 -1 -13 -9.5l-12.5 -15t-9.5 -3.5q-11 7 24 42
q12 12 17 -5z" />
    <glyph glyph-name="ucircumflex" unicode="&#xfb;" horiz-adv-x="386" 
d="M51 234q-1 -8 -11 -33.5l-21 -53t-21 -58.5t-11 -49.5t11 -24.5q18 -6 47 25t51.5 68t41.5 75q1 4 9 4q18 2 18 -7l-30 -71q-45 -117 -45 -143q1 -18 14 -17t29.5 9.5t36 23.5t38.5 32t42 41l40.5 42.5t39 44l33 39l28 33.5t18.5 22q5 6 11 0q5 -4 1 -10q-3 -4 -22 -26.5
l-31 -37l-35 -41t-41 -45l-41.5 -42.5t-42.5 -40t-39 -31t-37.5 -22.5t-30.5 -7.5q-60 2 -6 143q-57 -87 -103 -75q-19 4 -23.5 26t3 53.5t18 61.5l21.5 59t13 38q0 4 7 4t13.5 -2.5t6.5 -6.5zM104 400q-7 0 -7 7q-1 3 1.5 5.5t4.5 2.5q6 0 14 22.5t17 20.5l7 -14.5
t9.5 -18.5t8.5 -10l2 -1q6 -2 5 -8q-2 -8 -9 -6q-16 6 -26 32q-11 -30 -27 -32z" />
    <glyph glyph-name="udieresis" unicode="&#xfc;" horiz-adv-x="386" 
d="M51 234q-1 -8 -11 -33.5l-21 -53t-21 -58.5t-11 -49.5t11 -24.5q18 -6 47 25t51.5 68t41.5 75q1 4 9 4q18 2 18 -7l-30 -71q-45 -117 -45 -143q1 -18 14 -17t29.5 9.5t36 23.5t38.5 32t42 41l40.5 42.5t39 44l33 39l28 33.5t18.5 22q5 6 11 0q5 -4 1 -10q-3 -4 -22 -26.5
l-31 -37l-35 -41t-41 -45l-41.5 -42.5t-42.5 -40t-39 -31t-37.5 -22.5t-30.5 -7.5q-60 2 -6 143q-57 -87 -103 -75q-19 4 -23.5 26t3 53.5t18 61.5l21.5 59t13 38q0 4 7 4t13.5 -2.5t6.5 -6.5zM170 423h2q1 0 1 -1h2q5 -6 2 -11q-6 -10 -14 -3q-10 7 -1 12q3 2 8 3zM134 423
h2q1 0 1 -1h2q5 -6 2 -11q-6 -10 -14 -3q-10 7 -1 12q3 2 8 3z" />
    <glyph glyph-name="yacute" unicode="&#xfd;" horiz-adv-x="308" 
d="M53 233q-1 -8 -10.5 -33t-21 -52.5t-21 -58.5t-10.5 -49t11 -24q26 -8 66 47t71 120l18 49q3 9 21 7q7 -2 7 -6q-42 -121 -70 -189l77.5 58t70.5 60t76 77q4 5 10 1q5 -5 1 -10l-16 -19q-18 -20 -39 -40l-34.5 -33t-41.5 -34.5l-35.5 -27.5t-42 -31.5t-37.5 -27.5
l-46 -114q-57 -142 -106 -225q-63 -107 -120 -110q-38 -2 -50 44q-16 58 26 136q11 20 23.5 39l22.5 33.5t26.5 32.5l25.5 28t29 27.5t27 24.5t30 24.5t27.5 21.5t30 23t28.5 21l26 64q-59 -97 -108 -85q-19 5 -23.5 26.5t3 52.5t17.5 60.5t21 58.5t13 38q1 6 14.5 3.5
t12.5 -8.5zM29 -96l38 92l-25.5 -19l-27.5 -20.5l-26 -20t-27.5 -22.5l-25 -22.5t-26.5 -25.5l-23.5 -26.5t-24 -30.5l-21 -31.5t-20.5 -35.5q-22 -42 -27 -80t6 -56.5t30 -22t48 23.5t57 79q16 29 33 66.5t27.5 64.5l22 55.5t12.5 31.5zM149 437q2 -7 -6 -9q-6 -1 -13 -9.5
l-12.5 -15t-9.5 -3.5q-11 7 24 42q12 12 17 -5z" />
    <glyph glyph-name="thorn" unicode="&#xfe;" horiz-adv-x="304" 
d="M163 255q43 25 77 -9.5t11 -98.5q-21 -56 -28 -70q-14 -28 -36.5 -45.5t-44 -21t-40 6.5t-25.5 34q-22 -51 -41 -90.5l-36.5 -73.5t-30 -49t-17.5 -8q-1 2 -1 6q-1 2 1.5 4t5.5 2q1 0 2 -1q47 75 116.5 258.5t90.5 228.5q3 7 20 3q6 -3 6 -6q-2 -4 -6 -14t-11 -26zM88 75
q0 -36 20.5 -46.5t46.5 5.5t42 49q14 28 26 64q28 71 -4 95q-24 19 -54 -4q-8 -6 -14 -14z" />
    <glyph glyph-name="ydieresis" unicode="&#xff;" horiz-adv-x="308" 
d="M53 233q-1 -8 -10.5 -33t-21 -52.5t-21 -58.5t-10.5 -49t11 -24q26 -8 66 47t71 120l18 49q3 9 21 7q7 -2 7 -6q-42 -121 -70 -189l77.5 58t70.5 60t76 77q4 5 10 1q5 -5 1 -10l-16 -19q-18 -20 -39 -40l-34.5 -33t-41.5 -34.5l-35.5 -27.5t-42 -31.5t-37.5 -27.5
l-46 -114q-57 -142 -106 -225q-63 -107 -120 -110q-38 -2 -50 44q-16 58 26 136q11 20 23.5 39l22.5 33.5t26.5 32.5l25.5 28t29 27.5t27 24.5t30 24.5t27.5 21.5t30 23t28.5 21l26 64q-59 -97 -108 -85q-19 5 -23.5 26.5t3 52.5t17.5 60.5t21 58.5t13 38q1 6 14.5 3.5
t12.5 -8.5zM29 -96l38 92l-25.5 -19l-27.5 -20.5l-26 -20t-27.5 -22.5l-25 -22.5t-26.5 -25.5l-23.5 -26.5t-24 -30.5l-21 -31.5t-20.5 -35.5q-22 -42 -27 -80t6 -56.5t30 -22t48 23.5t57 79q16 29 33 66.5t27.5 64.5l22 55.5t12.5 31.5zM121 426h2q1 0 1 -1h2q4 -6 2 -11
q-6 -10 -14 -3q-10 7 -1 12q3 2 8 3zM157 426h2q1 0 1 -1h2q4 -6 2 -11q-6 -10 -14 -3q-10 7 -1 12q3 2 8 3z" />
    <glyph glyph-name="dotlessi" unicode="&#x131;" horiz-adv-x="248" 
d="M46 230q-1 -8 -16 -56q-47 -146 -29 -159q2 -2 7 -1l19 4q73 24 244 219q4 6 10 0q5 -4 1 -10q-201 -230 -280 -227q-14 1 -21 12t-7 29t4 40t11 46l13.5 44.5l12.5 38.5t7 25q1 4 7 4.5t11.5 -2.5t5.5 -7z" />
    <glyph glyph-name="Lslash" unicode="&#x141;" horiz-adv-x="569" 
d="M606 225l-685 -643q-8 -8 -25 -13q-8 -2 -8 4q1 1 1 2q2 6 33 77l82.5 191l96.5 228l-85 -41q-3 -1 -6 5q-4 5 0 7l100 49q243 591 193 629q-21 16 -81 -33q-84 -68 -166.5 -193.5t-139.5 -250.5q-4 -6 -10 -3q-7 2 -3 9q27 63 70 138q23 40 56 90t76.5 107.5t90.5 100
t82 50.5q17 4 29 0q81 -29 -159 -625l87 43q1 0 6 -5q3 -5 0 -8l-101 -50l-126 -296.5t-84 -183.5l666 626q6 4 10 -1q5 -5 0 -10z" />
    <glyph glyph-name="lslash" unicode="&#x142;" horiz-adv-x="277" 
d="M-97 82l84 55l4 15q29 90 65.5 184.5t93 200t105.5 144.5q29 25 55 15.5t20 -48.5q-12 -78 -103.5 -203t-181.5 -222q-7 -14 -22 -62l89 60q2 1 7 -4l1 -7l-104 -70q-58 -186 -15 -191q49 -5 207 177q53 59 93 109q5 5 10 1q6 -6 1 -11l-22.5 -27l-29 -34.5l-31.5 -36.5
l-35.5 -40l-35 -38t-37 -37l-33.5 -30.5t-32 -25.5t-27 -15q-17 -7 -31 -7q-68 3 -17 182l-70 -45q-3 -1 -6 4q-2 2 -2.5 4t0.5 3zM59 260q87 96 166.5 208.5t90.5 181.5q4 29 -14 33.5t-38 -13.5q-31 -25 -70.5 -99t-68 -142t-58.5 -147q-5 -15 -8 -22z" />
    <glyph glyph-name="OE" unicode="&#x152;" horiz-adv-x="1242" 
d="M768 413q67 22 111 85.5t36 134.5q-7 57 -52.5 86t-103.5 24q-58 -4 -107 -43.5t-71.5 -95t-22.5 -112.5t41.5 -104t118.5 -63l12 -2t13.5 -2t11.5 -2q68 4 75 -4t-6 -12h-1h-19q-31 0 -46 2q-100 -3 -184 -42.5t-133 -97.5t-70.5 -123.5t-6.5 -120.5l3 -2q-2 0 -2 -2
q16 -53 63.5 -85t126.5 -34q64 -1 135.5 22t142 66t124.5 82.5t115 90.5q105 88 196 179q4 6 10 0q5 -5 0 -10q-144 -144 -309 -268.5t-303 -162.5q-56 -14 -110 -13q-162 4 -208 113q-109 -122 -217 -112q-58 5 -99 52q-39 46 -50 125.5t2 167t44 180.5q13 108 61.5 206.5
t120.5 155.5q84 68 181 57q123 -15 153 -150q21 72 78 123t134 56q70 5 121.5 -32.5t52.5 -106.5q2 -72 -43.5 -134.5t-115.5 -85.5q-6 -2 -8 5t5 9zM390 715q-47 6 -97.5 -13t-90.5 -56q-104 -95 -145 -260q74 177 163 248q29 23 53.5 30.5t59.5 3.5q7 -2 5 -8q-2 -8 -9 -6
q-31 4 -52.5 -3.5t-47.5 -28.5q-52 -41 -102 -126.5t-85 -190.5q-11 -89 8 -164q60 -237 284 -186q-4 54 20 112t69 109t116 89t154 50h3q-76 20 -116.5 68.5t-45.5 110.5v4q-1 6 -1 18q-7 180 -143 199zM24 247q-36 -115 -33 -228.5t52 -171.5q36 -41 90 -48
q100 -10 206 125q-2 5 -4 17q-237 -52 -299 197q-12 45 -12 109z" />
    <glyph glyph-name="oe" unicode="&#x153;" horiz-adv-x="458" 
d="M138 149q-25 -74 -1 -112q38 -59 167 35q44 32 97 82q29 27 85 85q4 6 10 0q5 -5 0 -10q-153 -160 -244 -207q-48 -26 -79.5 -22t-48 23.5t-20.5 52.5q-51 -85 -105 -71q-49 12 -39 93q9 71 48 120q32 39 58 24q7 -3 6 -12q-1 -6 -7 -5q-23 5 -54 -53q-38 -71 -32 -121
q3 -30 26 -34q26 -5 52.5 21t45.5 67q3 46 22 82q-37 14 -46 38q-6 18 14 18h3q32 -1 42 -35q15 23 34 33q21 10 39 10t29 -9t8 -20q-12 -43 -110 -73zM145 166q73 24 89 58q5 11 -12 12q-24 2 -44 -19q-20 -19 -33 -51zM125 203q-5 25 -27 26q-5 0 -5 -2q0 -10 25 -21
q3 -2 7 -3z" />
    <glyph glyph-name="Scaron" unicode="&#x160;" horiz-adv-x="861" 
d="M376 395q-28 -94 20 -140q28 -24 59 -22t61.5 24t54 49t36.5 54q27 55 30 116.5t-17 114t-68.5 88t-116.5 38.5q-84 4 -154.5 -30t-118.5 -95t-79.5 -134t-47.5 -157q-13 -66 -15.5 -129t5.5 -126t20 -119.5t33 -128.5q22 13 48 27l54.5 29.5l41.5 22.5l672 362
q6 4 10 -2q3 -6 -3 -10l-719 -388l-46.5 -26l-53.5 -30q42 -146 -48 -203q-49 -30 -91 -11q-42 18 -29 68q10 36 51 78q31 32 89 68q-21 79 -33 134t-21.5 122.5t-7 132.5t15.5 133q17 88 50.5 163t84.5 137t126 96.5t166 30.5q75 -3 128 -43.5t73.5 -99t14.5 -126.5
t-40 -126q-17 -28 -42 -54.5t-56 -45.5t-65 -18.5t-62 26.5q-54 53 -24 156q2 6 9 4q7 -3 5 -10zM58 -231q-90 -54 -120 -115q-25 -50 5 -70.5t71 1.5q33 16 45.5 48.5t10.5 62.5t-12 73zM357 914q16 -2 27 -32q10 26 26 32q7 2 9 -6q1 -6 -5 -8l-2 -1q-4 -2 -8.5 -10
t-9.5 -18.5l-7 -14.5q-9 -2 -17 20.5t-14 22.5q-2 0 -4.5 2.5t-1.5 5.5q0 7 7 7z" />
    <glyph glyph-name="scaron" unicode="&#x161;" horiz-adv-x="206" 
d="M-45 7q13 48 96 110q-2 10 -14.5 60t-13.5 79q0 21 14 39.5t33 6.5q13 -6 8 -22.5t-13.5 -29.5t-16.5 -21v-1q4 -23 14 -53t13 -42l1 1q15 10 74 46.5t83 56.5q5 5 10 0t0 -11q-24 -19 -80.5 -54t-65.5 -41l-19 -13q6 -33 0.5 -73.5t-28 -75t-58.5 -34.5q-27 0 -36 23.5
t-1 48.5zM54 101q-74 -56 -85 -101q-4 -18 2 -34t25 -16q39 1 51 51.5t7 99.5zM33 459q16 -2 27 -32q10 26 26 32q7 2 9 -6q1 -6 -5 -8l-2 -1q-4 -2 -8.5 -10t-9.5 -18.5l-7 -14.5q-9 -2 -17 20.5t-14 22.5q-2 0 -4.5 2.5t-1.5 5.5q0 7 7 7zM46 248q23 30 17 42q-6 2 -10 -1
t-5.5 -10t-2 -15.5t0.5 -15.5z" />
    <glyph glyph-name="Ydieresis" unicode="&#x178;" horiz-adv-x="873" 
d="M323 -232l278 682q-91 -156 -220 -340q-237 -334 -319 -334q-102 -1 -35 224q27 95 137 365q95 237 99 304q3 40 -18 46q-24 6 -76 -35q-84 -68 -166 -193.5t-140 -250.5q-4 -6 -10 -3q-6 2 -3 9q31 70 70 137q33 58 79.5 127t113 140t112.5 82q17 5 28 0
q58 -22 -16 -237q-16 -46 -120 -310q-101 -257 -99 -336q2 -55 45 -55q73 1 306 329q176 251 276 436q9 24 29 72q4 10 21 10q6 -2 6 -5l-342 -838l31 22q318 229 511 421q5 5 10 0t0 -10q-147 -145 -315 -276q-6 -5 -247 -181l-120 -290q-57 -140 -93 -197
q-63 -101 -114 -83q-29 10 -37 51.5t-2.5 79t15.5 67.5q14 44 33 82t46 72t49.5 59t61.5 56l63.5 49zM202 -525l111 269l-83.5 -62t-71.5 -61t-67 -71.5t-48 -79.5t-38 -100q-6 -24 -9.5 -54t3.5 -64.5t31 -39.5q21 -4 43.5 14.5t44.5 58.5t35 68t31 75zM426 872h2q1 0 1 -1
h2q5 -6 2 -11q-6 -10 -14 -3q-10 7 -1 12q3 2 8 3zM462 872h2q1 0 1 -1h2q5 -6 2 -11q-6 -10 -14 -3q-10 7 -1 12q3 2 8 3z" />
    <glyph glyph-name="Zcaron" unicode="&#x17d;" horiz-adv-x="699" 
d="M163 -74q63 -6 23 -131l20 15q328 235 524 429q4 6 10 0q6 -4 0 -10q-117 -116 -239.5 -215t-285.5 -216l-39 -27q-133 -328 -159 -387l-11 -23.5l-15.5 -31.5t-20 -35l-23.5 -34.5t-25.5 -30t-27 -21.5t-27.5 -9t-27 8q-28 20 -30.5 71t9.5 94.5t27 77.5q20 44 47 84
t50.5 67.5t64 61t66 52.5l76.5 55q61 151 0 141q-76 -81 -122 -112q-19 -13 -24.5 -10t5.5 23q22 37 60 72t74 41q88 95 192.5 238t151.5 270q22 60 24 112.5t-15.5 90t-51.5 60.5t-82.5 23.5t-109.5 -20.5q-79 -29 -157.5 -106t-132.5 -166.5t-78 -171.5l-5 -22
q-2 -8 -9 -6t-5 9l5 23q39 133 146.5 269.5t227.5 182.5q66 23 121 24.5t94 -23t60 -63.5t19.5 -97t-27.5 -125q-27 -67 -73.5 -144t-101 -148t-94.5 -118.5zM141 -255q-61 -44 -97 -73t-79 -72t-72 -92t-48 -110q-38 -119 -10 -163q22 -33 67 7q50 44 97 156zM121 -98
q-49 -22 -90 -82q37 28 90 82zM322 904q16 -2 27 -32q10 26 26 32q7 2 9 -6q1 -6 -5 -8l-2 -1q-4 -2 -8.5 -10t-9.5 -18.5l-7 -14.5q-9 -2 -17 20.5t-14 22.5q-2 0 -4.5 2.5t-1.5 5.5q0 7 7 7z" />
    <glyph glyph-name="zcaron" unicode="&#x17e;" horiz-adv-x="363" 
d="M168 44l79 59.5t68 58t77 78.5q4 6 10 0q5 -4 1 -10l-16 -18q-18 -20 -38.5 -40l-35.5 -34t-40.5 -33.5l-37 -28.5t-41 -30.5l-37.5 -27.5l-46 -114q-57 -142 -106 -226q-63 -106 -120 -110q-38 -2 -50 44q-16 59 26 137q12 22 24.5 41.5t28.5 39l27 33t31.5 32.5
l29.5 27.5t33.5 27.5t30.5 24t33.5 25.5l31.5 23.5q13 34 13 56t-9.5 29.5t-24 6.5t-32.5 -11l-17 -24q-20 -27 -45.5 -56.5t-63.5 -61t-59 -28.5q-10 1 -11 7q-4 21 58 77.5t100 77.5q80 117 97 158q12 30 7 44q-3 9 -10.5 10t-17.5 -5.5t-20.5 -14.5t-22.5 -20.5
l-20 -21.5l-16 -18l-8 -10q-5 -3 -10 0q-5 6 0 11q1 1 11 13t18 20.5l21 22t24.5 21t23.5 13t21.5 3t16.5 -13.5q26 -43 -63 -183q40 16 65 -4.5t8 -78.5q2 2 3 2zM83 -95l38 92l-26 -19t-27.5 -20.5l-25.5 -20t-27.5 -22.5l-25 -22.5t-26.5 -25.5l-23.5 -26.5t-24 -30.5
l-21 -32t-20.5 -36q-41 -80 -23 -131q14 -38 51 -22q42 17 86 98q16 29 33 66.5t27.5 64.5l22 55.5t12.5 31.5zM20 67q-34 -22 -73.5 -58.5t-47.5 -60.5q12 1 25 9.5t28.5 25.5l24 27t25.5 33t18 24zM95 460q16 -2 27 -32q10 26 26 32q7 2 9 -6q1 -6 -5 -8l-2 -1
q-4 -2 -8.5 -10t-9.5 -18.5l-7 -14.5q-9 -2 -17 20.5t-14 22.5q-2 0 -4.5 2.5t-1.5 5.5q0 7 7 7z" />
    <glyph glyph-name="florin" unicode="&#x192;" horiz-adv-x="237" 
d="M45 233q55 46 109.5 123.5t74.5 140.5q5 10 4 31.5t-20 16.5q-25 -7 -75.5 -84.5t-98.5 -178.5q-83 -178 -126 -293q-14 -37 -31 -89t-40.5 -139.5t-19.5 -144.5t42 -55q44 2 76.5 82t45 159.5t12.5 127.5q0 45 -8 70q19 3 49 22.5t66.5 51l64.5 57.5l62.5 60.5
t42.5 41.5q5 5 0 10.5t-10 0.5l-14.5 -14l-26 -25l-34 -32.5l-40 -37.5l-41 -37t-41 -34.5l-36.5 -28t-29.5 -18.5t-18.5 -4q-5 8 -11 8q-3 0 -5 -3.5t-0.5 -8.5t6.5 -7q2 -3 4 -9q17 -60 -8 -192t-61 -190q-8 -11 -17.5 -20t-20 -14t-19 1t-11.5 23q-14 70 48.5 251
t155.5 381zM61 268q55 117 93 180q40 67 59 81q13 9 2 -28q-17 -53 -61 -119.5t-93 -113.5z" />
    <glyph glyph-name="circumflex" unicode="&#x2c6;" horiz-adv-x="173" 
d="M51 542q-7 0 -7 7q-1 3 1.5 5.5t4.5 2.5q6 0 14 22.5t17 20.5l7 -14.5t9.5 -18.5t8.5 -10l2 -1q6 -2 5 -8q-2 -8 -9 -6q-16 6 -26 32q-11 -30 -27 -32z" />
    <glyph glyph-name="caron" unicode="&#x2c7;" horiz-adv-x="169" 
d="M51 602q16 -2 27 -32q10 26 26 32q7 2 9 -6q1 -6 -5 -8l-2 -1q-4 -2 -8.5 -10t-9.5 -18.5l-7 -14.5q-9 -2 -17 20.5t-14 22.5q-2 0 -4.5 2.5t-1.5 5.5q0 7 7 7z" />
    <glyph glyph-name="breve" unicode="&#x2d8;" horiz-adv-x="202" 
d="M82 568q0 -18 10 -18t12 13v5q-2 6 5 8t9 -5q2 -20 -10.5 -30.5t-26.5 -3t-14 31.5q0 7 8 7q7 0 7 -8z" />
    <glyph glyph-name="dotaccent" unicode="&#x2d9;" horiz-adv-x="189" 
d="M70 575q0 -1 -0.5 -9.5t-1.5 -10.5q-1 -4 -6.5 -4.5t-7.5 2.5q-1 1 -1 20q1 5 8.5 6t8.5 -4z" />
    <glyph glyph-name="ring" unicode="&#x2da;" horiz-adv-x="199" 
d="M89 546h3q10 -1 15 -8.5t3 -16t-8 -12.5q-18 -13 -29.5 4t4.5 28q5 4 12 5zM91 532q-12 -2 -8 -9q5 -8 11 -3q1 2 2 5q2 7 -5 7z" />
    <glyph glyph-name="ogonek" unicode="&#x2db;" horiz-adv-x="200" 
d="M95 -13h-1h-6t-6 -1t-3.5 -3.5t2.5 -7.5q4 -6 47 0q8 0 8 -7q0 -8 -7 -8q-3 0 -13 -1t-16 -1t-14 0.5t-13 4.5t-7 11q-5 15 3 20.5t24 6.5q8 2 8 -6q2 -8 -6 -8z" />
    <glyph glyph-name="tilde" unicode="&#x2dc;" horiz-adv-x="200" 
d="M78 552q0 11 6.5 13t19 -1.5t13.5 -3.5q2 5 6 5q8 2 8 -6q0 -11 -6.5 -13t-19.5 2l-13 3q-2 -5 -7 -6q-7 0 -7 7z" />
    <glyph glyph-name="hungarumlaut" unicode="&#x2dd;" horiz-adv-x="404" 
d="M131 598q2 -7 -6 -9q-6 -1 -13 -9.5l-12.5 -15t-9.5 -3.5q-11 7 24 42q12 11 17 -5zM333 598q2 -7 -6 -9q-6 -1 -13 -9.5l-12.5 -15t-9.5 -3.5q-11 7 24 42q12 11 17 -5z" />
    <glyph glyph-name="endash" unicode="&#x2013;" horiz-adv-x="483" 
d="M79 266l251 -2q1 0 3 -7q0 -7 -3 -7q-175 0 -251 2q-3 0 -3 7t3 7z" />
    <glyph glyph-name="emdash" unicode="&#x2014;" horiz-adv-x="566" 
d="M49 256l348 -2q1 0 3 -7q0 -7 -3 -7q-272 0 -348 2q-3 0 -3 7t3 7z" />
    <glyph glyph-name="quoteleft" unicode="&#x2018;" horiz-adv-x="234" 
d="M77 479q15 -10 -1 -23q-14 -11 -21 0q-2 3 -2 8q-1 11 30 42q6 4 11 -1q4 -5 -1 -10l-4 -4l-6 -6z" />
    <glyph glyph-name="quoteright" unicode="&#x2019;" horiz-adv-x="242" 
d="M75 464q-15 10 1 23q14 11 21 0q2 -3 2 -8q1 -11 -30 -42q-6 -4 -11 1q-4 4 1 10z" />
    <glyph glyph-name="quotesinglbase" unicode="&#x201a;" horiz-adv-x="242" 
d="M76 5q-15 10 1 23q14 11 21 0q2 -3 2 -8q1 -11 -30 -42q-6 -4 -11 1q-2 1 -1.5 4.5t2.5 5.5l4 4l6 6z" />
    <glyph glyph-name="quotedblleft" unicode="&#x201c;" horiz-adv-x="392" 
d="M204 479q15 -10 -1 -23q-14 -11 -21 0q-2 3 -2 8q-1 11 30 42q6 4 11 -1q2 -1 1.5 -4.5t-2.5 -5.5l-4 -4l-6 -6zM77 479q15 -10 -1 -23q-14 -11 -21 0q-2 3 -2 8q-1 11 30 42q6 4 11 -1q4 -5 -1 -10l-4 -4l-6 -6z" />
    <glyph glyph-name="quotedblright" unicode="&#x201d;" horiz-adv-x="404" 
d="M75 464q-15 10 1 23q14 11 21 0q2 -3 2 -8q1 -11 -30 -42q-6 -4 -11 1q-4 4 1 10zM202 464q-15 10 1 23q14 11 21 0q2 -3 2 -8q1 -11 -30 -42q-6 -4 -11 1q-2 1 -1.5 4.5t2.5 5.5z" />
    <glyph glyph-name="quotedblbase" unicode="&#x201e;" horiz-adv-x="393" 
d="M76 5q-15 10 1 23q14 11 21 0q2 -3 2 -8q1 -11 -30 -42q-6 -4 -11 1q-2 1 -1.5 4.5t2.5 5.5l4 4l6 6zM222 1q-15 10 1 23q14 11 21 0q2 -3 2 -8q1 -11 -30 -42q-6 -4 -11 1q-2 1 -1.5 4.5t2.5 5.5l4 4l6 6z" />
    <glyph glyph-name="dagger" unicode="&#x2020;" horiz-adv-x="301" 
d="M92 349l54 -1q4 154 4 156q-1 8 16 1q9 -4 9 -9q0 -56 -5 -149h38q1 0 3 -7q0 -7 -3 -7h-38q-1 -19 -4.5 -78.5l-5 -86.5t-3.5 -77.5t-2 -81t1.5 -67t5.5 -62.5h2q6 -4 4 -8t-4 -5q-7 -4 -11.5 14.5t-7 56t-3.5 82t-0.5 102.5t1.5 106.5t2 104.5l-53 2q-3 0 -3 7t3 7z
" />
    <glyph glyph-name="daggerdbl" unicode="&#x2021;" horiz-adv-x="301" 
d="M100 19l42 -1q-2 120 4 336l-48 2q-2 0 -2 7t2 7l48 -1q4 134 4 135q-1 8 16 1q9 -4 9 -9q0 -64 -4 -128h43q3 0 3 -7t-2 -7h-44q-16 -285 -16 -336l61 -1q3 0 3 -7t-3 -7h-61q0 -74 7 -123h2q6 -4 4 -8t-4 -5q-18 -11 -21 136l-43 2q-3 0 -3 7t3 7z" />
    <glyph glyph-name="bullet" unicode="&#x2022;" horiz-adv-x="833" 
d="M168 231q-2 35 28 44q29 9 44 -13q8 -11 7 -27q-2 -24 -21 -33.5t-37.5 -1t-20.5 30.5z" />
    <glyph glyph-name="ellipsis" unicode="&#x2026;" horiz-adv-x="657" 
d="M68 25h3q2 0 2 -1h1q0 -1 1 -1q7 -9 3 -15q-8 -14 -20 -5t-4 17q5 4 14 5zM287 25h3q2 0 2 -1h1q0 -1 1 -1q7 -9 3 -15q-8 -14 -20 -5t-4 17q5 4 14 5zM506 25h3q2 0 2 -1h1q0 -1 1 -1q7 -9 3 -15q-8 -14 -20 -5t-4 17q5 4 14 5z" />
    <glyph glyph-name="guilsinglleft" unicode="&#x2039;" horiz-adv-x="373" 
d="M195 226l-81 -15v-3l80 -21q8 -2 6 -8q-2 -8 -9 -6t-26 6.5l-35 8.5t-25 8q-6 4 -5.5 13t2.5 13q2 2 22.5 6t43 7.5t24.5 4.5q8 2 8 -6q1 -6 -5 -8z" />
    <glyph glyph-name="guilsinglright" unicode="&#x203a;" horiz-adv-x="357" 
d="M183 211l-81 15q-6 2 -5 8q0 8 8 6q2 -1 24.5 -4.5t43 -7.5t22.5 -6q2 -4 2.5 -13t-5.5 -13q-9 -4 -25 -8l-35 -8.5t-26 -6.5t-9 6q-2 6 6 8l80 21v3z" />
    <glyph glyph-name="fraction" unicode="&#x2044;" horiz-adv-x="301" 
d="M285 588q-4 -9 -34.5 -83.5l-65 -156l-72 -165t-65.5 -133t-36 -38.5q-1 2 -1 6q0 6 7 6q1 0 2 -1q47 75 133 300t106 268q3 7 20 3q6 -3 6 -6z" />
    <glyph glyph-name="Euro" unicode="&#x20ac;" horiz-adv-x="296" 
d="M259 534q-84 -9 -157 -186q12 0 35.5 -0.5t35.5 -0.5q2 0 2 -7t-2 -7q-51 0 -76 1q-18 -47 -29 -84q48 0 71 -1q3 0 3 -7t-2 -7q-13 0 -38.5 0.5t-37.5 0.5q-40 -140 -31 -200q3 -19 12 -18q7 0 9 -5q2 -6 -6 -6q-34 -4 -36 66q-1 67 26 164h-22q-3 0 -3 7t3 7h26
q12 43 30 83q-5 1 -23 1q-2 0 -2 7t2 7h29q36 83 82.5 137t97.5 60q7 0 7 -6q1 -2 -1.5 -4t-4.5 -2z" />
    <glyph glyph-name="trademark" unicode="&#x2122;" horiz-adv-x="431" 
d="M141 470q29 13 7 -60q-4 -13 -11 -32q-2 -5 -2 -6l-11.5 -30t-12.5 -34q1 -1 9.5 16t20 45l25 60.5t26 67l21.5 60.5q-4 45 2 58h-108q-20 -43 -65.5 -159.5t-65.5 -155.5q-2 -4 -4 -2t-1 3q0 1 1 3q11 25 22.5 77t10.5 75v5.5t-1 4t-2.5 2l-4.5 -1.5q-2 -2 -3 1q0 1 1 2
q23 18 8 -63q-7 -39 -16 -71q18 42 54 137.5t57 142.5q-126 0 -144 -5q1 0 1.5 -1.5t-0.5 -2.5q-2 -2 -5 4q-4 7 8 9q15 2 88 2q9 0 27.5 -0.5t27.5 -0.5h4q86 -2 131 -1q2 0 13 0.5t14 0.5v2q1 2 3 2q3 -3 3 -4q-1 -5 -44 -5q8 -13 -8 -66q1 -16 5 -52t5 -53q20 26 75 81
q9 19 27.5 46.5t25.5 21.5q3 -3 3 -4q1 -13 -48 -62q-4 -7 -8.5 -17.5l-12.5 -30t-13.5 -37.5t-9 -35.5t-1 -30t12.5 -15.5q14 -4 41 13t51 39l47 45l24 24q1 2 3 0q1 -1 1 -3l-37 -37q-38 -37 -75 -64t-56 -21q-44 15 18 155l-17.5 -18l-18.5 -19t-15.5 -17t-16.5 -22
q0 -34 -7 -38q0 -1 -2 -1q-8 0 -8 9q-2 13 10 30q0 7 -6 103q-11 -33 -48 -123t-51 -113q-7 -12 -9 -4q-1 4 2 12q2 5 15.5 41.5t21.5 62t8 41.5q1 8 -1 11t-8 0h-3q-1 3 0 3zM318 542q18 18 27 30q13 13 8 18q-8 0 -35 -48zM216 567q4 12 6 27t-2 20q-6 -3 -4 -47zM220 428
q-5 -8 -6 -17t2 -10q4 0 4 27z" />
    <glyph glyph-name="minus" unicode="&#x2212;" horiz-adv-x="370" 
d="M42 319l212 -2q1 0 3 -7q0 -7 -3 -7q-136 0 -212 2q-3 0 -3 7t3 7z" />
    <glyph glyph-name="A_Swash" unicode="&#xe020;" horiz-adv-x="976" 
d="M-79 -296l-13 -42l256 521q-182 -3 -166 29q1 3 5 7q5 4 10 -1q3 -5 0 -10q18 -8 159 -10l58 113l98 181.5t114 185.5t68 60q8 -5 8.5 -33t-6 -71.5t-16 -92.5t-22.5 -104.5l-23.5 -99l-20.5 -84.5t-13 -52q132 2 141 2q166 0 165 -27q0 -7 -9 -15q-6 -3 -10 2t1 10l3 3
q-15 11 -80 11q-97 4 -214 1q-70 -334 -23 -379q91 -87 614 429q5 5 10 0q6 -6 0 -10q-180 -178 -280 -262q-267 -227 -348 -172q-29 19 -33 94.5t6.5 149t27.5 150.5q-122 -4 -180 -4q-7 0 -14 -1q-265 -522 -317 -605l-3 -6v1l-4 -4q-6 -2 -7.5 1t-0.5 9l1 3q4 8 4 9
q16 41 35 100t39 138.5t32 154.5t12 147.5t-18 118.5q-67 174 -363 119q-162 -31 -384 -130t-376 -201q1 0 4 -3q3 -7 -3 -10q-43 -22 -49 -20q-22 7 32 40l2 1q141 95 348 190t363 134q360 88 439 -112q20 -53 21.5 -126t-15.5 -160t-30 -140t-35 -128zM391 200l40.5 157
t61.5 259t9 110q-42 -11 -301 -528q68 0 190 2z" />
    <glyph glyph-name="B_Swash" unicode="&#xe021;" horiz-adv-x="964" 
d="M-71 -269q59 138 188.5 483t208.5 515q3 3 9 2t11.5 -5.5t3.5 -8.5q-46 -101 -72 -166q71 70 162 84q86 13 117 -38q26 -45 -3 -125q-19 -51 -61.5 -102t-91.5 -86q162 -29 171 -162q191 57 429 116q6 2 8 -6q0 -7 -5 -8l-273 -71l-158 -45q0 -63 -33.5 -126t-86 -108.5
t-118 -76.5t-130 -31t-120.5 28q-32 19 -40 45.5t4.5 52.5t39.5 48q18 15 44.5 29.5t64 30l66.5 27t78 27l71.5 22.5l73.5 22t59 17q-8 136 -163 157q-33 -21 -69 -29q-32 -8 -54 6q-1 0 -1 1q-4 9 1 11q32 37 118 26q103 69 151 194q41 105 -21 135q-52 25 -136 -15
q-66 -32 -109 -87l-1 -1l-127.5 -322l-145 -366.5t-112.5 -250.5q-4 -8 -9.5 -8t-8.5 5t-1 9l2 4l2 4v1v1l1 2q18 48 35 99.5t42 151t35 181.5t-0.5 165.5t-51.5 127.5q-89 98 -324 54q-161 -30 -384 -129.5t-376 -201.5q3 0 5 -3q2 -7 -3 -10q-1 0 -12.5 -6.5t-22 -10.5
t-14.5 -3q-22 7 31 40l2 1q141 95 348 190t363 134q289 70 396 -43q21 -23 35 -55t21.5 -63t7 -76t-2 -77t-10.5 -82.5t-14.5 -77t-19 -76.5l-17.5 -64l-16 -55l-2 -8l8 19zM546 100q-349 -102 -433 -160q-27 -19 -43 -41t-13 -48t36 -44q41 -24 92.5 -26.5t100.5 13
t96.5 46.5t83 71t57.5 89.5t23 99.5zM357 275q-43 2 -69 -10q-8 -5 -12 -9h2l2 -1q31 -7 77 20z" />
    <glyph glyph-name="C_Swash" unicode="&#xe022;" horiz-adv-x="831" 
d="M336 693q88 51 167 50q48 0 59 -12q4 -4 -1 -10q-18 -19 -218 -47q-48 -31 -110.5 -99.5t-123.5 -155t-107.5 -183.5t-68 -182.5t-0.5 -154.5t91 -98q79 -32 204 9q141 47 327 176t311 252q6 6 11 0q3 -5 0 -10q-35 -35 -84 -77t-115 -93.5t-135 -97.5t-144 -88.5
t-143 -66.5t-131.5 -31.5t-108.5 15.5q-74 34 -99.5 105t-7 156.5t61.5 180.5t102 180.5t118.5 153.5t107.5 103l12 9q-44 -3 -94.5 -5t-102.5 -3.5t-75 -2.5q-65 -3 -109.5 -6t-115 -10.5t-121 -16.5t-115.5 -26t-112 -38.5t-97.5 -54t-83.5 -71.5t-58.5 -92t-34.5 -115
l-3 -28q0 -8 -8 -6q-6 0 -6 7l3 29q9 64 34.5 118t59.5 94t84.5 73t98.5 55.5t113.5 40t117.5 27.5t123 17.5t117.5 10.5t111.5 6q19 1 127.5 4.5t170.5 8.5zM384 698q26 2 66 8q47 9 53 11l35 9q-62 16 -154 -28z" />
    <glyph glyph-name="D_Swash" unicode="&#xe023;" horiz-adv-x="970" 
d="M-81 -295v-3l44 106l33 83l20 50l94.5 250.5l116.5 303.5t102 236l2 2q1 0 1 1v-1q6 2 14.5 -3.5t6.5 -10.5l-73 -167q29 24 62.5 44t73.5 35t80.5 13t72.5 -24q144 -100 -28 -506q155 46 389 107l74 18q6 2 8 -5q2 -9 -5 -9q-285 -72 -473 -128q-139 -313 -337 -325
q-62 -3 -103 33q-32 27 -28.5 59t22.5 57.5t49 46.5q10 7 40 22q92 44 331 114q181 412 52 505q-37 22 -77.5 20.5t-84.5 -22t-77 -43.5t-54 -45l-2 -3l-129 -323.5l-144.5 -365t-112.5 -251.5q-6 -14 -15 -6q-7 6 -3 12q2 7 4 9q19 51 37 108.5t42 157t33 181.5t-3.5 162.5
t-53.5 121.5q-92 91 -318 48q-162 -31 -383.5 -130t-375.5 -201l3 -3q3 -6 -3 -10q-1 0 -12 -6.5t-22 -10.5t-15 -3q-22 7 31 40l2 1q141 95 348 190t364 134q283 70 393 -40q38 -38 53.5 -103t14 -125t-17 -143.5t-27.5 -127l-31 -107.5q-4 -14 -6 -20h1zM500 87l-62 -18.5
l-70.5 -21.5t-61 -20t-68.5 -25.5t-57 -25.5q-74 -36 -93.5 -82.5t13 -77.5t95.5 -29q45 1 86.5 21.5t71.5 48t59.5 71.5t47.5 78t39 81z" />
    <glyph glyph-name="E_Swash" unicode="&#xe024;" horiz-adv-x="775" 
d="M140 381q42 -42 111 -56q27 -4 37 -5q69 2 75 -5q8 -8 -6 -12h-1h-18q-17 0 -47 2q-178 -4 -297 -119q-90 -87 -102 -193q-11 -104 64 -157q51 -35 132 -37q64 -1 135.5 22t142.5 65.5t124.5 82t114.5 90.5q95 80 196 179q5 5 10 0q6 -4 0 -10q-64 -63 -131.5 -123
t-151 -125t-170 -114t-159.5 -69q-56 -14 -110 -13q-153 4 -204 102q-43 85 8 195q51 113 170 180q75 42 163 54q2 0 4 1q-74 18 -116 67q-67 9 -151 33q-85 24 -263 90.5t-270 90.5q-186 46 -255 -21l-17 -21q-4 -6 -10 -2q-5 5 -2 11l19 22q72 70 249 30q94 -22 273.5 -89
t234.5 -84q114 -35 179 -44q-33 47 -33.5 109t26 115.5t79 92.5t116.5 43q71 5 116 -29t55.5 -84t-9 -106.5t-67.5 -94.5q-95 -76 -244 -64zM292 744q-57 -4 -105 -42.5t-72.5 -90.5t-23 -112t35.5 -103q67 -7 135.5 8.5t115.5 54.5q42 35 59.5 86.5t8 97t-49.5 76
t-104 25.5z" />
    <glyph glyph-name="F_Swash" unicode="&#xe025;" horiz-adv-x="626" 
d="M-82 -296v-6q65 150 201 515q-82 -5 -94 -8q0 -1 -2 -3q-2 -3 -8 7q-12 17 12 24q23 6 102 6q114 304 192 474q-457 -2 -520 -18q2 -1 3 -6.5t-1 -7.5q-1 -4 -12 9q-23 26 15 35q4 1 9 2q27 4 73.5 6t79 2.5t93 0t69.5 -0.5l200 -3q4 2 12 -1q316 -6 473 -4q4 0 26.5 1
l43 2t30.5 3q-1 3 0 7q2 7 9 3q13 -4 11 -13q-1 -5 -11 -8.5t-26.5 -5.5t-34.5 -3t-40.5 -1h-38h-32h-18.5q-16 0 -86.5 0.5t-134 0.5h-162.5q-71 -153 -196 -474q32 0 248 -2t248 3q7 0 7 -7t-7 -7q-38 -2 -56 -2q-355 -6 -450 -10l-21 -54q-173 -444 -245 -585
q-6 -13 -15 -5q-7 6 -3 12q2 7 4 9q1 5 22 70l39.5 127t35 151.5t19.5 161.5t-17.5 138.5t-67.5 99.5q-95 65 -294 27q-162 -30 -384 -129t-376 -201l4 -4q4 -6 -3 -10l-11 -6q-12 -6 -23 -10t-15 -3q-22 7 31 39l2 1q140 95 347.5 190t364.5 134q244 61 360 -13
q173 -112 44 -564q-4 -17 -25 -86z" />
    <glyph glyph-name="G_Swash" unicode="&#xe026;" horiz-adv-x="1076" 
d="M425 684q86 53 165 53q5 0 12.5 -1l23 -3t22.5 -6.5t0 -11.5q-18 -19 -215 -47q-47 -30 -118.5 -116t-139.5 -192.5t-114 -224.5t-41 -200q3 -51 26 -85.5t57.5 -48.5t76 -12t83.5 20q179 77 447 414v2q5 9 25 10q6 0 6 -3l-179 -441l19 14q163 117 285.5 215.5
t238.5 214.5q5 3 10 0q5 -5 0 -11q-199 -196 -512 -422l-51 -35q-129 -317 -159 -385l-18.5 -39.5t-25 -46.5t-30.5 -46t-34 -36.5t-35.5 -18.5t-34.5 8q-28 19 -30.5 70t9.5 95t27 77q24 55 54.5 99t76.5 85.5t76 64.5t95 69l168 413q-242 -296 -412 -376
q-48 -22 -96.5 -26t-89.5 10t-68.5 52t-32.5 95q-8 97 60.5 252t166.5 289.5t181 194.5q-27 -2 -129 -7.5t-147 -8.5l-97.5 -7t-103 -9.5t-108.5 -15t-105.5 -21.5t-104 -31.5t-94 -42t-85.5 -55t-68 -69t-52 -86.5t-28 -105l-3 -28q0 -7 -8 -7t-6 8l3 28q9 64 34.5 118.5
t59.5 95.5t84.5 75t98 57t113.5 41.5t118 29t123 19t117 12.5t112 8q6 0 84.5 3.5t144.5 7.5t72 7zM513 -261q-48 -34 -78.5 -57.5t-68 -57.5t-62.5 -66t-48.5 -75t-39.5 -92q-8 -25 -14 -58t-1.5 -71t26.5 -49q17 -9 40 10t44 54.5t35 63.5t23 50zM468 688q119 18 158 32
q-65 16 -158 -32z" />
    <glyph glyph-name="H_Swash" unicode="&#xe027;" horiz-adv-x="849" 
d="M13 209q-14 13 22 19q31 6 87 6q117 313 202 497q2 3 6 2.5t9 -2.5t7.5 -5.5t1.5 -6.5q-66 -143 -200 -485q110 3 332 3q138 354 207 489q6 13 15 5q7 -6 3 -12q-1 -2 -2 -6l-1 -3q-30 -69 -67 -217.5t-50 -256.5q124 0 247 3q19 1 38 1q8 2 8 -6t-7 -8q-20 -1 -287 -3
q-3 -36 -3 -61q2 -42 14 -43q6 -1 16 6q6 6 10 -1q6 -6 -1 -10q-52 -37 -53 53q0 23 3 56h-72l-49 -129.5l-54 -142.5l-47.5 -122l-56.5 -138.5l-53 -119.5q-4 -7 -16 -1t-9 13q71 154 261 640q-247 -2 -332 -4l-35.5 -90.5l-36.5 -93.5l-33.5 -85l-36 -89l-32.5 -78
l-33.5 -78.5l-30 -65.5l-30.5 -63q-5 -14 -15 -6q-7 6 -3 12q77 225 102 353q63 321 -69 410q-95 64 -292 27q-161 -31 -383.5 -130t-376.5 -201l4 -3q3 -7 -3 -10q-43 -22 -49 -20q-21 7 32 40l2 1q141 95 348 190t363 134q255 62 368 -19q166 -118 32 -583l-14 -45l-6 -21
l-3 -9q61 140 205 522q-76 -2 -92 -6l-1 -2q-5 -6 -10 -1zM503 236h68q9 91 36 210.5t41 154.5q-67 -156 -145 -365z" />
    <glyph glyph-name="I_Swash" unicode="&#xe028;" horiz-adv-x="560" 
d="M595 226q-50 -26 -169.5 -27.5t-177.5 8.5l-37 4q-143 -372 -222 -550q-29 -68 -42 -85q0 -2 -1 -3l-1 1q-9 -12 -12 0q0 3 1 6v1q1 1 1 2q2 7 7.5 21l10 26t5.5 15q38 109 167 551q3 10 7 25q4 16 7 18t16 -1q4 -1 6 -2q14 -5 30 -7q178 459 129 546q-55 97 -285 54
q-171 -32 -410 -133t-440 -211q0 -5 -3 -6l-10 -5q-9 -5 -20 -10t-14 -5q-21 6 23 29q180 100 395 194.5t383 138.5q326 88 394 -39q13 -23 16 -58.5t-5.5 -83t-17 -87t-28 -98l-29.5 -87.5t-30.5 -83t-22.5 -60q80 -14 204 -12t168 25q7 5 10 -1q3 -5 -3 -11zM185 215
q-11 2 -36 10l-47 -162l-58.5 -198l-50.5 -161q41 95 105.5 274.5t86.5 236.5z" />
    <glyph glyph-name="J_Swash" unicode="&#xe029;" horiz-adv-x="628" 
d="M116 -205q12 8 18 13q165 119 286.5 216.5t237.5 212.5q6 4 10 0q5 -5 0 -10q-199 -196 -512 -422l-50 -35l-153 -369q-12 -29 -28 -60t-43 -73.5t-57.5 -61t-56.5 -0.5q-28 19 -30.5 70t9.5 95t27 77q25 55 56 100t75.5 86t77 66t95.5 69q1 2 34 89.5l49 131.5l51 139.5
t56 160l45.5 143t39 138t18.5 99.5q7 58 -22 97q-58 75 -257 37q-172 -32 -415.5 -134t-441.5 -210q0 -3 -4 -6q-1 -1 -3.5 -2.5t-9.5 -5l-12 -6t-10.5 -4.5t-7.5 -2q-22 6 21 28l2 1q176 98 395.5 193.5t389.5 140.5q285 75 367 -13q40 -43 33 -113q-5 -45 -24.5 -123
t-41.5 -148.5t-59.5 -179.5l-57.5 -163l-58 -156t-39 -106zM68 -255q-123 -87 -192.5 -162t-106.5 -189q-8 -25 -13.5 -58t-1 -71.5t25.5 -49.5q18 -9 40.5 10t44.5 56.5t35 64t24 51.5z" />
    <glyph glyph-name="K_Swash" unicode="&#xe02a;" horiz-adv-x="869" 
d="M755 705q-45 -33 -172.5 -133.5t-227 -171t-185.5 -115.5l-15 -39q13 -27 60.5 -160t91.5 -214t86 -81q26 0 62.5 19t80 55t82.5 71.5t89 88l78.5 83l70 78t47.5 53.5q4 5 10 1q5 -5 0 -10q-1 -1 -53 -60l-86 -96t-96.5 -100t-108 -101t-96 -67.5t-83.5 -28.5
q-38 1 -72 38t-59 96t-44 117.5l-37 117.5t-28 81q-1 1 -1 3l-29 -73.5l-29.5 -76.5l-27.5 -71l-29 -73.5l-27 -67l-28.5 -68.5l-26 -61l-26.5 -61.5l-24 -52t-25 -50.5q-4 -8 -9.5 -8t-8.5 5t-1 9q16 43 29.5 85.5l37 122.5t35.5 151.5t18 148t-9 138t-50 97.5
q-90 92 -319 49q-162 -31 -383.5 -130t-375.5 -201l3 -3q3 -6 -3 -10q-1 0 -12.5 -6.5t-22 -10.5t-14.5 -3q-22 7 31 40l2 1q141 95 348 190t364 134q282 70 391 -39q38 -38 54.5 -101.5t14.5 -127t-16.5 -143.5t-28.5 -132.5t-31 -110.5q-4 -11 -5 -16l-3 -9
q65 148 221 564q-2 4 -4 6q-29 -14 -48.5 -12t-16.5 27q2 19 23 24t41 -15l5 -6l11 6q110 287 181 441q3 3 9 2t12 -5.5t4 -8.5q-65 -138 -171 -407q95 60 313.5 221l252.5 185q7 4 10 -2q4 -5 -1 -10zM122 277q-21 25 -43 4v-6q0 -5 3 -7t9 -1t13.5 3.5t17.5 6.5z" />
    <glyph glyph-name="L_Swash" unicode="&#xe02b;" horiz-adv-x="569" 
d="M606 225l-684 -644q-6 -6 -25 -12q-11 -3 -8 5q2 5 64 148.5l132 308.5t137 347t83 268q30 156 -129 166q-87 6 -228 -30.5t-290.5 -97.5t-275.5 -120.5t-227 -113.5q-2 -2 -3 -2q-3 -2 -7 -4t-6 -3.5t-5 -3t-5 -2t-4.5 0t-5.5 2.5q1 4 -0.5 5.5t1 3.5t3 2.5t4.5 2.5l6 3
q100 54 230 115.5t289 126.5t308 102t237 26q149 -19 128 -180q-16 -114 -109.5 -362.5t-172 -427t-112.5 -245.5l665 626q4 4 10 -1q5 -7 0 -10z" />
    <glyph glyph-name="M_Swash" unicode="&#xe02c;" horiz-adv-x="990" 
d="M-128 -316q67 147 166.5 398.5t156.5 423.5q-3 46 -3.5 83t2 71t10 51.5t20.5 14.5q20 -5 24 -37.5t-4 -77t-16.5 -78t-16.5 -55.5q3 -54 17.5 -184.5t17.5 -196.5l44.5 55t55 61.5l51.5 54.5l62 63.5l57 58.5q13 25 35.5 63.5t54.5 88t61 77t43 15.5l-2 1q10 -7 11 -17
q6 -41 -170 -221q-12 -23 -31 -64.5l-47 -108t-48.5 -133t-33 -129t-2.5 -106.5t45 -56q50 -16 148.5 45.5t182.5 139.5l168.5 163t87.5 87q3 3 10 -1q7 -5 2 -10q-7 -6 -93 -90.5l-172.5 -164t-186.5 -140t-153 -43.5q-39 13 -54 54.5t-7.5 100.5t22 118t39.5 123.5
t40 99.5l27 61l-37.5 -37t-40 -40l-33.5 -34.5t-37 -39.5l-31 -36t-35.5 -43.5l-31.5 -42.5q4 -121 -23 -139q-6 -3 -10 -3q-25 0 -29 32q-6 46 39 109q-3 110 -25 372q-44 -124 -181 -458t-186 -417q-3 -1 -7.5 -1.5t-9.5 4.5t-1 19q1 4 30.5 79t56.5 159t50 184t18 188
t-45 136q-84 102 -326 56q-161 -30 -384 -129.5t-376 -201.5q4 0 4 -3q3 -7 -3 -10q-43 -22 -48 -20q-22 7 31 40l2 1q140 95 347 190t364 134q288 71 396 -43q31 -32 45 -83t11 -110.5t-12 -119.5t-27 -122.5t-32 -105.5t-29 -82t-15 -41zM577 451q68 72 96 108
q40 53 28 65q-30 0 -124 -173zM209 543q7 26 14 61t9.5 70t-7.5 38q-23 -9 -16 -169zM224 39q-19 -25 -23 -59t5 -36q6 -1 10 4.5t5.5 19.5t2 29t0.5 42z" />
    <glyph glyph-name="N_Swash" unicode="&#xe02d;" horiz-adv-x="949" 
d="M309 626l-11 -29q-55 -301 -56 -309q-97 -584 -35 -687q9 -15 22 -18q23 -5 52 25.5t60 91.5t56.5 117t54 134l39 108l23.5 70q-21 34 -26 85.5t-1 90.5t14 103q13 75 47 197.5t61 125.5q41 4 43 -75.5t-25.5 -199.5t-50 -202t-40.5 -136q32 -47 94 -51q82 -6 182.5 47
t165.5 123q5 5 10 1q4 -4 0 -10q-53 -57 -124.5 -101.5t-143.5 -63.5q-134 -36 -190 37l-24 -73t-39 -107t-53 -126t-58 -112.5t-64.5 -86t-62.5 -27.5q-64 6 -60 204q4 233 92 709q3 17 11 53l-126 -320.5l-150 -377t-119 -262.5q-4 -8 -9 -7.5t-8.5 5.5t-1.5 9
q13 34 27 76.5t37 120.5t36 152.5t20 152t-7.5 142t-50.5 101.5q-91 94 -320 50q-162 -30 -385 -129.5t-375 -201.5q2 0 4 -3q4 -6 -3 -10q-1 0 -12.5 -6.5t-22 -10.5t-14.5 -3q-22 7 31 40l2 1q140 95 347.5 190t364.5 134q280 70 390 -38q29 -28 45 -71.5t22 -86t0.5 -104
t-11.5 -102.5t-22.5 -107t-24 -92.5l-23.5 -81.5q81 186 197.5 494.5t174.5 449.5q3 3 9 2t11.5 -5.5t3.5 -8.5zM520 149q11 34 18.5 60.5l30.5 105t35.5 137t24.5 124.5t7.5 103t-25.5 38q-19 -14 -47.5 -111.5t-39.5 -155.5q-1 -3 -5.5 -24.5t-5.5 -29t-5 -29.5
t-5.5 -32.5t-3.5 -31.5t-2 -34t1 -31.5t3.5 -32t7 -28.5t11.5 -28z" />
    <glyph glyph-name="O_Swash" unicode="&#xe02e;" horiz-adv-x="808" 
d="M-9 -81q-163 -73 -327 -50q-137 19 -226.5 101.5t-124.5 217.5q-2 8 5 8q7 2 9 -5q64 -249 304 -302q176 -38 356 45q-33 153 44 380q14 105 62 203t118 154q46 36 100.5 50.5t104.5 2.5q72 -17 108 -84t35 -156t-21.5 -187t-55.5 -183.5t-72 -138.5q91 29 185 86.5
t168 117.5q37 29 72 60q5 4 10 -1q4 -5 -1 -10q-72 -64 -131 -106q-163 -120 -316 -166q-31 -45 -73 -84t-92 -67.5t-103.5 -22.5t-95.5 54q-28 32 -42 83zM105 1q156 112 235 275q34 69 56 164.5t-2 155.5q-15 36 -43.5 49.5t-60 6t-60.5 -30.5q-51 -40 -100.5 -124.5
t-84.5 -187.5q-17 -207 60 -308zM370 -37q36 46 74 128t63.5 180.5t32.5 189.5t-25 160.5t-103 88.5q-50 13 -107 -5.5t-102 -59.5q-96 -89 -141 -251q73 170 159 238q33 26 68.5 34.5t68 -8t49.5 -58.5q25 -64 2 -172q-27 -128 -105 -243t-189 -194q74 -79 255 -28z
M102 -18l-11 -8q-48 -31 -87 -49q14 -48 40 -80q30 -34 67 -42.5t70.5 3t68.5 36t60.5 50.5t46.5 53q-42 -13 -86.5 -16.5t-92 9t-76.5 44.5zM25 248q-51 -187 -24 -308q41 20 83 47l9 6q-68 87 -68 255z" />
    <glyph glyph-name="P_Swash" unicode="&#xe02f;" horiz-adv-x="831" 
d="M330 728v1q2 3 3 3l11 -3v-2q-1 -2 -1 -4v-1q6 -4 4 -8l-55 -135q133 172 256 149q50 -9 78.5 -42.5t33.5 -81.5t-1 -101.5t-23.5 -110.5t-34.5 -100.5t-34 -77.5q56 -1 98 -0.5t89 6.5t107 20q7 2 9 -6t-5 -8q-62 -15 -111 -21t-92 -6h-102q-53 -102 -118.5 -172.5
t-155.5 -90.5q-42 -8 -79 -1.5t-58.5 28t-28.5 47t11 58t59 59.5q133 89 348 87q19 39 39.5 91.5t38.5 122.5t21.5 128.5t-18.5 103.5t-73 54q-50 9 -106.5 -22t-95.5 -72.5t-73 -91.5l-97.5 -248.5l-108.5 -276.5l-93 -224.5t-94 -203.5q-6 -14 -15 -6q-7 6 -3 12
q23 58 43.5 120t46.5 168t32.5 191.5t-15 166.5t-79.5 117q-95 60 -287 23q-162 -30 -384 -129t-376 -202q3 0 4 -3q3 -7 -3 -10q-43 -22 -49 -20q-22 7 31 40l2 1q141 95 348 190t364 134q243 60 356 -11q179 -110 48 -572l-17 -57l-7 -24l-3 -9q81 187 215 538.5
t192 491.5q2 5 8 3zM530 199q-203 2 -332 -84q-39 -26 -54.5 -55t-8 -51.5t28 -40.5t54 -21.5t69.5 5.5q69 19 132 87t111 160z" />
    <glyph glyph-name="Q_Swash" unicode="&#xe030;" horiz-adv-x="766" 
d="M16 -79q-163 -73 -327 -50q-137 19 -226.5 101.5t-124.5 217.5q-2 8 5 8q7 2 9 -5q64 -249 304 -302q176 -38 356 45q-33 153 44 380q14 105 62 203t118 154q46 36 100.5 50.5t104.5 2.5q58 -14 93 -59.5t44 -112t2.5 -141t-28.5 -157.5q-57 -222 -180 -362
q31 -33 50.5 -50t50.5 -34.5t63.5 -12t67.5 31.5l20 16q5 5 10 0q4 -6 -1 -10l-20 -17q-32 -23 -62.5 -30t-53 -3t-50 23t-43 33.5t-41.5 42.5q-31 -33 -68.5 -57t-78.5 -36.5t-83 -1.5t-75 49q-28 32 -42 83zM255 623q-51 -40 -100.5 -124.5t-84.5 -187.5q-11 -81 1 -149
q17 -96 50 -165q163 113 244 281q34 69 56 164.5t-2 155.5q-15 36 -43.5 49.5t-60 6t-60.5 -30.5zM128 -16q18 -35 38 -44q6 -3 14.5 7.5t19.5 21t28.5 15t49 -13.5t73.5 -62q119 135 177 351q20 73 28.5 141t4 135t-35.5 114.5t-88 62.5q-50 13 -107 -5.5t-102 -59.5
q-96 -89 -141 -251q73 170 159 238q33 26 68.5 34.5t68 -8t49.5 -58.5q25 -64 2 -172q-28 -131 -109.5 -248.5t-196.5 -197.5zM116 -24q-48 -31 -87 -49q14 -48 40 -80q40 -46 92.5 -46.5t96 26.5t83.5 70q-40 43 -68.5 60t-43.5 12t-24.5 -15.5l-19.5 -21t-21 -7.5
q-24 7 -48 51zM26 -58q41 20 83 47q-35 76 -52 171q-7 39 -7 90q-51 -187 -24 -308z" />
    <glyph glyph-name="R_Swash" unicode="&#xe031;" horiz-adv-x="890" 
d="M239 465q42 50 85 88t100 63.5t107 16.5q42 -8 65 -36.5t26 -66.5t-3.5 -76t-20.5 -72q-43 -102 -140 -178.5t-201 -74.5q1 -1 6 -6.5t7 -9.5q13 -19 22 -45.5t22 -76.5l16 -62q20 -69 51 -104t94 -28q27 3 59 20t60.5 38.5t63 57t60 64.5t59.5 72.5l52 68l47.5 65.5
t37.5 51q4 5 10 1q6 -5 1 -10l-33 -46l-42 -58.5l-45.5 -60.5t-52.5 -65l-53 -60t-57 -57.5t-55 -45t-57 -34.5t-53 -15q-71 -8 -110 28.5t-60 105.5q-4 13 -13 71t-24 95.5t-44 48.5q-5 0 -7 1l-11 3h-2q-14 7 -4 12q11 6 31 -2q103 -12 192.5 54.5t138.5 170.5
q15 32 23.5 68.5t10 75t-16 67.5t-53.5 36q-40 9 -85.5 -7t-87 -50.5t-73 -68t-61.5 -71.5q-12 -29 -70 -178.5l-80 -204.5l-66 -163t-75.5 -178t-60.5 -126q-6 -14 -15 -6q-7 6 -3 12q69 206 93 313q72 321 -34 426q-90 90 -318 48q-162 -31 -383.5 -130t-375.5 -201l3 -3
q3 -6 -3 -10q-1 0 -12.5 -6.5t-22 -10.5t-14.5 -3q-22 7 31 40l2 1q141 95 348 190t364 134q281 68 390 -38q39 -38 55.5 -101.5t14.5 -127t-16 -142t-28 -130.5t-31 -107q-4 -13 -6 -19q-1 -2 -1 -7q80 185 213.5 535.5t192.5 492.5q3 4 9 3t11.5 -5.5t3.5 -8.5z" />
    <glyph glyph-name="S_Swash" unicode="&#xe032;" horiz-adv-x="861" 
d="M36 230h-12q-10 -104 4 -204t50 -225q23 14 145 79l671 363q7 3 10 -3q5 -7 -3 -9l-718 -389l-101 -55q42 -146 -48 -203q-47 -30 -89 -12q-41 17 -30 65q8 37 51 82q31 32 89 68q-38 136 -53 237t-5 206q-56 -1 -213 8.5t-270 4.5t-189 -37q-82 -34 -131 -112
q-3 -6 -10 -3q-6 4 -3 10q48 75 121 111q61 29 155.5 40t175.5 7.5t195 -9.5t171 -6q3 33 9 65q17 87 50.5 162.5t85 137.5t126.5 96t166 30q75 -3 127.5 -43.5t73 -98.5t14.5 -126t-40 -126q-17 -28 -42 -54.5t-56 -45.5t-65 -18.5t-61 26.5q-43 40 -34 112
q-51 -70 -129 -98t-188 -33zM375 396q-26 -92 22 -137q36 -35 79.5 -18.5t77.5 51t53 71.5q28 55 30.5 117t-17 114.5t-68.5 88t-117 38.5q-84 4 -154.5 -30t-118.5 -95t-79 -134t-48 -157q-6 -32 -9 -61q3 1 9 1q118 5 199 38t128 119q0 2 1 2q2 7 9 5q5 -4 4 -9v-3
q-1 0 -1 -1zM58 -227q-89 -56 -120 -115q-25 -50 5.5 -70.5t70.5 1.5q33 16 46 48.5t10.5 63t-12.5 72.5z" />
    <glyph glyph-name="T_Swash" unicode="&#xe033;" horiz-adv-x="533" 
d="M-86 -294q-1 -2 -1 -8q64 149 194.5 497.5t209.5 519.5q-457 -2 -520 -18q2 -1 3 -7t-1 -8q-2 -3 -12 9q-23 26 14 35q4 1 9 2q66 11 316 8q100 0 200 -3q3 3 12 0q343 -7 473 -4q72 0 100 6q-1 3 0 6q1 6 9 4q12 -6 11 -14q-1 -5 -11 -8.5t-26.5 -5t-35 -2.5t-40.5 -1.5
t-38 -0.5t-32 0.5t-19 0.5q-13 0 -148 0.5t-234 0.5q-73 -157 -237 -578.5t-235 -559.5q-6 -14 -15 -6q-7 6 -3 12q200 579 68 744q-10 13 -23 23q-93 76 -304 35q-162 -30 -384 -129t-376 -201q3 -1 4 -4q4 -6 -3 -10q-43 -22 -49 -20q-22 7 31 40l2 1q141 95 348 190
t364 134q260 65 374 -23q27 -21 45 -52.5t28 -64t11.5 -79t0.5 -82t-10 -88.5l-14.5 -83t-19.5 -81.5t-19 -68.5z" />
    <glyph glyph-name="U_Swash" unicode="&#xe034;" horiz-adv-x="925" 
d="M961 227l-86.5 -115.5l-105 -139l-85 -109l-102.5 -125.5q-166 -196 -234 -172q-28 10 -30.5 59.5t17.5 126.5t48 161.5t67.5 182.5l70 169.5l61.5 142l36 81.5q-97 -166 -239 -370q-236 -334 -318 -334q-13 0 -23 3q-31 10 -38 50t7.5 105.5t37.5 132.5t58 156l21 49.5
l27 62l29.5 70t29 74.5t25.5 75t19 71t9 63t-5 51q-35 127 -295 78q-172 -32 -416.5 -134t-439.5 -210q-2 -4 -4 -5q-2 -2 -21 -11.5t-23 -8.5q-20 6 23 28q176 98 395.5 193.5t389.5 140.5q363 96 406 -70q3 -25 5 -46.5t-5 -56t-13.5 -63t-19 -67t-23 -67.5l-25 -66
l-25 -62l-22.5 -54.5l-18 -44.5q-26 -64 -41 -104l-34 -94t-26 -87t-10 -66t6.5 -50t29.5 -21q54 -10 184 152q205 251 397 594l18.5 36t25.5 47q6 14 19 9q12 -4 6 -16q-6 -18 -27 -65.5l-48 -108.5l-61 -137l-67 -154.5l-64.5 -158t-55 -150t-37.5 -127.5t-12.5 -94
t20.5 -46q58 -27 221 166l100.5 122.5l88.5 114l99.5 133.5l88.5 118q5 8 11 2q7 -3 2 -10z" />
    <glyph glyph-name="V_Swash" unicode="&#xe035;" horiz-adv-x="710" 
d="M-30 -416q21 3 47.5 28.5t58.5 74.5l58 92t61.5 113.5l52.5 104l47 96.5q-41 31 -50 104.5t10.5 158.5t52.5 167.5t76 140.5t81 68q62 16 53 -83q-13 -152 -169 -500q-15 -36 -27 -60q55 -37 136 -15t151.5 64.5t114.5 87.5l11 12q4 6 9 1q5 -4 1 -10
q-56 -60 -133.5 -106.5t-153.5 -62.5q-89 -19 -143 15q-95 -198 -188.5 -347t-153.5 -158q-54 -8 -65 65q-13 84 42 352q62 297 73 368q37 238 -7 321q-75 145 -347 94q-162 -31 -384 -130t-376 -201l4 -3q3 -6 -3 -10q-1 0 -12.5 -6.5t-22 -10.5t-14.5 -3q-22 7 31 40l2 1
q141 95 348 190t364 134q339 84 428 -90q59 -113 -6 -450q-14 -74 -47 -222q-57 -258 -59 -337q-3 -90 42 -89q3 1 6 1zM302 107l25.5 54.5l34 75.5t40 93l39 97t35 98t23 84t9 67.5t-12.5 38.5q-14 12 -37.5 -2t-39.5 -31q-47 -51 -95.5 -169t-62.5 -233t42 -173z" />
    <glyph glyph-name="W_Swash" unicode="&#xe036;" horiz-adv-x="999" 
d="M82 387q-8 -100 -28 -250.5t-30.5 -239.5t-3.5 -103q33 23 92 123q47 77 177 324q3 5 15.5 3.5t9.5 -13.5q-1 -5 -10 -42.5t-16 -69.5l-18.5 -85t-18.5 -97t-14.5 -96.5t-9 -93.5t0.5 -77.5t12 -59t28 -28.5q15 -5 33.5 5.5t41 38.5t42.5 56t46.5 76.5l44 81.5t44 89
l38 79.5t33.5 72.5q-46 30 -57.5 104.5t7.5 161t52.5 170t77.5 142.5t82 69q24 6 37 -5q20 -15 20 -60.5t-16.5 -110t-37.5 -130t-50.5 -139.5l-48 -118l-37.5 -86q44 -21 97.5 -14t111.5 34.5t104.5 60t77.5 63.5l11 12q4 6 10 0q7 -4 1 -10q-55 -59 -133 -106t-154 -63
q-81 -17 -133 9q-42 -93 -84 -174t-90 -161t-92 -124.5t-76 -39.5q-127 19 -10 555l17 65l-63 -119.5l-71.5 -127t-76 -118t-48.5 -41.5q-14 1 -17.5 36.5t2 104t13.5 137l19.5 167.5t17.5 164q0 6 3.5 41.5t4.5 48t2.5 46.5t0.5 51.5t-3.5 47t-8 48t-14.5 40.5t-22 38
q-86 110 -327 65q-162 -31 -384 -130t-376 -201q3 -1 4 -4q4 -6 -3 -9q-6 -5 -24.5 -13.5t-24.5 -6.5q-22 7 31 40l2 1q141 95 348 190t364 134q296 73 402 -50q28 -32 42.5 -78t16.5 -107.5t0.5 -95.5t-6.5 -98zM597 95l25.5 55l34 77.5l39 94l37.5 98.5t33 98t22.5 86
t7.5 68t-13 39q-24 21 -78 -33q-50 -55 -98.5 -173t-61 -234.5t51.5 -175.5z" />
    <glyph glyph-name="X_Swash" unicode="&#xe037;" horiz-adv-x="790" 
d="M828 224l-88 -118l-105 -139.5l-88 -112t-104 -124.5q-157 -179 -227 -166q-36 7 -50.5 53.5t-7 134t20.5 166t38 201.5l-112.5 -157l-111 -155.5l-82.5 -113.5t-65 -84l-1 -1q-59 -71 -69 -40q-1 5 1 21q2 7 9 5q7 0 5 -8q0 -1 -0.5 -5.5t-0.5 -6.5q4 2 11.5 8.5
t13.5 13.5l12.5 14t7.5 8q22 26 80.5 109.5l151 217l161.5 230.5q2 11 18.5 84.5t23.5 109.5t16.5 108t9 117t-10 96.5t-31.5 83.5q-83 120 -334 73q-162 -31 -384 -130t-376 -201q1 0 4 -3q3 -7 -3 -10q-43 -22 -49 -20q-22 7 31 40l2 1q142 95 349 190t363 134
q313 77 413 -64q25 -35 36 -90t12 -103t-8.5 -121.5t-16.5 -109.5l-21 -103q-4 -20 -6 -29q150 205 253.5 319t139.5 93q5 -4 1 -10t-10 -2q-26 16 -132 -111t-263 -345q-64 -303 -75 -397q-21 -185 42 -196q11 -2 23.5 1.5t27 11.5t28 17.5t29 23.5l27 24.5t26 26
l21.5 23.5l17.5 20t11.5 13l103.5 125l87 110.5l105.5 140l87 116.5q4 6 10 2q5 -5 2 -10z" />
    <glyph glyph-name="Y_Swash" unicode="&#xe038;" horiz-adv-x="873" 
d="M322 -232l279 682q-104 -175 -221 -340q-232 -334 -318 -334q-91 -1 -55 154q20 86 117 327q103 256 124 361q21 109 -12 153q-58 77 -271 37q-172 -33 -417 -134.5t-439 -209.5q-2 -4 -4 -6l-9 -5l-21 -10t-14 -5q-20 7 23 29q176 98 395.5 193.5t389.5 140.5
q298 79 380 -19q65 -77 -28 -343q-19 -57 -120 -307q-88 -218 -86 -288q1 -54 48 -54q73 1 306 329q172 245 275 436l30 72q3 9 21 9q6 -1 6 -4l-343 -838l32 22q313 226 511 421q4 6 10 0t0 -10q-147 -145 -315 -276q-6 -5 -247 -181l-120 -290q-57 -140 -93 -197
q-63 -101 -115 -83q-29 10 -36.5 51.5t-2 79t15.5 67.5q17 52 43.5 98.5t52 78.5t70.5 71.5t72.5 60zM202 -525l110 268q-68 -50 -104 -79t-82.5 -76.5t-75 -100t-45.5 -117.5q-6 -22 -9.5 -53.5t3.5 -65.5t31 -39q21 -4 43.5 14.5t44.5 58.5t35 68t31 75z" />
    <glyph glyph-name="Z_Swash" unicode="&#xe039;" horiz-adv-x="699" 
d="M163 -74q66 -7 23 -131q7 4 21 14q329 237 523 430q6 6 10 0q5 -5 0 -10q-117 -116 -239.5 -215t-285.5 -216l-38 -28q-130 -321 -159 -386q-12 -27 -28 -56t-41.5 -67t-54.5 -54.5t-53 0.5q-28 19 -30.5 70t9 94.5t26.5 77.5q25 55 55.5 99.5t77 86t76.5 65t95 69.5
q5 11 9 21.5t10.5 30t9 34.5t2.5 29.5t-8 21.5t-23 5q-77 -82 -121 -112q-19 -12 -25 -9.5t5 22.5q23 38 60.5 72.5t74.5 40.5q44 48 85 97.5t99.5 127t97.5 151t66.5 151t19 147t-55.5 118.5q-81 85 -294 64q-187 -18 -399.5 -92.5t-455.5 -185.5q-4 -2 -14 1q-1 5 0.5 8
t3.5 4l8 4t9 4l24 13q5 2 8 0q453 201 738 248q280 46 387 -52q231 -214 -308 -807zM142 -255q-61 -43 -97.5 -72.5t-79 -72.5t-71.5 -92t-48 -110q-39 -120 -10 -163q22 -33 67 8q49 44 96 155zM122 -98q-47 -21 -91 -83q39 29 91 83z" />
    <glyph glyph-name="a_00" unicode="&#xe03a;" horiz-adv-x="391" 
d="M101 -49q13 -3 37 4t57.5 23.5t55.5 28.5l56 32t35 20l48 25.5t52.5 25.5t58.5 22.5t55.5 13t53.5 1t43.5 -17t35 -38t18.5 -65.5l1 -6q77 39 157 73.5t179 66.5t189.5 49.5t185 16.5t168.5 -25q136 -44 157 -151l3 -22q2 -7 -6 -7q-8 -2 -8 6q-8 57 -39 93t-87 59
q-68 28 -157 32t-176.5 -10t-182.5 -41.5t-171.5 -58t-146.5 -64.5q-71 -36 -75 -34q-2 1 -4.5 18t-10 41t-19.5 39q-16 20 -41 28t-59 2t-63.5 -14.5t-70.5 -28.5l-64 -31.5t-61 -33.5t-44 -25q-115 -65 -155 -64q-73 1 4 170q5 11 6 14q-109 -154 -165 -107
q-22 16 -17.5 55.5t20.5 80t47.5 72t63.5 32.5q41 1 53.5 -26.5t8.5 -62.5l17 22q5 8 19.5 4.5t7.5 -21.5q-1 -4 -13 -29l-23.5 -51t-24 -58t-14.5 -50.5t5 -27.5zM110 139q1 16 1.5 39.5t-12 40t-36.5 9.5q-22 -6 -46.5 -33.5t-39.5 -60.5t-21.5 -64t6.5 -45
q32 -38 148 114z" />
    <glyph glyph-name="b_00" unicode="&#xe03b;" 
d="M299 709q28 -6 29.5 -36t-22.5 -77.5t-54.5 -96.5t-75 -108.5l-74.5 -97.5l-64 -78q-1 -3 -3.5 -9t-7.5 -17t-9 -21q25 37 49 56t42 19.5t31.5 -11t19 -33t2 -50.5t-17.5 -59q43 22 77.5 36t78 23t74.5 2t55.5 -36.5t31.5 -82.5l1 -5q77 39 157 73.5t179 66t189.5 49
t185 16.5t168.5 -25q136 -44 158 -151l3 -21q0 -8 -7 -8t-8 6q-7 57 -38 93t-88 59q-68 28 -157 32t-176.5 -10t-182.5 -41.5t-171 -58t-147 -64.5q-71 -36 -75 -34q-2 1 -4.5 18.5t-10 41.5t-19.5 38q-63 76 -283 -37q-30 -58 -79 -103t-76 -29q-4 3 -4.5 7.5t3.5 11
t10 13.5t16 16l19 17t21.5 18l22.5 18l22.5 18l20.5 16q40 96 17 135q-19 31 -64 -5q-33 -27 -68 -85q-45 -106 -47 -111q-3 -7 -18 -5q-7 2 -5 6q7 17 29.5 76.5l45.5 119.5l55 137t63 141t63 119.5t62.5 84.5t54.5 23zM54 258l23.5 29.5l40.5 51l51.5 68l52 73.5
t47.5 75.5t32.5 65.5t12.5 51t-17 25q-15 5 -35.5 -14.5t-42.5 -57.5t-44 -82t-43.5 -94l-37 -88l-27.5 -70t-13 -33zM94 40l-50 -41t-38.5 -33t-17.5 -16q43 -3 106 90z" />
    <glyph glyph-name="c_00" unicode="&#xe03c;" horiz-adv-x="316" 
d="M79 200q11 13 9 25.5t-20 9.5q-28 -4 -51 -41q-38 -60 -33 -125q10 -101 178 -6q3 2 9.5 5.5t9.5 5.5q22 11 52 28.5t36 20.5l55.5 29.5t61 28t66.5 23t61 8t56 -10t40 -39t24 -71.5l1 -6q77 39 157 73.5t179 66t190 49t185 17t169 -24.5q136 -47 157 -152l3 -21
q0 -8 -7 -8t-7 7q-8 57 -39 92.5t-88 58.5q-68 28 -157 32t-176.5 -10t-182.5 -41.5t-171 -58t-147 -64.5q-71 -36 -74 -34q-2 1 -5 18.5t-10 41.5t-19 39q-16 20 -41.5 27.5t-59 1.5t-63.5 -14.5t-70 -28l-64.5 -32t-61 -33t-44.5 -25.5q-91 -50 -132 -58q-81 -16 -94 64
q-3 28 2 58q6 31 18 58.5t35 48.5t52 18q28 -3 34 -20t-13 -41q-3 -3 -7 -2t-5 4.5t2 7.5z" />
    <glyph glyph-name="d_00" unicode="&#xe03d;" horiz-adv-x="420" 
d="M139 -54q18 -1 54 13t67.5 31l69.5 38.5t46 25.5l55 29.5t61.5 28t66.5 23t61 8t56.5 -10t40.5 -39t24 -71.5v-6q77 39 157.5 73.5t179 66t189.5 49t185 17t169 -24.5q136 -44 157 -151l3 -22q0 -8 -7 -8t-7 7q-15 107 -127 151q-68 28 -157 32t-176 -10t-182.5 -41.5
t-171.5 -58t-147 -64.5q-3 -1 -21 -10.5t-34 -17t-19 -6.5q-2 1 -5 18.5t-10 41.5t-19 39q-16 20 -41.5 27.5t-59 1.5t-63 -14.5t-70.5 -28t-64.5 -32l-60.5 -33.5l-44 -25q-2 -1 -18.5 -10.5t-26 -14.5t-28 -13.5t-31 -13t-28 -7.5t-26.5 -2q-69 4 -5 213
q-146 -191 -191 -130q-17 21 -10 60.5t24.5 78.5t48 68.5t61.5 30.5q28 0 44 -16t18.5 -34t0.5 -39l20 27q6 14 7 18q123 329 203 435q49 64 85 56q28 -6 29.5 -36t-22.5 -77.5t-54.5 -96.5t-75 -108.5l-74.5 -97.5l-64 -78q-4 -10 -10.5 -28.5t-16.5 -49.5t-17 -60.5
t-12 -57.5t-2 -45.5t15 -18.5zM198 248q318 398 248 438q-3 1 -5 2q-12 4 -27 -7.5t-31.5 -35t-34 -54t-35 -68l-33 -72.5l-30.5 -71.5l-25 -62l-18 -46.5t-9 -23zM111 142q0 2 1 2q1 18 0.5 40.5t-13 38.5t-35.5 9q-29 -9 -60 -50.5t-46 -88t-2 -67.5q15 -26 58.5 11.5
t96.5 104.5z" />
    <glyph glyph-name="e_00" unicode="&#xe03e;" horiz-adv-x="313" 
d="M110 40q27 12 58 29l60.5 34t35.5 20l47.5 25.5t52.5 25.5t58 22.5t55 13t53.5 1t44 -17t35 -38t18.5 -65.5l1 -6q77 39 157 73.5t179 66.5t189.5 49.5t185 16.5t168.5 -25q135 -44 158 -151l3 -22q0 -7 -7 -7q-6 -2 -8 6q-8 58 -38.5 93.5t-87.5 58.5q-68 28 -157 32
t-176.5 -10t-182.5 -41.5t-171.5 -58t-146.5 -64.5q-72 -36 -75 -34q-2 1 -4.5 18t-10 41t-19.5 39q-16 20 -41 28t-59 2t-63.5 -14.5t-70.5 -28.5l-64 -31.5t-61 -33.5t-44 -25q-52 -30 -65 -36q-112 -53 -146 8q-18 33 -13 80.5t30 87.5q16 27 38 39q21 10 39 10t29 -9
t8 -20q-11 -42 -110 -73q-21 -65 -5 -104q11 -25 36.5 -28t41.5 3.5t45 19.5zM-1 166q74 25 88 58q5 11 -11 12q-24 2 -45 -19q-21 -23 -32 -51z" />
    <glyph glyph-name="f_00" unicode="&#xe03f;" horiz-adv-x="228" 
d="M-19 17q-6 4 -8 4q-5 -1 -6 -6v-1q-2 -8 7 -12l3 -10q18 -60 -7 -192t-62 -189q-7 -12 -17 -21t-20 -13.5t-18.5 1t-12.5 23.5q-14 70 49.5 251.5t155.5 380.5q55 47 109.5 124t73.5 140q6 9 4.5 30.5t-20.5 16.5q-25 -7 -75.5 -84.5t-97.5 -178.5q-80 -171 -127 -293
q-13 -33 -30.5 -88t-40.5 -140t-19 -143t42 -56q44 2 76.5 82t45 160t11.5 126q0 46 -7 71h2q13 -1 30 3.5t36.5 13.5l33 15.5t32.5 17.5t22 12l33.5 19l44 24.5l47.5 25.5t53 25.5l52.5 21t53 15t46.5 4.5t41.5 -7t31.5 -24q12 -15 19.5 -39t10 -41.5t4.5 -18.5
q3 -1 19 6.5l34.5 17t21.5 10.5q71 34 147 64.5t171 58t182.5 41.5t176.5 10t157 -32q56 -22 87 -58t39 -93q2 -7 8 -7q7 2 7 8l-3 22q-23 107 -158 151q-74 24 -168.5 24.5t-185 -17t-189.5 -49t-179 -66t-157 -73.5l-1 6q-6 44 -24 71.5t-40 39t-56.5 10t-61 -7.5
t-66.5 -23t-60.5 -27.5l-55.5 -29.5l-37.5 -22t-59 -32.5l-59.5 -29.5t-57 -22.5t-34 -0.5zM61 267q53 113 92 180q1 1 5 8q80 122 57 46q-17 -53 -61 -119.5t-93 -114.5z" />
    <glyph glyph-name="g_00" unicode="&#xe040;" 
d="M484 212q111 5 128 -121l1 -6q77 39 157 73.5t179 66t189.5 49t185 17t168.5 -24.5q135 -44 158 -151l3 -22q0 -6 -7 -8q-6 0 -8 7q-8 57 -39 93t-87 58q-68 28 -157 32t-176.5 -10t-182.5 -41.5t-171 -58t-147 -64.5q-3 -1 -21.5 -10.5l-34.5 -17t-19 -5.5q-2 1 -4.5 18
t-10 41t-19.5 39q-27 34 -86 31q-132 -8 -378 -180l-46 -114q-57 -142 -106 -226q-63 -106 -120 -110q-38 -2 -50 44q-16 59 26 137q12 22 24.5 41.5t28.5 39l27 33t31.5 32.5l29.5 27.5t33.5 27.5t30.5 24t33.5 25.5l31.5 23.5l42 106l-8 -10q-111 -152 -165 -107
q-15 13 -17 42t8.5 62.5t28 64.5t43 52t50.5 21q29 0 45 -16.5t18.5 -35t0.5 -39.5q14 18 16 20l2 4v2l15 44q3 9 21 7q7 -3 7 -7q-26 -81 -70 -189q88 61 193.5 113.5t174.5 55.5zM31 -96l38 92l-26 -19t-27.5 -20.5l-25.5 -20t-27.5 -22.5l-25 -22.5t-26.5 -25.5
l-23.5 -26.5t-24 -30.5l-21 -32t-20.5 -36q-41 -80 -23 -131q14 -38 51 -22q42 17 86 98q16 29 33 66.5t27.5 64.5l22 55.5t12.5 31.5zM108 139q1 16 1.5 40t-12.5 41.5t-37 10.5q-30 -9 -61 -53.5t-42 -86.5t2 -66q33 -38 149 114z" />
    <glyph glyph-name="h_00" unicode="&#xe041;" horiz-adv-x="412" 
d="M303 710q28 -7 29.5 -37t-22 -77t-54 -96t-74.5 -107.5l-75 -97.5l-64 -78q-75 -179 -89 -218q150 225 213 186q11 -7 15.5 -18.5t2 -29.5l-4 -28t-9 -33.5l-8.5 -26.5q-21 -73 159 25q2 1 3 2l84 48l37.5 19.5l41 20.5t46 20l45 16t45.5 10.5t41.5 1.5t39 -8t31 -22
t25 -36.5t13.5 -54.5v-6q77 39 157.5 73.5t179 66t189.5 49t185 17t169 -24.5q136 -44 157 -151l3 -22q2 -6 -6 -8q-8 0 -8 7q-8 57 -39 93t-87 59q-68 28 -157 32t-176.5 -10t-182.5 -41.5t-171.5 -58t-146.5 -64.5q-72 -36 -75 -34q-2 1 -4.5 18t-10 41t-19.5 39
q-16 20 -41 28t-59.5 1.5t-62.5 -14t-71.5 -29l-63 -31.5t-61.5 -34t-44 -25q-73 -39 -81 -42q-114 -51 -107 27q1 13 5.5 31l8.5 33t7 29t2 23t-7 11q-21 7 -52.5 -17t-65.5 -67.5t-54 -72.5l-39 -58l-2.5 -2.5t-5.5 -6t-8.5 -7.5l-9 -6t-8 -2t-5.5 5t48 132
q135 355 212 495q85 155 137 143zM59 258l24 29l40 51l51 68.5l52 74t47 75t32.5 65.5t12.5 51t-17 26q-65 22 -242 -440z" />
    <glyph glyph-name="i_00" unicode="&#xe042;" horiz-adv-x="248" 
d="M57 23q22 8 52.5 23.5t53 28l49.5 28t33 18.5l47.5 25.5t52.5 25.5t58 22.5t55 13t53.5 1t44 -17t35 -38t18.5 -65.5l1 -6q77 39 157 73.5t179 66.5t189.5 49.5t185 16.5t168.5 -25q136 -44 158 -151l3 -22q0 -7 -7 -7q-6 -2 -8 6q-7 57 -38 93t-88 59q-68 28 -157 32
t-176.5 -10t-182.5 -41.5t-171.5 -58t-146.5 -64.5q-71 -36 -75 -34q-2 1 -4.5 18t-10 41t-19.5 39q-16 20 -41.5 28t-58.5 2t-63 -14.5t-70.5 -28l-64.5 -32t-60.5 -33.5t-44.5 -25q-63 -37 -98 -50q-86 -36 -91 25q-2 26 8.5 68t24 83t15.5 49q1 4 7 4.5t11.5 -2.5t5.5 -7
q-1 -7 -26 -88t-25 -109q0 -6 1.5 -10t4 -6t5.5 -3.5t8 -1.5t8.5 0.5t9 2l9 2.5t9 3t7.5 3zM64 290q-1 -4 -7 -23q-12 0 -17.5 6.5t-1.5 16.5q2 7 2.5 9.5t1.5 4.5q1 8 14 0q9 -6 8 -14z" />
    <glyph glyph-name="j_00" unicode="&#xe043;" horiz-adv-x="180" 
d="M51 232q-48 -135 -70 -189q91 59 206 115q271 133 298 -67v-6q77 39 157.5 73.5t179 66t189.5 49t185 17t169 -24.5q136 -44 157 -152l3 -21q2 -8 -6 -8t-8 7q-8 57 -39 92.5t-87 58.5q-68 28 -157.5 32t-176.5 -10t-182.5 -41.5t-171.5 -58t-147 -64.5q-71 -35 -74 -34
q-2 1 -5 18.5t-10 41.5t-19 39q-58 71 -252 -22q-133 -64 -219 -127l-47 -115q-63 -153 -106 -225q-63 -107 -120 -110q-38 -2 -50 43q-16 59 26 138q12 22 24.5 41.5t28.5 39l27 33t31.5 32.5l29.5 27.5t33.5 27.5t30.5 24t33.5 25.5l31.5 23.5q24 59 79 210q3 9 21 6
q7 -2 7 -6zM-104 -97l38 93q-5 -4 -32 -24t-35 -26.5l-31.5 -25.5t-34 -29.5l-30 -30.5t-31.5 -36t-26.5 -38t-26.5 -45q-41 -81 -23 -131q14 -38 51 -23q42 18 86 99q16 29 33 66.5t27.5 64l22 55t12.5 31.5zM66 288l-6 -23q-12 0 -17.5 6.5t-2.5 16.5q4 12 4 14q2 8 14 0
q10 -6 8 -14z" />
    <glyph glyph-name="k_00" unicode="&#xe044;" horiz-adv-x="384" 
d="M300 710q28 -6 29.5 -36.5t-22 -77t-54 -96t-74.5 -107.5l-75.5 -97.5l-63.5 -78.5q-71 -169 -84 -204q119 180 211 224q31 14 39 -1.5t-25 -45.5q-18 -16 -69 -50q6 -2 10 -4q11 -7 16 -16.5t4.5 -21.5t-2 -20.5t-6 -22.5t-5.5 -18q-11 -41 78 -3q2 1 3 1
q28 12 61.5 30.5l66 37t38.5 21.5q25 14 42 22.5l46.5 22.5t50.5 21.5t50 15t49.5 7.5t43.5 -5.5t38.5 -19t27 -38t16.5 -59.5l1 -6q77 39 157.5 73.5t179 66.5t189.5 49.5t185 16.5t169 -25q136 -44 157 -151l3 -22q0 -7 -7 -7q-7 -2 -7 6q-8 57 -39 93t-88 59
q-68 28 -157 32t-176 -10t-182 -42t-171.5 -58t-147.5 -64q-71 -36 -74 -34q-2 1 -5 18t-10 41t-19 39q-16 20 -41.5 28t-59 2t-63.5 -14.5t-70.5 -28l-64.5 -32t-60.5 -33.5t-44.5 -25q-63 -35 -78 -42q-16 -7 -33 -12.5t-37.5 -8t-31.5 8.5t-8 35q1 8 4.5 20t5.5 21
t3.5 18t0 14.5t-7.5 7.5q-21 6 -53 -18l8 23l12 6q116 72 114 92q-2 3 -9.5 0.5t-9.5 -4.5q-55 -26 -117 -99.5t-109 -151.5q-1 -4 -6 -14l-2.5 -2.5t-5.5 -6t-8.5 -7.5l-9 -6t-8 -2t-5.5 5q-3 5 49 132l45.5 119l54 135.5t65 148.5t63.5 120.5t65.5 91t54.5 23.5zM56 258
l24 29l40 51l51 68.5l52 74t47 75t32.5 65.5t12.5 51t-17 26q-65 22 -242 -440z" />
    <glyph glyph-name="l_00" unicode="&#xe045;" horiz-adv-x="277" 
d="M72 -32q28 12 61.5 30.5l66 37t38.5 21.5l55 29.5t61.5 28t66.5 23t61 8t56.5 -10t40.5 -39t24 -71.5v-6q77 39 157.5 73.5t179 66t189.5 49t185 17t169 -24.5q136 -44 157 -152l3 -21q0 -8 -7 -8t-7 7q-8 57 -39 92.5t-88 58.5q-68 28 -157 32t-176 -10t-182.5 -41.5
t-171.5 -58t-147 -64.5q-71 -35 -74 -34q-2 1 -5 18.5t-10 41.5t-19 39q-16 20 -41.5 27.5t-59 1.5t-63 -14.5t-70.5 -28t-64.5 -32l-60.5 -33.5l-44 -25q-5 -3 -19.5 -11l-29.5 -16l-29 -15q-21 -9 -36.5 -14t-35.5 -6.5t-32 10t-15 36.5q-5 58 31 172q29 90 65.5 184
t93 200t105.5 145q29 25 54.5 15.5t19.5 -48.5q-8 -54 -65 -144t-112 -157.5t-107 -123.5q-16 -39 -41 -121.5t-22 -124.5q1 -8 3 -14t6.5 -9t9 -4.5t11.5 -1t12 1.5t13 4t12.5 4.5t12.5 5t10 4.5zM59 260q88 99 167 210.5t89 179.5q4 29 -13 33.5t-38 -13.5
q-33 -27 -77 -111.5t-68 -143.5z" />
    <glyph glyph-name="m_00" unicode="&#xe046;" horiz-adv-x="537" 
d="M48 238l-93 -226q29 46 54.5 82.5t58.5 69t54 32.5q53 -2 7 -157q97 97 136 91q9 -1 14.5 -5t8 -11t3.5 -13.5t0 -16.5t-2 -16.5t-3.5 -17l-3.5 -14.5q-4 -28 40 -15q29 9 69.5 29.5t86.5 46.5t49 28q27 15 42 22.5l46 22t51 21.5t49.5 15t49.5 7.5t43.5 -5.5t38.5 -19
t27 -38t17 -59l1 -6q77 39 157 73.5t179 66t189.5 49t185 17t168.5 -24.5q135 -44 158 -151l3 -22q0 -6 -7 -8q-6 0 -8 7q-8 58 -38.5 93.5t-87.5 58.5q-68 28 -157 32t-176.5 -10t-182.5 -41.5t-171.5 -58t-146.5 -64.5q-72 -36 -75 -34q-2 1 -4.5 18t-10 41t-19.5 39
q-16 20 -41 28t-59 1.5t-63 -14.5t-70.5 -28l-64 -31.5t-61 -34t-44.5 -25.5q-4 -2 -21 -11.5l-30.5 -16.5t-32.5 -15.5t-34 -12.5q-18 -6 -32 -7t-26 8t-11 30q1 8 3 20t4 21t3 18t-1 13.5t-7 5.5q-6 1 -15 -3t-20.5 -11.5t-21.5 -15.5t-22.5 -19l-20 -18l-17.5 -17l-10 -9
q-2 -2 -9.5 -6.5t-16.5 -8t-12 3.5q-1 3 4 21.5l12 42.5t13 48t5.5 40.5t-9.5 16.5q-29 1 -96 -92q-4 -5 -28 -43l-46 -71t-25 -34q-10 -3 -15.5 6t-3.5 13q20 53 116 283q4 9 20 3q8 -3 6 -8z" />
    <glyph glyph-name="n_00" unicode="&#xe047;" horiz-adv-x="414" 
d="M51 232q-80 -190 -96 -233q153 225 213 186q14 -9 17 -28.5t-0.5 -36t-11.5 -43t-10 -34.5q-12 -50 71 -12l19 9q27 12 58.5 29l61.5 34.5t36 20.5q25 14 42 22.5l46.5 22.5t50.5 21.5t50 15t49.5 7.5t43.5 -5.5t38.5 -19t27 -38t16.5 -59.5l1 -5q77 39 157 73.5t179 66
t190 49t185 16.5t169 -25q136 -45 157 -151l3 -21q0 -8 -7 -8t-7 6q-8 57 -39 93t-88 59q-68 28 -157 32t-176.5 -10t-182.5 -41.5t-171 -58t-147 -64.5q-71 -36 -74 -34q-2 1 -5 18.5t-10 41.5t-19 38q-16 20 -41.5 28t-59 2t-63.5 -14.5t-70.5 -28l-64.5 -32t-60.5 -33.5
t-44.5 -25q-51 -29 -68 -37q-19 -9 -35.5 -15t-38.5 -10t-33.5 7t-9.5 37q1 13 5 31.5t8 33.5t7.5 29.5t2.5 23.5t-7 11q-21 7 -53 -17t-65.5 -66.5t-55 -73.5t-38.5 -58l-2.5 -2.5t-5.5 -6t-8.5 -7.5l-9 -6t-8 -2t-5.5 5q-1 3 9.5 31l27 69.5l32.5 80.5l30.5 75l16.5 41
q2 4 9.5 4.5t13.5 -2.5t5 -7z" />
    <glyph glyph-name="o_00" unicode="&#xe048;" horiz-adv-x="249" 
d="M61 225q-23 5 -55 -54q-38 -71 -33 -122q4 -31 27 -35q28 -5 58 27.5t47.5 74.5t16.5 68q-37 14 -47 38q-7 18 14 18h2q37 -1 44 -45q18 -1 54.5 13.5t66 30.5l71 39.5t45.5 25.5l47.5 25.5t52.5 25.5t58 22.5t55 13t53.5 1t44 -17t35 -38t18.5 -65.5l1 -6
q77 39 157 73.5t179 66.5t189.5 49.5t185 16.5t168.5 -25q135 -44 158 -151l3 -22q0 -7 -7 -7q-6 -2 -8 6q-8 58 -38.5 93.5t-87.5 58.5q-68 28 -157 32t-176.5 -10t-182.5 -41.5t-171.5 -58t-146.5 -64.5q-72 -36 -75 -34q-2 1 -4.5 18t-10 41t-19.5 39q-16 20 -41 28
t-59 2t-63.5 -14.5t-70.5 -28.5l-64 -31.5t-61 -33.5t-44 -25q-114 -65 -154 -62v-1q1 -30 -19 -75t-54.5 -78.5t-68.5 -24.5q-49 12 -39 93q9 73 49 123q32 39 58 24q7 -3 6 -12q-1 -6 -7 -5zM120 200q-5 25 -27 26q-5 0 -5 -2q0 -10 25 -21q3 -2 7 -3z" />
    <glyph glyph-name="p_00" unicode="&#xe049;" horiz-adv-x="319" 
d="M48 234l-28 -80q70 87 120 86q36 0 43.5 -27.5t-9.5 -64.5q43 21 77 35t77.5 23t74 2t55 -36.5t31.5 -82.5l1 -5q77 39 157 73.5t179 66t189.5 49t185 16.5t168.5 -25q136 -44 158 -151l3 -21q0 -8 -7 -8t-8 6q-7 57 -38 93t-88 59q-68 28 -157 32t-176.5 -10
t-182.5 -41.5t-171 -58t-147 -64.5q-71 -36 -75 -34q-2 1 -4.5 18.5t-10 41.5t-19.5 38q-62 76 -281 -36l-3 -5q-29 -55 -74 -94t-75 -26q-35 16 88 97l41 28q37 81 0 94q-21 9 -62 -25.5t-78 -89.5l-81 -202q-58 -145 -106 -226q-63 -107 -120 -110q-38 -2 -50 43
q-16 59 26 138q12 22 24.5 41.5t28.5 39l27 33t31.5 32.5l29.5 27.5t33.5 27.5t30.5 24t33.5 25.5l31.5 23.5q55 135 79 210q3 9 21 6q7 -2 7 -6zM-107 -94l38 92q-5 -4 -32 -24t-35 -26.5l-31.5 -25.5t-34 -29.5l-30 -30.5t-31.5 -36t-26.5 -38t-26.5 -45q-41 -81 -23 -131
q14 -38 51 -23q42 18 86 99q16 29 33 66.5t27.5 64l22 55t12.5 32.5zM123 98q-93 -65 -102 -83q41 -3 102 83z" />
    <glyph glyph-name="q_00" unicode="&#xe04a;" horiz-adv-x="373" 
d="M183 235q-27 -57 -117 -221t-135.5 -269t-36.5 -155q4 -17 13 -22.5t20.5 0t22 13.5t19.5 19q51 59 109.5 203.5t22.5 201.5q-2 3 0 6t6 3.5t8 -2.5q10 -6 34.5 0t57 22l59.5 30.5l58.5 32.5t37.5 21q34 19 55.5 29.5t61.5 27.5t66.5 23.5t61 8t56.5 -10t40 -39t24 -71.5
v-6q77 39 157.5 73.5t179 66t189.5 49t185 17t169 -24.5q136 -44 157 -152l3 -21q2 -8 -6 -8t-8 7q-8 57 -39 92.5t-87 58.5q-68 28 -157 32t-176.5 -10t-182.5 -41.5t-171 -58t-147 -64.5q-71 -36 -75 -34q-2 1 -4.5 18.5t-10 41.5t-19.5 39q-16 20 -41.5 27.5t-59 1.5
t-63 -14.5t-70.5 -28t-64.5 -32l-60.5 -33.5l-44 -25q-126 -69 -163 -62q23 -35 -9.5 -143t-91 -203.5t-99.5 -98.5q-102 -8 20 263q71 157 152 285q5 7 8 12q-103 -145 -159 -99q-15 13 -17 41.5t8.5 60.5t28 62t43 50t51.5 21q41 1 54 -24.5t9 -59.5q3 3 6.5 8l5.5 8t4 5
l23 53q6 4 15.5 3t12.5 -4zM99 139q1 17 1.5 39t-12.5 37t-37 8q-46 -14 -85.5 -91.5t-14.5 -106.5q32 -38 148 114z" />
    <glyph glyph-name="r_00" unicode="&#xe04b;" horiz-adv-x="319" 
d="M77 115q-44 -103 -50 -132q-3 -18 3 -26.5t19.5 -7.5t22.5 3t22 7q27 12 65 32t75 41.5l44 25.5l55.5 29.5t61 28t66.5 23t61 8t56 -10t40 -39t24 -71.5l1 -6q77 39 157 73.5t179 66t190 49t185 17t169 -24.5q136 -47 157 -152l3 -21q0 -8 -7 -8t-7 7q-8 57 -39 92.5
t-88 58.5q-68 28 -157 32t-176.5 -10t-182.5 -41.5t-171 -58t-147 -64.5q-71 -36 -74 -34q-2 1 -5 18.5t-10 41.5t-19 39q-13 16 -31.5 24t-42 7t-47 -4.5t-53 -15l-52.5 -21t-53 -25.5l-47.5 -25.5l-44 -24.5l-33.5 -19q-49 -29 -96 -50q-19 -9 -36.5 -12.5t-32.5 -1.5
t-23.5 15t-6.5 37q1 16 8 38t12.5 36t15.5 36.5t10 23.5q11 24 14 41t-4 30.5t-15.5 22t-28.5 24.5q-9 7 -10.5 17t2 19l8.5 22t6 23q4 13 19 7t23 -18q19 -27 -17 -71q32 -20 40.5 -54t-7.5 -67z" />
    <glyph glyph-name="s_00" unicode="&#xe04c;" horiz-adv-x="206" 
d="M56 141q1 31 -20 61.5t-21 53.5q0 21 16 39.5t35 6.5q13 -6 8 -22.5t-13.5 -29.5t-16.5 -21v-1q33 -30 36 -73q68 37 104 48q206 78 230 -97l1 -6q77 39 157 73.5t179 66t189.5 49t185 17t168.5 -24.5q135 -44 158 -151l3 -22q0 -8 -7 -8q-6 0 -8 7q-8 57 -39 93t-87 58
q-68 28 -157 32t-176.5 -10t-182.5 -41.5t-171 -58t-147 -64.5q-3 -1 -21.5 -10.5l-34.5 -17t-19 -6.5q-2 1 -4.5 18.5t-10 41.5t-19.5 39q-60 74 -262 -26l-28 -15q-6 -46 -46.5 -97t-83 -78t-55.5 -14q-27 26 12 72t148 118zM54 122q-74 -51 -122 -96.5t-28 -61.5
q18 -13 80 53.5t70 104.5zM42 248q23 30 17 42q-11 5 -15.5 -11t-1.5 -31z" />
    <glyph glyph-name="t_00" unicode="&#xe04d;" horiz-adv-x="245" 
d="M64 346l28 66q3 5 11.5 6t14.5 -4.5t1 -17.5q0 -1 -3 -7.5t-8 -19t-11 -25.5q4 -1 7 -1q2 0 28 -1.5t39 -1.5q7 0 7 -8q0 -7 -7 -7q-28 3 -79 4l-35.5 -83.5l-38.5 -91.5t-19 -45q-3 -9 -10.5 -27l-12 -29.5l-10.5 -27.5t-9 -26.5t-5 -22t-0.5 -18t5.5 -8.5q11 -6 36 0
t57 22l59 30.5l57 32t36 20.5q25 14 42 22.5l46.5 22.5t50.5 21.5t50 15t49.5 7.5t43.5 -5t38.5 -19t27 -38.5t16.5 -58.5l1 -6q77 39 157.5 73.5t179 66t189.5 49t185 17t169 -24.5q136 -45 157 -152l3 -21q0 -8 -7 -8t-7 7q-8 57 -39 92.5t-88 58.5q-68 28 -157 32
t-176.5 -10t-182.5 -41.5t-171 -58t-147 -64.5q-71 -36 -74 -34q-2 1 -5 18.5t-10 41.5t-19 39q-16 20 -41.5 27.5t-59 1.5t-63.5 -14.5t-70 -28l-64.5 -32t-61 -33t-44.5 -25.5q-3 -1 -22.5 -12.5t-31 -17.5t-32.5 -15t-35.5 -13t-29.5 -4t-25 7q-6 4 -9.5 11.5t-4 17.5
t0 20.5t4 24l6.5 24.5t8 25l8 22t8 19.5t6 14.5l87 213q-56 2 -65 1l-1 -1q-6 -5 -10 -1q-17 15 25 17q22 1 57 -1z" />
    <glyph glyph-name="u_00" unicode="&#xe04e;" horiz-adv-x="386" 
d="M51 234q-1 -8 -11 -33.5l-21 -53t-21 -58.5t-11 -49.5t11 -24.5q26 -7 70 51.5t72 119.5h1q1 3 7 3t11 -2.5t5 -6.5q-1 -8 -35.5 -89t-37.5 -105q-2 -21 5.5 -27t23.5 -3q21 3 56 18.5t63 30.5l63.5 35.5l40.5 23.5l37.5 19.5l41 20.5t46 20l45 16t45.5 10.5t41.5 1.5
t39 -8t31 -22t25 -36.5t13.5 -54.5l1 -6q77 39 157 73.5t179 66t189.5 49t184.5 17t169 -24.5q136 -44 157 -151l3 -22q2 -6 -6 -8q-8 0 -8 7q-8 57 -39 93t-87 59q-68 28 -157 32t-176.5 -10t-182.5 -41.5t-171.5 -58t-146.5 -64.5q-72 -36 -75 -34q-2 1 -4.5 18t-10 41
t-19.5 39q-16 20 -41 28t-59.5 1.5t-62.5 -14t-71.5 -29l-63 -31.5t-61.5 -34t-44 -25q-3 -2 -25 -14l-36.5 -19.5t-37 -16t-38.5 -10.5q-53 -10 -57 33q-2 25 27 101q-30 -45 -53.5 -63t-49.5 -12q-19 4 -23.5 26t3 53.5t18 61.5l21.5 59t13 38q1 4 8 4.5t13 -2.5t6 -7z
" />
    <glyph glyph-name="v_00" unicode="&#xe04f;" horiz-adv-x="309" 
d="M132 182q-27 20 -20 49q5 21 22 18q2 -1 3 -1q29 -10 11 -59l1 -1h1q5 -8 27.5 -2.5t42.5 13t50.5 23.5l51.5 27.5l45.5 25.5l31.5 18l47.5 25.5t52.5 25.5t58 22.5t55 13t53.5 1t44 -17t35 -38t18.5 -65.5l1 -6q77 39 157 73.5t179 66.5t189.5 49.5t185 16.5t168.5 -25
q136 -44 158 -151l3 -22q0 -7 -7 -7q-6 -2 -8 6q-8 58 -38.5 93.5t-87.5 58.5q-68 28 -157 32t-176.5 -10t-182.5 -41.5t-171.5 -58t-146.5 -64.5q-71 -36 -75 -34q-2 1 -4.5 18t-10 41t-19.5 39q-16 20 -41 28t-59 2t-63.5 -14.5t-70.5 -28.5l-64 -31.5t-61 -33.5t-44 -25
q-2 -1 -17.5 -10t-24.5 -13.5l-26 -13.5t-29.5 -13.5t-27 -8.5t-26.5 -3.5t-21 4.5q-1 0 -1 1q-53 -109 -78 -139q-33 -39 -65 -31q-19 5 -25 26t0 52t14.5 60t18 58t11.5 37q1 4 7.5 4t12.5 -3t6 -7q-1 -7 -9.5 -32l-18 -53t-17 -56t-7 -48.5t12.5 -23.5q13 -4 30.5 10.5
t35.5 43.5t31 53.5zM138 196q5 17 2 28.5t-10 11.5q-2 -1 -3.5 -7.5t1 -16t10.5 -16.5z" />
    <glyph glyph-name="w_00" unicode="&#xe050;" horiz-adv-x="430" 
d="M162 192q0 -4 -4 -31t-8.5 -60.5t-7.5 -67.5t-1.5 -56.5t9.5 -22.5q17 0 57.5 97t48.5 132q-26 20 -20 51q5 21 19 18q3 0 6 -2q19 -13 11 -60q11 -6 35 0.5t56.5 22t59.5 30l57.5 32.5t37.5 21q34 19 55.5 29.5t61.5 27.5t66.5 23.5t61 8t56.5 -10t40 -39t24 -71.5v-6
q77 39 157.5 73.5t179 66t189.5 49t185 17t169 -24.5q136 -44 157 -152l3 -21q0 -8 -6 -8q-8 0 -8 7q-8 57 -39 92.5t-87 58.5q-68 28 -157.5 32t-176.5 -10t-182.5 -41.5t-171.5 -58t-147 -64.5q-71 -36 -74 -34q-2 1 -5 18.5t-10 41.5t-19 39q-16 20 -41.5 27.5t-59 1.5
t-63 -14.5t-70.5 -28t-64.5 -32l-60.5 -33.5l-44 -25q-3 -2 -17 -10t-23 -12.5l-26.5 -13.5t-27.5 -12.5t-27 -9t-25.5 -4t-21.5 2.5q-12 -46 -53 -140.5t-66 -97.5q-30 -3 -30 76.5t11 134.5q-18 -36 -30 -58t-29 -46t-34.5 -33.5t-35.5 -4.5q-19 5 -25 26t0 51.5t14 59
t18 58t12 37.5q0 4 7 4t13.5 -3t6.5 -7q-1 -7 -9.5 -31.5l-18 -52.5t-17.5 -56t-7.5 -48.5t12.5 -23.5q42 -13 127 168q0 4 6.5 7t13.5 2t7 -6zM259 200q3 29 -5 37h-1q-2 -1 -3.5 -6.5t1 -14.5t8.5 -16z" />
    <glyph glyph-name="x_00" unicode="&#xe051;" horiz-adv-x="320" 
d="M206 220q-14 3 -126 -101l-3 -6q-45 -102 -50 -135q-3 -17 3 -24.5t19.5 -5.5t23 4.5t25.5 8.5q29 12 65 31l73.5 40t42.5 24l55.5 29.5t61 28t66.5 23t61 8t56 -10t40 -39t24 -71.5l1 -6q77 39 157 73.5t179 66t189.5 49t185 17t168.5 -24.5q135 -44 158 -152l3 -21
q0 -8 -7 -8q-6 0 -8 7q-8 57 -38.5 92.5t-87.5 58.5q-68 28 -157 32t-176.5 -10t-182.5 -41.5t-171 -58t-147 -64.5q-71 -36 -75 -34q-2 1 -4.5 18.5t-10 41.5t-19.5 39q-16 20 -41.5 27.5t-59 1.5t-63 -14.5t-70.5 -28.5l-64 -31.5t-61 -33t-44 -25.5q-68 -38 -90 -47
q-18 -7 -33.5 -11t-34 -4.5t-29 11t-9.5 35.5q2 31 25 89q-33 -26 -80 -46.5t-81 -21.5q-8 0 -6 8q0 8 8 6q23 -1 84.5 29.5t88.5 56.5q24 55 20 90.5t-41 28.5q-4 -1 -3 8q2 10 8 11q47 2 60.5 -20t3.5 -70q96 92 124 86q6 -4 4 -10q-4 -6 -10 -4z" />
    <glyph glyph-name="y_00" unicode="&#xe052;" horiz-adv-x="308" 
d="M53 232q-1 -7 -10.5 -32t-21 -52.5t-21 -58t-10.5 -48.5t11 -25q27 -7 66.5 48.5t71.5 121.5l17 46q3 9 21 6q7 -2 7 -6q-44 -122 -69 -185q120 79 236 130q240 107 266 -82v-6q77 39 157.5 73.5t179 66t189.5 49t185 17t169 -24.5q136 -44 157 -151l3 -22q0 -6 -7 -8
q-7 0 -7 7q-15 107 -127 151q-68 28 -157 32t-176 -10t-182.5 -41.5t-171.5 -58t-147 -64.5q-3 -1 -21.5 -10.5l-34 -17t-18.5 -5.5q-2 1 -5 18t-10 41t-19 39q-54 66 -218 -6q-138 -60 -251 -143l-47 -114q-59 -148 -105 -226q-64 -108 -121 -110q-39 -1 -51 45
q-15 59 27 136q11 20 23.5 38.5l22.5 33.5t26.5 32.5t25.5 28t28.5 27.5l27 24t30 24.5t28 21.5l30.5 22.5l29 21.5l25 65q-61 -100 -109 -89q-19 5 -23.5 26.5t3 52.5t17.5 60.5t21 58t13 37.5q1 7 14.5 4.5t12.5 -9.5zM30 -92l38 92l-26 -19t-27.5 -20.5l-25.5 -20
t-27.5 -22.5l-25 -22.5t-26.5 -25.5l-23.5 -26.5t-24 -30.5l-21 -32t-20.5 -36q-41 -80 -23 -131q14 -38 51 -22q42 17 86 98q16 29 33 66.5t27.5 64.5l22 55.5t12.5 31.5z" />
    <glyph glyph-name="z_00" unicode="&#xe053;" horiz-adv-x="363" 
d="M395 167q243 110 269 -81l1 -5q77 39 157 73.5t179 66t189.5 49t185 16.5t168.5 -25q137 -44 158 -151l3 -21q0 -8 -7 -8q-6 -2 -8 6q-7 57 -38 93t-88 59q-68 28 -157 32t-176.5 -10t-182.5 -41.5t-171.5 -58t-146.5 -64.5q-72 -36 -75 -34q-2 1 -4.5 18.5t-10 41.5
t-19.5 38q-54 68 -220 -7q-141 -61 -244 -136l-47 -114q-59 -148 -105 -226q-63 -106 -120 -110q-38 -2 -51 43q-16 59 27 138q12 22 24.5 41.5t28 38.5l27 33.5t31 32.5l30 27.5t33.5 27.5l31 24.5t33.5 25t31.5 23.5q13 34 13 56t-9.5 29.5t-24.5 6.5t-33 -11
q-3 -4 -6 -8.5l-6 -9t-4 -6.5q-19 -26 -45 -56t-64.5 -61.5t-59.5 -28.5q-10 2 -11 7q-4 21 58.5 77.5t100.5 77.5q79 115 96 157q12 31 7 45q-3 9 -10.5 10t-17.5 -5.5t-20.5 -15t-22 -20.5l-19.5 -21l-16 -18l-8 -10q-6 -4 -10 0q-5 6 0 11q1 1 11 13t18 20.5l21 22t24 21
t23 13t21.5 3t16.5 -13.5q28 -44 -63 -183q41 16 66 -4.5t8 -78.5q109 71 230 125zM83 -95l37 92l-26 -19t-27.5 -20.5l-25.5 -20t-27.5 -22.5l-25 -22.5t-26.5 -25.5l-23.5 -26.5t-24 -30.5l-21 -32t-20.5 -36q-41 -80 -23 -131q14 -38 51 -22q42 17 86 98q16 29 33 67
l28 64l22.5 55.5t12.5 31.5zM20 67q-34 -23 -74 -59t-48 -60q12 1 25.5 10t28 24.5t25 28t25 32t18.5 24.5z" />
    <glyph glyph-name="a_01" unicode="&#xe054;" horiz-adv-x="391" 
d="M-5 213q-36 -17 -97 -54t-62 -38l-48 -25.5t-52.5 -25.5t-58.5 -22.5t-55.5 -13t-53.5 -1t-43.5 17t-35 38t-18.5 65.5l-1 6q-77 -39 -157 -73.5t-178.5 -66.5t-189.5 -49.5t-185 -16.5t-169 25q-136 44 -157 151l-3 22q-2 7 6 7q8 2 8 -6q8 -57 39 -93t87 -59
q68 -28 157 -32t176.5 10t182.5 41.5t171.5 58t146.5 64.5q71 36 75 34q2 -1 4.5 -18t10 -41t19.5 -39q16 -20 41 -28t59 -2t63.5 14.5t70.5 28.5l64 31.5t61 33.5t44 25q2 1 31.5 19t53.5 30.5t45 16.5q9 3 18 3q41 1 53.5 -26.5t9.5 -63.5l16 22q5 8 19.5 4.5t7.5 -20.5
q-1 -4 -11 -24q-91 -194 -51 -194q13 1 29.5 9t36.5 24t38.5 32.5t42 41l40.5 42t39.5 44l33 38.5l28.5 33.5t18 22.5q4 5 10 1q5 -4 1 -10l-22 -26.5l-31 -36.5l-35.5 -41.5t-40.5 -45.5l-41 -42.5t-43 -40l-39.5 -31.5t-37 -22.5t-30.5 -7.5q-16 0 -25 8t-10 23t0.5 30
t9 35.5l12.5 34.5t13 32t10 22q-109 -155 -165 -108q-27 25 -11.5 91.5t55.5 111.5zM110 138q1 17 2 40.5t-11.5 40t-36.5 9.5q-30 -9 -61.5 -52.5t-42.5 -85.5t2 -66q33 -37 148 114z" />
    <glyph glyph-name="b_01" unicode="&#xe055;" 
d="M12 154q59 94 105 90q34 -2 43 -47.5t-17 -104.5l91.5 69t101.5 78q6 4 10 -2q3 -6 -3 -10l-208 -159q-30 -57 -79 -101.5t-76 -28.5q-4 3 -4.5 7.5t3.5 11t10 13.5t16 16l19 17t21.5 18l22.5 18l22.5 18l20.5 16q26 64 24.5 102.5t-24.5 44.5q-20 5 -49.5 -19.5
t-62.5 -78.5l-2 -3q-15 -28 -47 -111q-3 -8 -19 -5q-7 2 -5 6q11 25 57 149q-74 -70 -148.5 -102t-129 -24t-86 53.5t-24.5 121.5q-77 -39 -157.5 -73.5t-179 -66t-189.5 -49t-185 -17t-169 24.5q-136 44 -157 151l-3 22q-2 6 6 8q8 0 8 -7q8 -57 39 -93t87 -59
q68 -28 157 -32t176.5 10t182.5 41.5t171.5 58t146.5 64.5q1 0 5.5 2.5l9 5t11.5 6t13 6t13 6t12 5.5l10 4t6.5 2.5t2.5 -0.5q-19 -107 40 -155q64 -52 176 -3q80 36 167 120q38 100 72.5 180t78.5 167.5t84 134t70 39.5q28 -6 29 -36.5t-22.5 -77.5t-54 -96t-75 -107.5
l-75 -97.5l-63.5 -78q-5 -15 -27 -63zM54 258l23.5 29.5l40.5 51l51.5 68l52 73.5t47.5 75.5t32.5 65.5t12.5 51t-17 25q-15 5 -35.5 -14.5t-42.5 -57.5t-44 -82t-43.5 -94l-37 -88l-27.5 -70t-13 -33zM94 40l-50 -41t-38.5 -33t-17.5 -16q43 -3 106 90z" />
    </font>
</defs>
</svg>
